<?xml version="1.0" standalone="no"?>
<!DOCTYPE svg PUBLIC "-//W3C//DTD SVG 20010904//EN"
 "http://www.w3.org/TR/2001/REC-SVG-20010904/DTD/svg10.dtd">
<svg version="1.0" xmlns="http://www.w3.org/2000/svg"
 width="250.000000pt" height="250.000000pt" viewBox="0 0 250.000000 250.000000"
 preserveAspectRatio="xMidYMid meet">
<metadata>
Created by potrace 1.14, written by Peter Selinger 2001-2017
</metadata>
<g transform="translate(0.000000,250.000000) scale(0.100000,-0.100000)"
fill="#000000" stroke="none">
<path d="M1880 2201 c-25 -5 -76 -13 -115 -19 -81 -13 -165 -40 -165 -53 0 -5
-6 -9 -13 -9 -23 0 -186 -88 -256 -137 -106 -75 -381 -331 -381 -354 0 -5 -26
-47 -57 -95 -83 -128 -172 -345 -197 -479 -3 -16 -11 -55 -17 -85 -6 -30 -9
-72 -6 -95 16 -133 46 -235 89 -300 l31 -47 51 7 c28 5 65 9 81 10 31 3 176
54 185 65 3 4 16 11 30 15 99 29 305 219 384 353 47 81 115 230 121 267 1 6 9
28 19 50 45 101 56 128 56 139 0 35 140 244 229 341 47 51 165 155 176 155 10
0 145 83 145 90 0 3 16 14 35 23 78 37 19 101 -130 141 -71 19 -231 28 -295
17z"/>
<path d="M2344 1955 c-37 -19 -72 -41 -78 -49 -6 -7 -47 -40 -91 -74 -120 -90
-202 -181 -316 -352 -72 -107 -93 -151 -140 -295 -66 -203 -124 -315 -213
-408 -20 -21 -36 -43 -36 -48 0 -5 -5 -9 -11 -9 -13 0 -149 -100 -149 -110 0
-4 -51 -30 -112 -59 -140 -65 -144 -67 -193 -82 -53 -17 -65 -27 -65 -54 0
-18 13 -28 73 -53 75 -33 89 -37 201 -53 48 -7 83 -7 110 0 23 5 83 20 135 31
52 12 102 26 110 31 9 5 59 29 111 53 102 49 118 57 225 125 103 65 142 97
225 186 131 140 182 209 275 370 104 178 95 133 95 490 0 336 -3 360 -49 385
-28 15 -33 14 -107 -25z"/>
</g>
</svg>
