<svg xmlns="http://www.w3.org/2000/svg" xmlns:xlink="http://www.w3.org/1999/xlink" width="500" zoomAndPan="magnify" viewBox="0 0 375 374.999991" height="500" preserveAspectRatio="xMidYMid meet" version="1.0"><defs><g/><clipPath id="b562612047"><path d="M 152 201 L 309 201 L 309 228 L 152 228 Z M 152 201 " clip-rule="nonzero"/></clipPath><clipPath id="a70f4898be"><path d="M 151.644531 222.707031 L 308.867188 199.007812 L 310.324219 208.648438 L 153.097656 232.347656 Z M 151.644531 222.707031 " clip-rule="nonzero"/></clipPath><clipPath id="aa1c9efff0"><path d="M 151.644531 222.707031 L 308.867188 199.007812 L 310.324219 208.648438 L 153.097656 232.347656 Z M 151.644531 222.707031 " clip-rule="nonzero"/></clipPath><clipPath id="27ad0dd597"><path d="M 195 223 L 196 223 L 196 224 L 195 224 Z M 195 223 " clip-rule="nonzero"/></clipPath><clipPath id="8dbe14e0f5"><path d="M 151.644531 222.707031 L 308.867188 199.007812 L 310.324219 208.648438 L 153.097656 232.347656 Z M 151.644531 222.707031 " clip-rule="nonzero"/></clipPath><clipPath id="1e0f3572d5"><path d="M 151.644531 222.707031 L 308.867188 199.007812 L 310.324219 208.648438 L 153.097656 232.347656 Z M 151.644531 222.707031 " clip-rule="nonzero"/></clipPath><clipPath id="82fdfd1df9"><path d="M 295 207 L 297 207 L 297 208 L 295 208 Z M 295 207 " clip-rule="nonzero"/></clipPath><clipPath id="5ffdf5476f"><path d="M 151.644531 222.707031 L 308.867188 199.007812 L 310.324219 208.648438 L 153.097656 232.347656 Z M 151.644531 222.707031 " clip-rule="nonzero"/></clipPath><clipPath id="2c0b5d14cd"><path d="M 151.644531 222.707031 L 308.867188 199.007812 L 310.324219 208.648438 L 153.097656 232.347656 Z M 151.644531 222.707031 " clip-rule="nonzero"/></clipPath><clipPath id="9dd891176b"><path d="M 169 226 L 170 226 L 170 228 L 169 228 Z M 169 226 " clip-rule="nonzero"/></clipPath><clipPath id="9f511cd1be"><path d="M 151.644531 222.707031 L 308.867188 199.007812 L 310.324219 208.648438 L 153.097656 232.347656 Z M 151.644531 222.707031 " clip-rule="nonzero"/></clipPath><clipPath id="0b7e27d207"><path d="M 151.644531 222.707031 L 308.867188 199.007812 L 310.324219 208.648438 L 153.097656 232.347656 Z M 151.644531 222.707031 " clip-rule="nonzero"/></clipPath><clipPath id="527985579c"><path d="M 283 204 L 285 204 L 285 205 L 283 205 Z M 283 204 " clip-rule="nonzero"/></clipPath><clipPath id="97c45d5618"><path d="M 151.644531 222.707031 L 308.867188 199.007812 L 310.324219 208.648438 L 153.097656 232.347656 Z M 151.644531 222.707031 " clip-rule="nonzero"/></clipPath><clipPath id="ae9cb73fa0"><path d="M 151.644531 222.707031 L 308.867188 199.007812 L 310.324219 208.648438 L 153.097656 232.347656 Z M 151.644531 222.707031 " clip-rule="nonzero"/></clipPath><clipPath id="1b10b342de"><path d="M 254 216 L 255 216 L 255 217 L 254 217 Z M 254 216 " clip-rule="nonzero"/></clipPath><clipPath id="59b87045ff"><path d="M 151.644531 222.707031 L 308.867188 199.007812 L 310.324219 208.648438 L 153.097656 232.347656 Z M 151.644531 222.707031 " clip-rule="nonzero"/></clipPath><clipPath id="2d6a770171"><path d="M 151.644531 222.707031 L 308.867188 199.007812 L 310.324219 208.648438 L 153.097656 232.347656 Z M 151.644531 222.707031 " clip-rule="nonzero"/></clipPath><clipPath id="9a09ed0967"><path d="M 176 226 L 177 226 L 177 227 L 176 227 Z M 176 226 " clip-rule="nonzero"/></clipPath><clipPath id="c8f5a7bef6"><path d="M 151.644531 222.707031 L 308.867188 199.007812 L 310.324219 208.648438 L 153.097656 232.347656 Z M 151.644531 222.707031 " clip-rule="nonzero"/></clipPath><clipPath id="0e6a34b129"><path d="M 151.644531 222.707031 L 308.867188 199.007812 L 310.324219 208.648438 L 153.097656 232.347656 Z M 151.644531 222.707031 " clip-rule="nonzero"/></clipPath></defs><g fill="#000" fill-opacity="1"><g transform="translate(75.156357, 228.404259)"><g><path d="M 35.109375 -93.453125 C 36.722656 -85.453125 37.632812 -77.796875 37.84375 -70.484375 C 38.0625 -63.179688 37.925781 -55.476562 37.4375 -47.375 C 37.382812 -46.457031 37.351562 -45.59375 37.34375 -44.78125 C 37.34375 -43.96875 37.429688 -43.128906 37.609375 -42.265625 C 37.921875 -40.703125 38.582031 -39.347656 39.59375 -38.203125 C 40.613281 -37.054688 41.742188 -35.832031 42.984375 -34.53125 C 44.234375 -33.238281 45.425781 -31.6875 46.5625 -29.875 C 47.707031 -28.0625 48.566406 -25.742188 49.140625 -22.921875 C 49.421875 -21.515625 49.53125 -19.332031 49.46875 -16.375 C 49.414062 -13.425781 49.207031 -10.117188 48.84375 -6.453125 C 48.488281 -2.785156 47.960938 0.972656 47.265625 4.828125 C 46.578125 8.679688 45.726562 12.257812 44.71875 15.5625 C 43.71875 18.875 42.546875 21.644531 41.203125 23.875 C 39.859375 26.101562 38.398438 27.378906 36.828125 27.703125 C 35.179688 28.035156 33.628906 27.71875 32.171875 26.75 C 30.710938 25.78125 29.816406 24.472656 29.484375 22.828125 C 29.398438 22.429688 29.375 21.90625 29.40625 21.25 C 29.363281 19.039062 29.363281 16.316406 29.40625 13.078125 C 29.445312 9.847656 29.5 6.367188 29.5625 2.640625 C 29.625 -1.078125 29.664062 -4.894531 29.6875 -8.8125 C 29.707031 -12.738281 29.707031 -16.476562 29.6875 -20.03125 C 29.664062 -23.582031 29.5625 -26.828125 29.375 -29.765625 C 29.1875 -32.710938 28.910156 -35.082031 28.546875 -36.875 C 28.335938 -37.894531 27.875 -38.96875 27.15625 -40.09375 C 26.445312 -41.226562 25.570312 -42.21875 24.53125 -43.0625 C 23.5 -43.914062 22.382812 -44.585938 21.1875 -45.078125 C 19.988281 -45.566406 18.835938 -45.703125 17.734375 -45.484375 C 17.347656 -45.410156 17.15625 -45.144531 17.15625 -44.6875 C 17.164062 -44.226562 17.117188 -43.867188 17.015625 -43.609375 C 16.304688 -39.878906 15.4375 -36.191406 14.40625 -32.546875 C 13.382812 -28.910156 12.441406 -25.210938 11.578125 -21.453125 C 10.816406 -17.953125 10.15625 -14.46875 9.59375 -11 C 9.03125 -7.539062 8.363281 -4.0625 7.59375 -0.5625 C 7.457031 -0.03125 7.265625 0.519531 7.015625 1.09375 C 6.765625 1.664062 6.320312 2.019531 5.6875 2.15625 C 5.070312 2.28125 4.410156 2.207031 3.703125 1.9375 C 2.992188 1.675781 2.300781 1.285156 1.625 0.765625 C 0.945312 0.253906 0.382812 -0.300781 -0.0625 -0.90625 C -0.507812 -1.507812 -0.796875 -2.117188 -0.921875 -2.734375 C -1.066406 -3.453125 -0.929688 -5.015625 -0.515625 -7.421875 C -0.109375 -9.828125 0.441406 -12.632812 1.140625 -15.84375 C 1.847656 -19.050781 2.628906 -22.457031 3.484375 -26.0625 C 4.347656 -29.664062 5.144531 -32.988281 5.875 -36.03125 C 6.601562 -39.082031 7.207031 -41.65625 7.6875 -43.75 C 8.164062 -45.84375 8.378906 -47.003906 8.328125 -47.234375 C 8.265625 -47.554688 7.773438 -47.847656 6.859375 -48.109375 C 5.953125 -48.367188 4.941406 -48.632812 3.828125 -48.90625 C 2.710938 -49.175781 1.628906 -49.488281 0.578125 -49.84375 C -0.472656 -50.195312 -1.175781 -50.628906 -1.53125 -51.140625 C -1.050781 -51.628906 -0.582031 -51.941406 -0.125 -52.078125 C 0.332031 -52.222656 0.878906 -52.359375 1.515625 -52.484375 C 2.765625 -52.734375 4.066406 -52.628906 5.421875 -52.171875 C 6.785156 -51.710938 7.816406 -51.554688 8.515625 -51.703125 C 9.066406 -51.816406 9.6875 -52.878906 10.375 -54.890625 C 11.070312 -56.910156 11.796875 -59.398438 12.546875 -62.359375 C 13.296875 -65.328125 14.070312 -68.550781 14.875 -72.03125 C 15.6875 -75.507812 16.484375 -78.734375 17.265625 -81.703125 C 18.054688 -84.671875 18.800781 -87.164062 19.5 -89.1875 C 20.195312 -91.207031 20.816406 -92.269531 21.359375 -92.375 C 21.910156 -92.488281 22.539062 -92.492188 23.25 -92.390625 C 23.96875 -92.296875 24.640625 -92.109375 25.265625 -91.828125 C 25.890625 -91.546875 26.429688 -91.164062 26.890625 -90.6875 C 27.359375 -90.21875 27.660156 -89.664062 27.796875 -89.03125 C 27.898438 -88.476562 27.734375 -87.160156 27.296875 -85.078125 C 26.867188 -82.992188 26.320312 -80.570312 25.65625 -77.8125 C 24.988281 -75.0625 24.210938 -72.128906 23.328125 -69.015625 C 22.441406 -65.898438 21.65625 -63.007812 20.96875 -60.34375 C 20.289062 -57.675781 19.71875 -55.375 19.25 -53.4375 C 18.789062 -51.507812 18.59375 -50.382812 18.65625 -50.0625 C 18.707031 -49.832031 19.171875 -49.457031 20.046875 -48.9375 C 20.921875 -48.425781 21.914062 -47.9375 23.03125 -47.46875 C 24.15625 -47 25.222656 -46.578125 26.234375 -46.203125 C 27.242188 -45.835938 27.90625 -45.6875 28.21875 -45.75 C 28.78125 -46.1875 29.179688 -47.507812 29.421875 -49.71875 C 29.671875 -51.9375 29.828125 -54.601562 29.890625 -57.71875 C 29.960938 -60.84375 29.953125 -64.234375 29.859375 -67.890625 C 29.773438 -71.554688 29.648438 -75.023438 29.484375 -78.296875 C 29.316406 -81.566406 29.117188 -84.460938 28.890625 -86.984375 C 28.671875 -89.515625 28.457031 -91.289062 28.25 -92.3125 C 28.03125 -93.40625 27.625 -94.28125 27.03125 -94.9375 C 26.445312 -95.59375 25.992188 -96.335938 25.671875 -97.171875 L 26.640625 -98.953125 C 27.335938 -99.097656 28.144531 -99.117188 29.0625 -99.015625 C 29.988281 -98.921875 30.859375 -98.6875 31.671875 -98.3125 C 32.484375 -97.945312 33.195312 -97.457031 33.8125 -96.84375 C 34.425781 -96.238281 34.820312 -95.503906 35 -94.640625 Z M 41.75 -25.609375 C 41.71875 -25.753906 41.539062 -26.097656 41.21875 -26.640625 C 40.894531 -27.191406 40.539062 -27.796875 40.15625 -28.453125 C 39.78125 -29.117188 39.429688 -29.742188 39.109375 -30.328125 C 38.796875 -30.910156 38.570312 -31.316406 38.4375 -31.546875 L 37.421875 -32.3125 C 37.273438 -31.875 37.179688 -30.523438 37.140625 -28.265625 C 37.109375 -26.015625 37.09375 -23.273438 37.09375 -20.046875 C 37.09375 -16.828125 37.117188 -13.363281 37.171875 -9.65625 C 37.234375 -5.957031 37.28125 -2.398438 37.3125 1.015625 C 37.351562 4.441406 37.410156 7.453125 37.484375 10.046875 C 37.566406 12.640625 37.625 14.421875 37.65625 15.390625 C 39.988281 8.804688 41.601562 2.054688 42.5 -4.859375 C 43.394531 -11.785156 43.144531 -18.703125 41.75 -25.609375 Z M 41.75 -25.609375 "/></g></g></g><g fill="#000000" fill-opacity="1"><g transform="translate(129.869917, 217.336228)"><g><path d="M 0.078125 -0.265625 C -0.109375 -1.210938 -0.0976562 -2.863281 0.109375 -5.21875 C 0.316406 -7.582031 0.648438 -10.257812 1.109375 -13.25 C 1.566406 -16.25 2.140625 -19.367188 2.828125 -22.609375 C 3.523438 -25.859375 4.269531 -28.847656 5.0625 -31.578125 C 5.851562 -34.316406 6.640625 -36.578125 7.421875 -38.359375 C 8.203125 -40.148438 8.945312 -41.117188 9.65625 -41.265625 C 10.125 -41.359375 10.644531 -41.300781 11.21875 -41.09375 C 11.789062 -40.882812 12.359375 -40.59375 12.921875 -40.21875 C 13.492188 -39.84375 13.992188 -39.410156 14.421875 -38.921875 C 14.847656 -38.429688 15.109375 -37.953125 15.203125 -37.484375 C 15.328125 -36.847656 15.144531 -35.726562 14.65625 -34.125 C 14.164062 -32.519531 13.53125 -30.597656 12.75 -28.359375 C 11.976562 -26.117188 11.140625 -23.703125 10.234375 -21.109375 C 9.335938 -18.523438 8.535156 -15.9375 7.828125 -13.34375 C 7.117188 -10.75 6.601562 -8.234375 6.28125 -5.796875 C 5.96875 -3.367188 6 -1.210938 6.375 0.671875 C 8.195312 -0.0234375 10.007812 -1.550781 11.8125 -3.90625 C 13.625 -6.269531 15.410156 -9.0625 17.171875 -12.28125 C 18.929688 -15.5 20.613281 -18.882812 22.21875 -22.4375 C 23.832031 -25.988281 25.3125 -29.265625 26.65625 -32.265625 C 28.007812 -35.273438 29.238281 -37.789062 30.34375 -39.8125 C 31.445312 -41.84375 32.351562 -42.925781 33.0625 -43.0625 C 33.375 -43.132812 33.828125 -43.109375 34.421875 -42.984375 C 35.015625 -42.859375 35.617188 -42.671875 36.234375 -42.421875 C 36.859375 -42.179688 37.394531 -41.859375 37.84375 -41.453125 C 38.300781 -41.054688 38.566406 -40.664062 38.640625 -40.28125 C 38.671875 -40.125 38.46875 -39.492188 38.03125 -38.390625 C 37.601562 -37.285156 37.078125 -35.867188 36.453125 -34.140625 C 35.828125 -32.421875 35.132812 -30.503906 34.375 -28.390625 C 33.613281 -26.273438 32.953125 -24.175781 32.390625 -22.09375 C 31.828125 -20.019531 31.398438 -18.078125 31.109375 -16.265625 C 30.828125 -14.460938 30.800781 -12.972656 31.03125 -11.796875 C 31.164062 -11.160156 31.566406 -10.832031 32.234375 -10.8125 C 36.554688 -13.632812 40.144531 -17.066406 43 -21.109375 C 45.851562 -25.160156 48.421875 -29.414062 50.703125 -33.875 C 52.984375 -38.34375 55.125 -42.78125 57.125 -47.1875 C 59.132812 -51.601562 61.457031 -55.582031 64.09375 -59.125 C 64.65625 -59.175781 65.425781 -58.992188 66.40625 -58.578125 C 67.394531 -58.160156 67.953125 -57.632812 68.078125 -57 C 68.191406 -56.445312 67.945312 -55.535156 67.34375 -54.265625 C 66.75 -53.003906 66.015625 -51.675781 65.140625 -50.28125 C 64.273438 -48.882812 63.4375 -47.570312 62.625 -46.34375 C 61.820312 -45.125 61.234375 -44.234375 60.859375 -43.671875 C 59.921875 -42.171875 58.867188 -40.28125 57.703125 -38 C 56.546875 -35.726562 55.304688 -33.296875 53.984375 -30.703125 C 52.660156 -28.109375 51.242188 -25.492188 49.734375 -22.859375 C 48.234375 -20.222656 46.691406 -17.785156 45.109375 -15.546875 C 43.523438 -13.316406 41.863281 -11.429688 40.125 -9.890625 C 38.394531 -8.359375 36.671875 -7.414062 34.953125 -7.0625 C 32.585938 -6.59375 30.472656 -6.921875 28.609375 -8.046875 C 26.753906 -9.179688 25.582031 -10.96875 25.09375 -13.40625 C 24.820312 -14.738281 24.675781 -16.054688 24.65625 -17.359375 C 24.632812 -18.660156 24.65625 -19.972656 24.71875 -21.296875 C 24.195312 -20.617188 23.503906 -19.5 22.640625 -17.9375 C 21.773438 -16.375 20.785156 -14.597656 19.671875 -12.609375 C 18.554688 -10.628906 17.375 -8.578125 16.125 -6.453125 C 14.882812 -4.328125 13.691406 -2.367188 12.546875 -0.578125 C 11.398438 1.210938 10.316406 2.71875 9.296875 3.9375 C 8.285156 5.164062 7.425781 5.847656 6.71875 5.984375 C 5.851562 6.160156 5.039062 6.082031 4.28125 5.75 C 3.519531 5.414062 2.847656 4.921875 2.265625 4.265625 C 1.679688 3.609375 1.207031 2.863281 0.84375 2.03125 C 0.476562 1.207031 0.222656 0.441406 0.078125 -0.265625 Z M 0.078125 -0.265625 "/></g></g></g><g fill="#000000" fill-opacity="1"><g transform="translate(192.231599, 204.721055)"><g><path d="M 58.546875 -38.6875 C 58.648438 -37.789062 58.132812 -36.304688 57 -34.234375 C 55.875 -32.171875 54.390625 -29.832031 52.546875 -27.21875 C 50.703125 -24.613281 48.660156 -21.894531 46.421875 -19.0625 C 44.179688 -16.238281 41.96875 -13.648438 39.78125 -11.296875 C 37.601562 -8.941406 35.613281 -6.96875 33.8125 -5.375 C 32.007812 -3.789062 30.640625 -2.898438 29.703125 -2.703125 C 28.835938 -2.523438 28 -2.640625 27.1875 -3.046875 C 26.375 -3.453125 25.609375 -3.992188 24.890625 -4.671875 C 24.179688 -5.347656 23.578125 -6.101562 23.078125 -6.9375 C 22.585938 -7.769531 22.273438 -8.546875 22.140625 -9.265625 C 21.816406 -10.828125 21.773438 -12.40625 22.015625 -14 C 22.265625 -15.601562 22.488281 -17.160156 22.6875 -18.671875 C 21.332031 -17.265625 20.101562 -15.648438 19 -13.828125 C 17.90625 -12.015625 16.710938 -10.242188 15.421875 -8.515625 C 14.140625 -6.785156 12.738281 -5.234375 11.21875 -3.859375 C 9.695312 -2.492188 7.878906 -1.597656 5.765625 -1.171875 C 4.117188 -0.835938 2.613281 -1.304688 1.25 -2.578125 C -0.101562 -3.859375 -0.9375 -5.285156 -1.25 -6.859375 C -1.820312 -9.679688 -1.695312 -12.5 -0.875 -15.3125 C -0.0625 -18.132812 1.132812 -20.867188 2.71875 -23.515625 C 4.300781 -26.160156 6.101562 -28.625 8.125 -30.90625 C 10.15625 -33.195312 12.09375 -35.265625 13.9375 -37.109375 C 14.394531 -37.609375 14.894531 -38.140625 15.4375 -38.703125 C 15.976562 -39.265625 16.597656 -39.613281 17.296875 -39.75 C 18.484375 -39.988281 19.507812 -39.769531 20.375 -39.09375 C 21.25 -38.414062 22.015625 -37.546875 22.671875 -36.484375 C 23.335938 -35.429688 23.875 -34.289062 24.28125 -33.0625 C 24.695312 -31.84375 25.035156 -30.816406 25.296875 -29.984375 C 25.515625 -30.515625 25.90625 -31.59375 26.46875 -33.21875 C 27.039062 -34.84375 27.640625 -36.515625 28.265625 -38.234375 C 28.898438 -39.953125 29.53125 -41.488281 30.15625 -42.84375 C 30.78125 -44.195312 31.285156 -44.910156 31.671875 -44.984375 C 32.617188 -45.179688 33.570312 -44.90625 34.53125 -44.15625 C 35.5 -43.40625 36.070312 -42.601562 36.25 -41.75 C 36.363281 -41.195312 36.25 -40.066406 35.90625 -38.359375 C 35.5625 -36.660156 35.101562 -34.691406 34.53125 -32.453125 C 33.96875 -30.210938 33.328125 -27.816406 32.609375 -25.265625 C 31.898438 -22.710938 31.265625 -20.296875 30.703125 -18.015625 C 30.140625 -15.742188 29.695312 -13.695312 29.375 -11.875 C 29.050781 -10.050781 28.96875 -8.75 29.125 -7.96875 L 29.265625 -7.265625 C 30.515625 -7.523438 31.960938 -8.429688 33.609375 -9.984375 C 35.265625 -11.546875 37.007812 -13.429688 38.84375 -15.640625 C 40.675781 -17.847656 42.546875 -20.203125 44.453125 -22.703125 C 46.359375 -25.210938 48.160156 -27.617188 49.859375 -29.921875 C 51.554688 -32.234375 53.125 -34.269531 54.5625 -36.03125 C 56.007812 -37.789062 57.15625 -39 58 -39.65625 Z M 5.671875 -4.703125 C 6.921875 -4.960938 8.460938 -5.90625 10.296875 -7.53125 C 12.128906 -9.164062 13.890625 -11.050781 15.578125 -13.1875 C 17.273438 -15.332031 18.675781 -17.472656 19.78125 -19.609375 C 20.894531 -21.753906 21.328125 -23.457031 21.078125 -24.71875 C 20.835938 -25.882812 20.660156 -27.070312 20.546875 -28.28125 C 20.429688 -29.488281 20.253906 -30.675781 20.015625 -31.84375 L 19.75 -32.53125 C 19.539062 -32.40625 19.128906 -32.019531 18.515625 -31.375 C 17.910156 -30.726562 17.265625 -29.984375 16.578125 -29.140625 C 15.890625 -28.304688 15.253906 -27.503906 14.671875 -26.734375 C 14.097656 -25.960938 13.675781 -25.425781 13.40625 -25.125 C 11.269531 -22.40625 9.285156 -19.285156 7.453125 -15.765625 C 5.628906 -12.253906 4.632812 -8.734375 4.46875 -5.203125 C 4.632812 -4.742188 5.035156 -4.578125 5.671875 -4.703125 Z M 5.671875 -4.703125 "/></g></g></g><g fill="#000000" fill-opacity="1"><g transform="translate(240.238337, 195.009751)"><g><path d="M 11.59375 -76.453125 C 13.632812 -76.859375 15.640625 -76.644531 17.609375 -75.8125 C 19.578125 -74.988281 20.789062 -73.441406 21.25 -71.171875 C 21.382812 -70.535156 21.351562 -69.382812 21.15625 -67.71875 C 20.957031 -66.050781 20.679688 -64.078125 20.328125 -61.796875 C 19.972656 -59.515625 19.546875 -57.0625 19.046875 -54.4375 C 18.554688 -51.8125 18.113281 -49.253906 17.71875 -46.765625 C 17.332031 -44.273438 16.984375 -41.972656 16.671875 -39.859375 C 16.367188 -37.753906 16.175781 -36.085938 16.09375 -34.859375 C 16.550781 -35.441406 17.148438 -36.21875 17.890625 -37.1875 C 18.640625 -38.15625 19.425781 -39.128906 20.25 -40.109375 C 21.070312 -41.097656 21.894531 -41.957031 22.71875 -42.6875 C 23.550781 -43.414062 24.320312 -43.851562 25.03125 -44 C 26.4375 -44.28125 27.765625 -43.859375 29.015625 -42.734375 C 30.265625 -41.609375 31.023438 -40.375 31.296875 -39.03125 C 31.753906 -36.769531 31.273438 -34.367188 29.859375 -31.828125 C 28.453125 -29.296875 26.847656 -26.847656 25.046875 -24.484375 C 23.242188 -22.128906 21.578125 -19.976562 20.046875 -18.03125 C 18.523438 -16.082031 17.882812 -14.519531 18.125 -13.34375 C 18.394531 -12.007812 19.046875 -11.015625 20.078125 -10.359375 C 21.109375 -9.710938 22.289062 -9.523438 23.625 -9.796875 C 25.03125 -10.085938 26.457031 -10.890625 27.90625 -12.203125 C 29.351562 -13.515625 30.789062 -15.085938 32.21875 -16.921875 C 33.644531 -18.765625 35.003906 -20.710938 36.296875 -22.765625 C 37.597656 -24.828125 38.835938 -26.773438 40.015625 -28.609375 C 41.191406 -30.441406 42.285156 -31.988281 43.296875 -33.25 C 44.316406 -34.507812 45.207031 -35.257812 45.96875 -35.5 L 46.53125 -35.125 C 46.476562 -34.226562 46.019531 -32.875 45.15625 -31.0625 C 44.300781 -29.257812 43.234375 -27.265625 41.953125 -25.078125 C 40.679688 -22.898438 39.234375 -20.664062 37.609375 -18.375 C 35.984375 -16.09375 34.367188 -13.992188 32.765625 -12.078125 C 31.160156 -10.160156 29.609375 -8.539062 28.109375 -7.21875 C 26.617188 -5.894531 25.363281 -5.128906 24.34375 -4.921875 C 22.9375 -4.640625 21.632812 -4.722656 20.4375 -5.171875 C 19.25 -5.628906 18.175781 -6.3125 17.21875 -7.21875 C 16.257812 -8.125 15.375 -9.144531 14.5625 -10.28125 C 13.757812 -11.425781 13.046875 -12.550781 12.421875 -13.65625 C 12.160156 -12.945312 11.71875 -11.695312 11.09375 -9.90625 C 10.476562 -8.113281 9.796875 -6.238281 9.046875 -4.28125 C 8.304688 -2.332031 7.554688 -0.609375 6.796875 0.890625 C 6.035156 2.398438 5.378906 3.207031 4.828125 3.3125 C 4.503906 3.375 4.054688 3.378906 3.484375 3.328125 C 2.910156 3.285156 2.335938 3.175781 1.765625 3 C 1.203125 2.820312 0.703125 2.578125 0.265625 2.265625 C -0.160156 1.953125 -0.410156 1.597656 -0.484375 1.203125 C -0.546875 0.878906 -0.195312 -0.828125 0.5625 -3.921875 C 1.320312 -7.015625 2.269531 -10.878906 3.40625 -15.515625 C 4.550781 -20.148438 5.789062 -25.21875 7.125 -30.71875 C 8.46875 -36.21875 9.691406 -41.488281 10.796875 -46.53125 C 11.898438 -51.570312 12.765625 -56.070312 13.390625 -60.03125 C 14.015625 -63.988281 14.25 -66.765625 14.09375 -68.359375 L 13.84375 -68.953125 C 13.5 -68.703125 13.046875 -68.421875 12.484375 -68.109375 C 11.929688 -67.796875 11.460938 -67.601562 11.078125 -67.53125 C 10.140625 -67.332031 9.171875 -67.664062 8.171875 -68.53125 C 7.179688 -69.394531 6.601562 -70.253906 6.4375 -71.109375 C 6.320312 -71.660156 6.453125 -72.195312 6.828125 -72.71875 C 7.210938 -73.25 7.6875 -73.753906 8.25 -74.234375 C 8.8125 -74.722656 9.421875 -75.15625 10.078125 -75.53125 C 10.734375 -75.90625 11.238281 -76.210938 11.59375 -76.453125 Z M 22.90625 -34.53125 C 22.332031 -34.070312 21.710938 -33.488281 21.046875 -32.78125 C 20.378906 -32.082031 19.742188 -31.300781 19.140625 -30.4375 C 18.535156 -29.582031 18.03125 -28.726562 17.625 -27.875 C 17.226562 -27.019531 17.0625 -26.234375 17.125 -25.515625 C 18.226562 -26.953125 19.21875 -28.429688 20.09375 -29.953125 C 20.96875 -31.484375 21.90625 -33.007812 22.90625 -34.53125 Z M 22.90625 -34.53125 "/></g></g></g><g fill="#000000" fill-opacity="1"><g transform="translate(282.008889, 186.559967)"><g><path d="M 8.109375 -0.53125 C 6.429688 -0.28125 4.96875 -0.414062 3.71875 -0.9375 C 2.46875 -1.457031 1.4375 -2.226562 0.625 -3.25 C -0.1875 -4.269531 -0.828125 -5.425781 -1.296875 -6.71875 C -1.765625 -8.019531 -2.054688 -9.347656 -2.171875 -10.703125 C -2.390625 -13.035156 -2.179688 -15.753906 -1.546875 -18.859375 C -0.910156 -21.972656 0.03125 -24.960938 1.28125 -27.828125 C 2.539062 -30.691406 4.054688 -33.203125 5.828125 -35.359375 C 7.597656 -37.515625 9.539062 -38.804688 11.65625 -39.234375 C 13.613281 -39.628906 15.425781 -39.132812 17.09375 -37.75 C 18.769531 -36.375 19.800781 -34.75 20.1875 -32.875 C 20.519531 -31.21875 20.242188 -29.238281 19.359375 -26.9375 C 18.472656 -24.632812 17.316406 -22.441406 15.890625 -20.359375 C 14.472656 -18.285156 12.945312 -16.46875 11.3125 -14.90625 C 9.675781 -13.351562 8.265625 -12.457031 7.078125 -12.21875 C 6.691406 -12.132812 6.300781 -12.15625 5.90625 -12.28125 C 5.507812 -12.414062 5.140625 -12.519531 4.796875 -12.59375 C 4.410156 -12.101562 4.210938 -11.46875 4.203125 -10.6875 C 4.191406 -9.914062 4.320312 -9.171875 4.59375 -8.453125 C 4.863281 -7.742188 5.25 -7.148438 5.75 -6.671875 C 6.25 -6.203125 6.894531 -6.046875 7.6875 -6.203125 C 9.09375 -6.492188 10.710938 -7.25 12.546875 -8.46875 C 14.378906 -9.695312 16.335938 -11.21875 18.421875 -13.03125 C 20.503906 -14.851562 22.632812 -16.835938 24.8125 -18.984375 C 26.988281 -21.128906 29.046875 -23.257812 30.984375 -25.375 C 32.929688 -27.488281 34.710938 -29.484375 36.328125 -31.359375 C 37.953125 -33.234375 39.253906 -34.800781 40.234375 -36.0625 L 41.234375 -36.515625 L 41.25 -36.390625 L 41.734375 -35.875 L 41.75 -35.75 C 40.71875 -34.082031 39.40625 -32.101562 37.8125 -29.8125 C 36.226562 -27.53125 34.503906 -25.140625 32.640625 -22.640625 C 30.785156 -20.148438 28.828125 -17.65625 26.765625 -15.15625 C 24.703125 -12.65625 22.609375 -10.375 20.484375 -8.3125 C 18.367188 -6.25 16.25 -4.515625 14.125 -3.109375 C 12 -1.703125 9.992188 -0.84375 8.109375 -0.53125 Z M 7.984375 -21.703125 C 9.378906 -22.878906 10.601562 -24.1875 11.65625 -25.625 C 12.707031 -27.070312 13.503906 -28.703125 14.046875 -30.515625 L 14.015625 -30.625 L 13.921875 -31.109375 C 13.347656 -30.660156 12.753906 -30.046875 12.140625 -29.265625 C 11.523438 -28.492188 10.90625 -27.632812 10.28125 -26.6875 C 9.65625 -25.75 9.101562 -24.820312 8.625 -23.90625 C 8.15625 -23 7.820312 -22.238281 7.625 -21.625 Z M 7.984375 -21.703125 "/></g></g></g><g clip-path="url(#b562612047)"><g clip-path="url(#a70f4898be)"><g clip-path="url(#aa1c9efff0)"><path fill="#000000" d="M 289.925781 206.8125 C 289.828125 206.78125 289.597656 206.808594 289.429688 206.808594 C 289.144531 206.882812 289.007812 207.035156 289.21875 207.085938 C 289.328125 207.113281 289.5625 207.113281 289.726562 207.082031 C 290.007812 207.035156 290.136719 206.867188 289.925781 206.8125 Z M 286.789062 208.386719 C 286.785156 208.359375 286.761719 208.328125 286.710938 208.3125 C 286.5625 208.257812 286.390625 208.285156 286.363281 208.367188 C 286.347656 208.425781 286.464844 208.46875 286.542969 208.515625 C 286.550781 208.523438 286.667969 208.496094 286.738281 208.484375 C 286.757812 208.453125 286.792969 208.417969 286.789062 208.386719 Z M 284.769531 204.503906 C 284.675781 204.484375 284.363281 204.539062 284.238281 204.585938 C 284.109375 204.636719 284.089844 204.71875 283.988281 204.820312 C 284.027344 204.886719 284.074219 204.976562 284.152344 205.0625 C 284.164062 205.074219 284.347656 205.058594 284.433594 205.039062 C 284.996094 204.898438 285.203125 204.585938 284.769531 204.503906 Z M 284.195312 209.675781 C 284.148438 209.640625 284.035156 209.621094 283.929688 209.597656 C 283.949219 209.652344 283.949219 209.707031 284.023438 209.738281 C 284.144531 209.785156 284.277344 209.742188 284.195312 209.675781 Z M 283.746094 206.996094 C 283.761719 206.933594 283.65625 206.886719 283.605469 206.832031 C 283.4375 206.875 283.269531 206.921875 283.101562 206.964844 C 283.167969 207.015625 283.191406 207.089844 283.316406 207.113281 C 283.507812 207.148438 283.722656 207.089844 283.746094 206.996094 Z M 276.042969 212.152344 C 275.960938 211.933594 275.625 211.800781 275.0625 211.761719 C 274.855469 211.746094 274.628906 211.816406 274.566406 211.902344 C 274.484375 212.019531 274.453125 212.132812 274.429688 212.179688 C 274.425781 212.3125 274.410156 212.386719 274.425781 212.453125 C 274.457031 212.582031 274.960938 212.636719 275.335938 212.554688 C 275.757812 212.464844 276.085938 212.273438 276.042969 212.152344 Z M 273.234375 210.628906 C 273.144531 210.578125 273.070312 210.523438 272.953125 210.484375 C 272.90625 210.464844 272.710938 210.472656 272.671875 210.492188 C 272.417969 210.609375 272.464844 210.707031 272.53125 210.804688 C 272.585938 210.886719 272.734375 210.902344 272.976562 210.839844 C 273.058594 210.816406 273.140625 210.773438 273.183594 210.738281 C 273.226562 210.703125 273.21875 210.664062 273.234375 210.628906 Z M 270.484375 212.535156 C 270.480469 212.367188 270.386719 212.207031 270.269531 212.054688 C 270.234375 212.015625 269.957031 212.003906 269.792969 212.027344 C 269.632812 212.050781 269.425781 212.128906 269.335938 212.1875 C 269.230469 212.257812 269.152344 212.351562 269.199219 212.40625 C 269.34375 212.578125 269.546875 212.734375 269.734375 212.898438 C 270.140625 212.808594 270.488281 212.6875 270.484375 212.535156 Z M 268.203125 213.757812 C 268.097656 213.609375 267.855469 213.488281 267.355469 213.476562 C 267.191406 213.472656 266.957031 213.496094 266.785156 213.539062 C 266.347656 213.640625 266.152344 213.839844 266.226562 214.054688 C 266.269531 214.175781 266.515625 214.207031 266.820312 214.1875 C 267.105469 214.167969 267.417969 214.121094 267.714844 214.070312 C 268.003906 214.019531 268.257812 213.851562 268.203125 213.757812 Z M 266.988281 211.414062 C 266.976562 211.429688 267.125 211.4375 267.199219 211.449219 C 267.292969 211.433594 267.410156 211.425781 267.480469 211.402344 C 267.765625 211.304688 267.835938 211.199219 267.746094 211.105469 C 267.671875 211.035156 267.433594 211.035156 267.285156 211.117188 C 267.121094 211.207031 267.0625 211.316406 266.988281 211.414062 Z M 265.210938 212.957031 C 265.492188 212.625 265.183594 212.304688 264.484375 212.203125 C 264.273438 212.171875 263.816406 212.273438 263.648438 212.367188 C 263.359375 212.527344 263.359375 212.664062 263.347656 212.808594 C 263.375 212.90625 263.367188 213.011719 263.4375 213.101562 C 263.558594 213.25 264.605469 213.222656 265.027344 213.0625 C 265.105469 213.035156 265.179688 212.992188 265.210938 212.957031 Z M 262.566406 214.390625 C 262.386719 214.171875 262.222656 213.949219 262.003906 213.742188 C 261.960938 213.699219 261.703125 213.707031 261.542969 213.691406 C 261.445312 213.714844 261.289062 213.730469 261.261719 213.75 C 260.867188 214.070312 260.9375 214.351562 261.015625 214.625 C 261.023438 214.65625 261.097656 214.679688 261.164062 214.695312 C 261.386719 214.75 261.652344 214.757812 261.992188 214.683594 C 262.320312 214.613281 262.621094 214.464844 262.566406 214.390625 Z M 257.441406 214.480469 C 257.613281 214.167969 256.890625 214.007812 256.003906 214.140625 C 255.617188 214.199219 255.15625 214.382812 255.089844 214.503906 C 254.929688 214.804688 255.585938 215.074219 256.445312 215.0625 C 256.625 215.015625 256.890625 214.976562 256.96875 214.921875 C 257.175781 214.777344 257.363281 214.621094 257.441406 214.480469 Z M 255.6875 212.136719 C 255.710938 212.15625 255.835938 212.164062 255.921875 212.152344 C 256.160156 212.128906 256.28125 212.066406 256.21875 211.996094 C 256.203125 211.976562 256.0625 211.984375 255.980469 211.980469 C 255.726562 212.011719 255.613281 212.066406 255.6875 212.136719 Z M 251.21875 215.152344 C 251.183594 215.109375 251 215.097656 250.886719 215.074219 C 250.59375 215.113281 250.351562 215.257812 250.464844 215.335938 C 250.5 215.359375 250.597656 215.371094 250.683594 215.371094 C 250.988281 215.375 251.296875 215.253906 251.21875 215.152344 Z M 247.984375 216.523438 C 247.847656 216.527344 247.589844 216.597656 247.484375 216.652344 C 247.367188 216.714844 247.265625 216.820312 247.324219 216.863281 C 247.433594 216.9375 247.664062 216.976562 247.832031 217.027344 C 248 216.980469 248.117188 216.960938 248.1875 216.929688 C 248.605469 216.742188 248.503906 216.515625 247.984375 216.523438 Z M 245.339844 215.585938 C 245.28125 215.570312 245.210938 215.53125 245.171875 215.539062 C 245.015625 215.574219 244.863281 215.621094 244.710938 215.660156 C 244.769531 215.679688 244.835938 215.71875 244.875 215.710938 C 245.035156 215.675781 245.1875 215.628906 245.339844 215.585938 Z M 243.183594 216.910156 C 243.132812 216.765625 242.808594 216.691406 242.402344 216.738281 C 241.988281 216.785156 241.609375 216.957031 241.609375 217.101562 C 241.609375 217.300781 242.035156 217.386719 242.558594 217.296875 C 242.949219 217.234375 243.238281 217.054688 243.183594 216.910156 Z M 308.859375 202.046875 C 308.980469 202.113281 308.765625 202.289062 308.484375 202.355469 C 308.285156 202.402344 308.089844 202.476562 307.890625 202.503906 C 306.570312 202.671875 305.511719 203.003906 304.421875 203.394531 C 303.425781 203.753906 302.535156 204.078125 302.027344 204.539062 C 301.710938 204.828125 300.109375 205.074219 299.542969 204.964844 C 299.089844 204.875 298.570312 204.8125 298.546875 204.566406 C 298.539062 204.476562 298.324219 204.484375 298.117188 204.5625 C 298.046875 204.589844 297.992188 204.640625 297.996094 204.671875 C 298.015625 204.777344 297.984375 204.902344 298.121094 204.972656 C 298.453125 205.15625 298.871094 205.3125 299.246094 205.480469 C 299.355469 205.527344 299.445312 205.582031 299.539062 205.632812 C 299.722656 205.730469 299.484375 205.976562 299.082031 206.046875 C 298.332031 206.171875 297.679688 206.339844 297.089844 206.578125 C 296.871094 206.667969 296.460938 206.664062 296.296875 206.582031 C 296.09375 206.484375 295.953125 206.367188 295.714844 206.28125 C 295.632812 206.25 295.320312 206.28125 295.152344 206.320312 C 294.984375 206.359375 294.753906 206.457031 294.738281 206.511719 C 294.632812 206.84375 294.402344 207.203125 295.085938 207.394531 C 295.101562 207.394531 295.113281 207.390625 295.128906 207.390625 C 295.113281 207.394531 295.101562 207.394531 295.089844 207.398438 C 295.089844 207.398438 295.042969 207.390625 295.046875 207.394531 C 295.046875 207.394531 295.046875 207.394531 295.050781 207.394531 C 295.046875 207.394531 295.042969 207.390625 295.042969 207.390625 C 294.945312 207.46875 294.867188 207.550781 294.738281 207.625 C 294.410156 207.804688 293.90625 207.886719 293.691406 207.789062 C 293.480469 207.695312 293.359375 207.5625 293.101562 207.488281 C 292.925781 207.4375 292.601562 207.433594 292.316406 207.445312 C 292.171875 207.453125 291.824219 207.558594 291.820312 207.589844 C 291.773438 207.878906 291.585938 208.195312 292.0625 208.402344 C 292.390625 208.546875 292.121094 208.75 291.726562 208.933594 C 291.613281 208.988281 291.273438 209.054688 291.164062 209.039062 C 290.753906 208.984375 290.398438 208.894531 290.015625 208.824219 C 289.832031 208.792969 289.292969 208.914062 289.195312 209.011719 C 288.890625 209.320312 288.632812 209.632812 288.292969 209.945312 C 288.125 210.09375 287.886719 210.269531 287.5625 210.386719 C 286.164062 210.894531 284.742188 211.398438 282.992188 211.683594 C 282.890625 211.699219 282.769531 211.722656 282.683594 211.71875 C 282.503906 211.714844 282.242188 211.71875 282.195312 211.671875 C 282.042969 211.519531 282.019531 211.335938 281.847656 211.1875 C 281.75 211.109375 281.476562 211.070312 281.253906 211.023438 C 281.046875 210.980469 280.53125 211.101562 280.457031 211.195312 C 280.214844 211.511719 280.28125 211.789062 280.382812 212.066406 C 280.464844 212.289062 280.1875 212.378906 279.371094 212.421875 C 279.269531 212.429688 279.183594 212.414062 279.082031 212.417969 C 278.175781 212.445312 277.421875 212.589844 276.945312 212.976562 C 276.808594 213.089844 276.589844 213.199219 276.390625 213.308594 C 276.21875 213.402344 275.71875 213.484375 275.554688 213.421875 C 275.175781 213.269531 274.617188 213.265625 274 213.28125 C 273.453125 213.296875 273.324219 213.316406 272.917969 213.535156 C 272.640625 213.679688 272.394531 213.832031 272.109375 213.980469 C 271.804688 214.136719 271.386719 214.242188 270.96875 214.238281 C 270.164062 214.226562 269.335938 214.316406 268.488281 214.453125 L 268.515625 214.433594 C 268.210938 214.695312 267.59375 214.835938 267 214.972656 C 266.574219 215.074219 266.160156 215.089844 265.851562 215.019531 C 265.566406 214.957031 265.328125 214.867188 265.050781 214.796875 C 264.882812 214.753906 264.335938 214.828125 264.199219 214.914062 C 263.964844 215.0625 263.789062 215.21875 263.523438 215.363281 C 262.960938 215.664062 262.269531 215.898438 261.34375 215.980469 C 260.90625 216.019531 260.523438 216.019531 260.351562 215.894531 C 260.035156 215.671875 259.769531 215.433594 259.457031 215.210938 C 259.382812 215.15625 259.253906 215.105469 259.09375 215.089844 C 258.9375 215.074219 258.695312 215.089844 258.515625 215.125 C 258.335938 215.160156 258.082031 215.246094 258.042969 215.304688 C 257.90625 215.488281 257.867188 215.675781 257.765625 215.859375 C 257.507812 216.324219 256.851562 216.539062 255.773438 216.507812 C 255.320312 216.492188 254.890625 216.457031 254.449219 216.429688 C 254.320312 216.199219 254.21875 215.964844 254.042969 215.746094 C 253.84375 215.5 253.261719 215.488281 252.285156 215.675781 C 251.800781 215.773438 251.476562 215.917969 251.476562 216.0625 C 251.472656 216.207031 251.554688 216.34375 251.515625 216.492188 C 251.460938 216.730469 251.132812 216.941406 250.503906 217.140625 C 249.535156 217.445312 248.597656 217.640625 247.472656 217.714844 C 246.664062 217.765625 246.15625 217.714844 245.679688 217.574219 C 245.359375 217.476562 244.988281 217.527344 244.574219 217.6875 C 244.324219 217.789062 244.132812 217.90625 243.871094 218 C 242.757812 218.390625 241.003906 218.46875 240.453125 218.230469 C 240.234375 218.136719 240.003906 218.042969 239.761719 217.957031 C 239.617188 217.90625 239.078125 217.972656 238.910156 218.066406 C 238.703125 218.175781 238.480469 218.285156 238.335938 218.398438 C 238.0625 218.621094 237.726562 218.742188 237.097656 218.757812 C 236.851562 218.765625 236.515625 218.894531 236.214844 218.957031 C 235.773438 219.050781 235.359375 219.035156 235.1875 218.914062 C 235.027344 218.800781 234.945312 218.667969 234.757812 218.566406 C 234.621094 218.488281 234.382812 218.441406 234.175781 218.386719 C 233.71875 218.269531 232.925781 218.4375 232.679688 218.710938 C 232.582031 218.824219 232.519531 218.945312 232.527344 219.050781 C 232.535156 219.175781 232.410156 219.28125 232.066406 219.339844 C 231.546875 219.429688 231.007812 219.519531 230.496094 219.566406 C 230.230469 219.589844 229.984375 219.527344 229.765625 219.484375 C 229.125 219.359375 228.933594 219.347656 228.503906 219.566406 C 227.46875 220.097656 226.21875 220.183594 224.972656 220.269531 C 224.367188 220.3125 224.351562 220.082031 224.082031 219.96875 C 223.890625 219.890625 223.445312 219.945312 223.304688 220.0625 C 223.214844 220.136719 223.105469 220.21875 223.082031 220.289062 C 223.015625 220.476562 222.707031 220.601562 222.242188 220.660156 C 221.507812 220.75 220.769531 220.792969 220.039062 220.90625 C 219.109375 221.050781 218.757812 220.914062 218.410156 220.714844 C 218.175781 220.582031 217.773438 220.605469 217.367188 220.78125 C 217.035156 220.917969 216.824219 221.0625 216.3125 221.027344 C 215.71875 220.988281 215.082031 221.105469 214.488281 221.28125 C 213.914062 221.449219 213.390625 221.648438 212.804688 221.804688 C 212.421875 221.90625 211.960938 221.949219 211.605469 221.898438 C 211.441406 221.875 211.335938 221.824219 211.179688 221.796875 C 210.007812 221.585938 209.511719 221.644531 208.171875 222.148438 C 207.914062 222.246094 207.664062 222.347656 207.394531 222.441406 C 206.945312 222.597656 206.371094 222.648438 205.957031 222.566406 C 205.660156 222.503906 205.417969 222.414062 205.089844 222.375 C 204.578125 222.3125 203.984375 222.445312 203.578125 222.730469 C 203.328125 222.90625 203.042969 223.011719 202.574219 223.046875 C 202.261719 223.066406 201.957031 223.070312 201.644531 223.101562 C 201.152344 223.152344 200.953125 223.097656 200.863281 222.941406 C 200.75 222.753906 200.1875 222.773438 199.679688 222.789062 C 199.242188 222.804688 198.871094 222.933594 198.773438 223.109375 C 198.730469 223.183594 198.765625 223.257812 198.726562 223.332031 C 198.652344 223.460938 198.289062 223.570312 198.019531 223.546875 C 196.90625 223.453125 196.894531 223.453125 195.550781 223.695312 C 195.378906 223.59375 195.265625 223.464844 194.992188 223.410156 C 194.292969 223.28125 193.355469 223.527344 193.132812 223.878906 C 193.085938 223.953125 193.082031 224.066406 192.976562 224.09375 C 192.605469 224.191406 192.503906 224.085938 192.386719 224.011719 C 192.34375 223.984375 192.304688 223.953125 192.238281 223.933594 C 191.792969 223.796875 191.0625 223.84375 190.585938 224.054688 C 190.273438 224.191406 190.019531 224.34375 189.726562 224.488281 C 189.167969 224.765625 188.523438 224.8125 188.382812 224.5625 C 188.238281 224.316406 187.828125 224.261719 187.125 224.332031 C 186.808594 224.363281 186.492188 224.398438 186.175781 224.445312 C 185.371094 224.5625 184.78125 224.730469 184.578125 225.070312 C 184.433594 225.308594 184.203125 225.363281 183.699219 225.414062 C 182.941406 225.488281 182.335938 225.511719 182.019531 225.25 C 181.675781 224.964844 180.960938 224.957031 180.019531 225.117188 C 179.8125 225.152344 179.597656 225.191406 179.398438 225.238281 C 178.34375 225.484375 177.320312 225.609375 176.296875 225.597656 C 176.011719 225.59375 175.675781 225.640625 175.363281 225.667969 C 174.933594 225.703125 174.601562 225.832031 174.488281 226.019531 C 174.441406 226.09375 174.460938 226.167969 174.414062 226.242188 C 174.308594 226.414062 174.082031 226.496094 173.777344 226.480469 C 173.40625 226.457031 172.863281 226.488281 172.707031 226.398438 C 172.085938 226.058594 170.902344 226.113281 169.808594 226.246094 C 168.101562 226.457031 166.453125 226.625 164.855469 226.628906 C 164.628906 226.628906 164.449219 226.722656 164.453125 226.796875 C 164.457031 226.828125 164.480469 226.875 164.542969 226.882812 C 164.886719 226.914062 165.25 226.933594 165.601562 226.960938 C 165.683594 226.96875 165.800781 226.972656 165.8125 226.996094 C 165.851562 227.0625 165.703125 227.121094 165.4375 227.167969 C 164.578125 227.316406 163.753906 227.390625 162.960938 227.375 C 162.574219 227.367188 162.175781 227.371094 161.773438 227.382812 C 161.027344 227.402344 160.8125 227.253906 160.925781 226.992188 C 160.941406 226.953125 160.957031 226.914062 160.949219 226.878906 C 160.898438 226.679688 160.59375 226.601562 159.996094 226.628906 C 159.417969 226.65625 159.015625 226.789062 158.800781 227.023438 C 158.53125 227.324219 158.523438 227.328125 157.902344 227.1875 C 157.757812 227.15625 157.59375 227.132812 157.441406 227.101562 L 157.476562 227.113281 C 157.125 226.953125 156.644531 226.898438 155.917969 227.058594 C 155.507812 227.148438 155.105469 227.253906 154.691406 227.332031 C 154.355469 227.390625 154.089844 227.359375 153.96875 227.265625 C 153.707031 227.0625 153.542969 226.828125 153.191406 226.65625 C 152.546875 226.34375 153.082031 225.972656 153.742188 225.59375 C 153.917969 225.488281 154.230469 225.390625 154.515625 225.316406 C 155.308594 225.113281 156.121094 224.925781 156.921875 224.726562 C 157.34375 224.625 157.640625 224.484375 157.828125 224.324219 C 157.964844 224.207031 158.070312 224.089844 158.214844 223.972656 C 159.179688 223.203125 160.566406 222.550781 162.632812 222.074219 C 164.054688 221.75 165.441406 221.371094 166.949219 221.179688 C 167.789062 221.078125 168.644531 220.9375 169.441406 220.964844 C 169.84375 220.976562 170.25 220.898438 170.664062 220.789062 C 171.453125 220.585938 172.253906 220.394531 173.050781 220.195312 C 173.679688 220.039062 174.269531 219.964844 174.867188 220.011719 C 175.097656 220.03125 175.574219 219.996094 175.730469 219.929688 C 176.371094 219.660156 177.070312 219.59375 177.816406 219.488281 C 178.652344 219.375 179.492188 219.207031 180.3125 219.039062 C 181.160156 218.867188 181.960938 218.714844 182.773438 218.761719 C 183.257812 218.785156 183.800781 218.710938 184.304688 218.558594 C 185.652344 218.148438 187.097656 217.875 188.570312 217.621094 C 189.617188 217.441406 190.652344 217.226562 191.695312 217.035156 C 192.425781 216.902344 193.160156 216.753906 193.890625 216.648438 C 195.164062 216.46875 196.410156 216.238281 197.667969 216.019531 C 199.128906 215.761719 200.636719 215.621094 202.085938 215.355469 C 203.550781 215.082031 205.007812 214.8125 206.488281 214.605469 C 207.4375 214.476562 208.417969 214.414062 209.332031 214.230469 C 211.515625 213.792969 213.753906 213.546875 215.917969 213.140625 C 219.175781 212.53125 222.449219 212.160156 225.710938 211.636719 C 226.332031 211.539062 226.988281 211.476562 227.59375 211.449219 C 228.546875 211.40625 229.445312 211.265625 230.382812 211.042969 C 231.199219 210.851562 232.0625 210.734375 232.863281 210.757812 C 233.652344 210.78125 234.0625 210.972656 234.414062 211.1875 C 235.039062 211.082031 235.304688 210.898438 235.425781 210.695312 C 235.5625 210.476562 235.886719 210.296875 236.503906 210.234375 C 237.441406 210.136719 238.390625 209.9375 239.332031 209.910156 C 239.695312 209.902344 240.15625 209.792969 240.558594 209.707031 C 240.992188 209.617188 241.394531 209.5625 241.785156 209.578125 C 242.476562 209.609375 243.160156 209.558594 243.894531 209.332031 C 244.707031 209.078125 245.507812 208.984375 246.300781 209.050781 C 246.652344 209.082031 247.050781 209.089844 247.449219 209.070312 C 248.078125 209.042969 248.707031 208.953125 249.246094 208.726562 C 249.410156 208.660156 249.554688 208.585938 249.730469 208.523438 C 250.308594 208.3125 250.902344 208.21875 251.488281 208.28125 C 252.09375 208.34375 252.679688 208.417969 253.289062 208.480469 C 253.617188 208.515625 254.152344 208.398438 254.414062 208.25 C 254.542969 208.175781 254.632812 208.097656 254.757812 208.023438 C 255.695312 207.453125 256.9375 207.269531 258.121094 207.519531 C 258.265625 207.550781 258.417969 207.582031 258.582031 207.605469 C 258.898438 207.648438 259.476562 207.589844 259.742188 207.445312 C 260.332031 207.121094 260.953125 206.945312 261.933594 206.867188 C 262.609375 206.808594 263.335938 206.585938 264.03125 206.652344 C 264.402344 206.6875 264.863281 206.605469 265.246094 206.484375 C 266.199219 206.179688 267.070312 206.375 268.023438 206.15625 C 268.828125 205.96875 269.664062 205.8125 270.492188 205.65625 C 270.6875 205.617188 270.917969 205.609375 271.109375 205.609375 C 272.527344 205.613281 274.027344 205.394531 275.476562 205.152344 C 276.53125 204.976562 277.300781 204.941406 278.058594 205.082031 C 278.542969 205.171875 278.957031 205.09375 279.410156 204.839844 C 279.839844 204.597656 280.324219 204.449219 281.054688 204.402344 C 281.769531 204.359375 282.519531 204.253906 283.257812 204.175781 C 283.257812 204.175781 283.214844 204.164062 283.214844 204.164062 C 283.214844 204.164062 283.21875 204.164062 283.21875 204.164062 C 283.253906 204.160156 283.285156 204.15625 283.320312 204.152344 C 283.308594 204.15625 283.292969 204.160156 283.28125 204.164062 C 283.722656 204.1875 284.148438 204.226562 284.617188 204.214844 C 285.519531 204.191406 286.441406 204.148438 287.367188 204.085938 C 288.148438 204.03125 288.671875 204.09375 289.121094 204.261719 C 289.714844 204.484375 290.183594 204.421875 290.765625 204.054688 C 291.101562 203.847656 291.425781 203.703125 292.03125 203.644531 C 292.972656 203.550781 293.917969 203.421875 294.566406 203.648438 C 294.824219 203.742188 295.167969 203.683594 295.628906 203.46875 C 296.214844 203.199219 296.828125 203.027344 297.625 203.019531 C 298.117188 203.015625 298.625 203.019531 299.152344 202.875 C 300.554688 202.480469 301.816406 202.394531 303.003906 202.550781 C 303.441406 202.609375 303.933594 202.5625 304.488281 202.417969 C 305.175781 202.238281 305.886719 202.074219 306.597656 201.921875 C 307.652344 201.699219 308.3125 201.742188 308.859375 202.046875 " fill-opacity="1" fill-rule="nonzero"/></g></g></g><g clip-path="url(#27ad0dd597)"><g clip-path="url(#8dbe14e0f5)"><g clip-path="url(#1e0f3572d5)"><path fill="#000000" d="M 195.585938 223.710938 C 195.574219 223.707031 195.5625 223.699219 195.550781 223.695312 C 195.542969 223.695312 195.542969 223.695312 195.535156 223.695312 L 195.585938 223.710938 " fill-opacity="1" fill-rule="nonzero"/></g></g></g><g clip-path="url(#82fdfd1df9)"><g clip-path="url(#5ffdf5476f)"><g clip-path="url(#2c0b5d14cd)"><path fill="#000000" d="M 296.222656 207.238281 C 296.210938 207.226562 296.046875 207.238281 295.957031 207.253906 C 295.679688 207.296875 295.40625 207.34375 295.128906 207.390625 C 295.382812 207.390625 295.632812 207.390625 295.886719 207.375 C 296.140625 207.363281 296.273438 207.304688 296.222656 207.238281 " fill-opacity="1" fill-rule="nonzero"/></g></g></g><g clip-path="url(#9dd891176b)"><g clip-path="url(#9f511cd1be)"><g clip-path="url(#0b7e27d207)"><path fill="#000000" d="M 169.125 226.988281 C 169.308594 227.03125 169.425781 227.003906 169.441406 226.90625 C 169.441406 226.894531 169.304688 226.898438 169.226562 226.894531 C 169.195312 226.925781 169.160156 226.957031 169.125 226.988281 " fill-opacity="1" fill-rule="nonzero"/></g></g></g><g clip-path="url(#527985579c)"><g clip-path="url(#97c45d5618)"><g clip-path="url(#ae9cb73fa0)"><path fill="#000000" d="M 284.015625 204.007812 C 283.71875 203.976562 283.523438 204.066406 283.320312 204.152344 C 283.488281 204.132812 283.660156 204.117188 283.824219 204.089844 C 283.894531 204.078125 283.953125 204.035156 284.015625 204.007812 " fill-opacity="1" fill-rule="nonzero"/></g></g></g><g clip-path="url(#1b10b342de)"><g clip-path="url(#59b87045ff)"><g clip-path="url(#2d6a770171)"><path fill="#000000" d="M 254.375 216.511719 C 254.402344 216.484375 254.433594 216.464844 254.460938 216.4375 C 254.460938 216.4375 254.457031 216.4375 254.457031 216.4375 C 254.453125 216.433594 254.453125 216.433594 254.449219 216.429688 C 254.4375 216.429688 254.421875 216.425781 254.410156 216.425781 C 254.398438 216.457031 254.386719 216.484375 254.375 216.511719 " fill-opacity="1" fill-rule="nonzero"/><path fill="#000000" d="M 254.339844 216.605469 C 254.351562 216.574219 254.363281 216.542969 254.375 216.511719 C 254.363281 216.519531 254.347656 216.53125 254.339844 216.542969 C 254.320312 216.5625 254.335938 216.585938 254.339844 216.605469 " fill-opacity="1" fill-rule="nonzero"/></g></g></g><g clip-path="url(#9a09ed0967)"><g clip-path="url(#c8f5a7bef6)"><g clip-path="url(#0e6a34b129)"><path fill="#000000" d="M 176.691406 226.261719 L 176.859375 226.246094 L 176.792969 226.195312 Z M 176.691406 226.261719 " fill-opacity="1" fill-rule="nonzero"/></g></g></g><g fill="#000000" fill-opacity="1"><g transform="translate(145.669778, 256.962098)"><g><path d="M 10.28125 -4.515625 C 10.207031 -2.972656 9.769531 -1.800781 8.96875 -1 C 8.164062 -0.207031 7.035156 0.1875 5.578125 0.1875 C 4.046875 0.1875 2.875 -0.316406 2.0625 -1.328125 C 1.25 -2.335938 0.84375 -3.773438 0.84375 -5.640625 L 0.84375 -7.921875 C 0.84375 -9.785156 1.265625 -11.21875 2.109375 -12.21875 C 2.953125 -13.226562 4.125 -13.734375 5.625 -13.734375 C 7.101562 -13.734375 8.222656 -13.320312 8.984375 -12.5 C 9.753906 -11.675781 10.191406 -10.488281 10.296875 -8.9375 L 7.546875 -8.9375 C 7.523438 -9.894531 7.378906 -10.554688 7.109375 -10.921875 C 6.835938 -11.285156 6.34375 -11.46875 5.625 -11.46875 C 4.894531 -11.46875 4.375 -11.210938 4.0625 -10.703125 C 3.757812 -10.191406 3.597656 -9.347656 3.578125 -8.171875 L 3.578125 -5.609375 C 3.578125 -4.265625 3.726562 -3.335938 4.03125 -2.828125 C 4.332031 -2.328125 4.847656 -2.078125 5.578125 -2.078125 C 6.304688 -2.078125 6.804688 -2.253906 7.078125 -2.609375 C 7.347656 -2.960938 7.503906 -3.597656 7.546875 -4.515625 Z M 10.28125 -4.515625 "/></g></g></g><g fill="#000000" fill-opacity="1"><g transform="translate(158.768175, 256.962098)"><g><path d="M 10.625 -5.5625 C 10.625 -3.738281 10.191406 -2.320312 9.328125 -1.3125 C 8.472656 -0.3125 7.285156 0.1875 5.765625 0.1875 C 4.242188 0.1875 3.046875 -0.304688 2.171875 -1.296875 C 1.304688 -2.296875 0.867188 -3.691406 0.859375 -5.484375 L 0.859375 -7.8125 C 0.859375 -9.675781 1.285156 -11.128906 2.140625 -12.171875 C 3.003906 -13.210938 4.207031 -13.734375 5.75 -13.734375 C 7.25 -13.734375 8.429688 -13.21875 9.296875 -12.1875 C 10.171875 -11.164062 10.613281 -9.726562 10.625 -7.875 Z M 7.890625 -7.828125 C 7.890625 -9.046875 7.710938 -9.953125 7.359375 -10.546875 C 7.015625 -11.148438 6.476562 -11.453125 5.75 -11.453125 C 5.019531 -11.453125 4.476562 -11.164062 4.125 -10.59375 C 3.78125 -10.019531 3.601562 -9.144531 3.59375 -7.96875 L 3.59375 -5.5625 C 3.59375 -4.375 3.769531 -3.5 4.125 -2.9375 C 4.476562 -2.375 5.023438 -2.09375 5.765625 -2.09375 C 6.472656 -2.09375 7 -2.363281 7.34375 -2.90625 C 7.695312 -3.457031 7.878906 -4.3125 7.890625 -5.46875 Z M 7.890625 -7.828125 "/></g></g></g><g fill="#000000" fill-opacity="1"><g transform="translate(172.499248, 256.962098)"><g><path d="M 8.078125 -5.53125 L 3.828125 -5.53125 L 3.828125 0 L 1.09375 0 L 1.09375 -13.546875 L 8.59375 -13.546875 L 8.59375 -11.265625 L 3.828125 -11.265625 L 3.828125 -7.796875 L 8.078125 -7.796875 Z M 8.078125 -5.53125 "/></g></g></g><g fill="#000000" fill-opacity="1"><g transform="translate(183.79266, 256.962098)"><g><path d="M 8.078125 -5.53125 L 3.828125 -5.53125 L 3.828125 0 L 1.09375 0 L 1.09375 -13.546875 L 8.59375 -13.546875 L 8.59375 -11.265625 L 3.828125 -11.265625 L 3.828125 -7.796875 L 8.078125 -7.796875 Z M 8.078125 -5.53125 "/></g></g></g><g fill="#000000" fill-opacity="1"><g transform="translate(195.086072, 256.962098)"><g><path d="M 8.09375 -5.859375 L 3.828125 -5.859375 L 3.828125 -2.265625 L 8.875 -2.265625 L 8.875 0 L 1.09375 0 L 1.09375 -13.546875 L 8.859375 -13.546875 L 8.859375 -11.265625 L 3.828125 -11.265625 L 3.828125 -8.0625 L 8.09375 -8.0625 Z M 8.09375 -5.859375 "/></g></g></g><g fill="#000000" fill-opacity="1"><g transform="translate(206.66791, 256.962098)"><g><path d="M 8.09375 -5.859375 L 3.828125 -5.859375 L 3.828125 -2.265625 L 8.875 -2.265625 L 8.875 0 L 1.09375 0 L 1.09375 -13.546875 L 8.859375 -13.546875 L 8.859375 -11.265625 L 3.828125 -11.265625 L 3.828125 -8.0625 L 8.09375 -8.0625 Z M 8.09375 -5.859375 "/></g></g></g><g fill="#000000" fill-opacity="1"><g transform="translate(218.249748, 256.962098)"><g/></g></g><g fill="#000000" fill-opacity="1"><g transform="translate(224.87253, 256.962098)"><g><path d="M 10.28125 -4.515625 C 10.207031 -2.972656 9.769531 -1.800781 8.96875 -1 C 8.164062 -0.207031 7.035156 0.1875 5.578125 0.1875 C 4.046875 0.1875 2.875 -0.316406 2.0625 -1.328125 C 1.25 -2.335938 0.84375 -3.773438 0.84375 -5.640625 L 0.84375 -7.921875 C 0.84375 -9.785156 1.265625 -11.21875 2.109375 -12.21875 C 2.953125 -13.226562 4.125 -13.734375 5.625 -13.734375 C 7.101562 -13.734375 8.222656 -13.320312 8.984375 -12.5 C 9.753906 -11.675781 10.191406 -10.488281 10.296875 -8.9375 L 7.546875 -8.9375 C 7.523438 -9.894531 7.378906 -10.554688 7.109375 -10.921875 C 6.835938 -11.285156 6.34375 -11.46875 5.625 -11.46875 C 4.894531 -11.46875 4.375 -11.210938 4.0625 -10.703125 C 3.757812 -10.191406 3.597656 -9.347656 3.578125 -8.171875 L 3.578125 -5.609375 C 3.578125 -4.265625 3.726562 -3.335938 4.03125 -2.828125 C 4.332031 -2.328125 4.847656 -2.078125 5.578125 -2.078125 C 6.304688 -2.078125 6.804688 -2.253906 7.078125 -2.609375 C 7.347656 -2.960938 7.503906 -3.597656 7.546875 -4.515625 Z M 10.28125 -4.515625 "/></g></g></g><g fill="#000000" fill-opacity="1"><g transform="translate(237.970927, 256.962098)"><g><path d="M 10.625 -5.5625 C 10.625 -3.738281 10.191406 -2.320312 9.328125 -1.3125 C 8.472656 -0.3125 7.285156 0.1875 5.765625 0.1875 C 4.242188 0.1875 3.046875 -0.304688 2.171875 -1.296875 C 1.304688 -2.296875 0.867188 -3.691406 0.859375 -5.484375 L 0.859375 -7.8125 C 0.859375 -9.675781 1.285156 -11.128906 2.140625 -12.171875 C 3.003906 -13.210938 4.207031 -13.734375 5.75 -13.734375 C 7.25 -13.734375 8.429688 -13.21875 9.296875 -12.1875 C 10.171875 -11.164062 10.613281 -9.726562 10.625 -7.875 Z M 7.890625 -7.828125 C 7.890625 -9.046875 7.710938 -9.953125 7.359375 -10.546875 C 7.015625 -11.148438 6.476562 -11.453125 5.75 -11.453125 C 5.019531 -11.453125 4.476562 -11.164062 4.125 -10.59375 C 3.78125 -10.019531 3.601562 -9.144531 3.59375 -7.96875 L 3.59375 -5.5625 C 3.59375 -4.375 3.769531 -3.5 4.125 -2.9375 C 4.476562 -2.375 5.023438 -2.09375 5.765625 -2.09375 C 6.472656 -2.09375 7 -2.363281 7.34375 -2.90625 C 7.695312 -3.457031 7.878906 -4.3125 7.890625 -5.46875 Z M 7.890625 -7.828125 "/></g></g></g></svg>