<svg xmlns="http://www.w3.org/2000/svg" xmlns:xlink="http://www.w3.org/1999/xlink" width="500" zoomAndPan="magnify" viewBox="0 0 375 374.999991" height="500" preserveAspectRatio="xMidYMid meet" version="1.0"><defs><g/><clipPath id="466f6e772c"><path d="M 120 137 L 240 137 L 240 227 L 120 227 Z M 120 137 " clip-rule="nonzero"/></clipPath><clipPath id="0c0eea1f4c"><path d="M 211.566406 113.660156 L 268.253906 192.0625 L 155.207031 273.800781 L 98.519531 195.398438 Z M 211.566406 113.660156 " clip-rule="nonzero"/></clipPath><clipPath id="0c588ee8d5"><path d="M 211.566406 113.660156 L 268.253906 192.0625 L 155.207031 273.800781 L 98.519531 195.398438 Z M 211.566406 113.660156 " clip-rule="nonzero"/></clipPath><clipPath id="45b5899048"><path d="M 129 165 L 154 165 L 154 217 L 129 217 Z M 129 165 " clip-rule="nonzero"/></clipPath><clipPath id="a81b6b5c10"><path d="M 211.566406 113.660156 L 268.253906 192.0625 L 155.207031 273.800781 L 98.519531 195.398438 Z M 211.566406 113.660156 " clip-rule="nonzero"/></clipPath><clipPath id="ade3648926"><path d="M 211.566406 113.660156 L 268.253906 192.0625 L 155.207031 273.800781 L 98.519531 195.398438 Z M 211.566406 113.660156 " clip-rule="nonzero"/></clipPath><clipPath id="dc917896ee"><path d="M 125 153 L 247 153 L 247 250 L 125 250 Z M 125 153 " clip-rule="nonzero"/></clipPath><clipPath id="142dc4fb92"><path d="M 211.566406 113.660156 L 268.253906 192.0625 L 155.207031 273.800781 L 98.519531 195.398438 Z M 211.566406 113.660156 " clip-rule="nonzero"/></clipPath><clipPath id="fa34a6dfdb"><path d="M 211.566406 113.660156 L 268.253906 192.0625 L 155.207031 273.800781 L 98.519531 195.398438 Z M 211.566406 113.660156 " clip-rule="nonzero"/></clipPath><clipPath id="74cd5c5e7d"><path d="M 237.972656 150.230469 L 268.3125 192.1875 L 155.242188 273.9375 L 124.90625 231.980469 Z M 237.972656 150.230469 " clip-rule="nonzero"/></clipPath><clipPath id="4620a721d4"><path d="M 237.972656 150.230469 L 268.238281 192.089844 L 155.234375 273.792969 L 124.96875 231.933594 Z M 237.972656 150.230469 " clip-rule="nonzero"/></clipPath><clipPath id="c6b4741227"><path d="M 218 170 L 240 170 L 240 218 L 218 218 Z M 218 170 " clip-rule="nonzero"/></clipPath><clipPath id="1dca866297"><path d="M 211.566406 113.660156 L 268.253906 192.0625 L 155.207031 273.800781 L 98.519531 195.398438 Z M 211.566406 113.660156 " clip-rule="nonzero"/></clipPath><clipPath id="9f909b7f6f"><path d="M 211.566406 113.660156 L 268.253906 192.0625 L 155.207031 273.800781 L 98.519531 195.398438 Z M 211.566406 113.660156 " clip-rule="nonzero"/></clipPath></defs><g clip-path="url(#466f6e772c)"><g clip-path="url(#0c0eea1f4c)"><g clip-path="url(#0c588ee8d5)"><path fill="#000000" d="M 157.542969 213.613281 C 147.488281 220.675781 137.769531 222.839844 127.074219 220.367188 C 124.878906 211.308594 126.4375 200.53125 131.527344 189.828125 C 137.144531 178.011719 146.433594 167.199219 158.386719 158.554688 C 171.375 149.164062 186.179688 143.464844 200.074219 142.5 C 211.675781 141.699219 221.804688 144.242188 229.125 149.71875 C 219.546875 153.179688 206.453125 160.683594 192.210938 176.847656 C 189.355469 180.089844 186.46875 183.558594 183.679688 186.914062 C 175.496094 196.761719 167.035156 206.941406 157.542969 213.613281 Z M 187.699219 190.253906 C 190.464844 186.921875 193.324219 183.480469 196.132812 180.296875 C 212.753906 161.433594 227.632812 155.308594 235.023438 153.332031 L 239.378906 152.171875 L 236.210938 148.972656 C 218.738281 131.316406 183.964844 133.617188 155.324219 154.324219 C 129.539062 172.96875 116.015625 201.320312 122.441406 223.265625 L 122.851562 224.671875 L 124.269531 225.054688 C 136.972656 228.457031 148.839844 226.113281 160.542969 217.886719 C 170.605469 210.816406 179.296875 200.359375 187.699219 190.253906 " fill-opacity="1" fill-rule="nonzero"/></g></g></g><g clip-path="url(#45b5899048)"><g clip-path="url(#a81b6b5c10)"><g clip-path="url(#ade3648926)"><path fill="#000000" d="M 153.546875 165.695312 C 153.546875 165.695312 125.175781 194.261719 129.847656 216.601562 C 129.847656 216.601562 132.292969 193.664062 153.546875 165.695312 " fill-opacity="1" fill-rule="nonzero"/></g></g></g><g clip-path="url(#dc917896ee)"><g clip-path="url(#142dc4fb92)"><g clip-path="url(#fa34a6dfdb)"><g clip-path="url(#74cd5c5e7d)"><g clip-path="url(#4620a721d4)"><path fill="#000000" d="M 142.363281 239.96875 C 155.90625 239.816406 175.035156 233.484375 192.992188 206.019531 C 197.09375 199.742188 205.167969 188.902344 214.414062 179.015625 C 223.667969 169.117188 231.726562 162.65625 237.886719 160.167969 C 247.757812 179.824219 235.425781 209.367188 208.960938 228.503906 C 196.03125 237.851562 181.285156 243.550781 167.441406 244.546875 C 157.832031 245.238281 149.214844 243.632812 142.363281 239.96875 Z M 242.582031 194.730469 C 248.175781 180.253906 247.746094 166.375 241.371094 155.648438 L 240.347656 153.925781 L 238.417969 154.46875 C 221.777344 159.15625 197.679688 189.300781 188.617188 203.164062 C 167.464844 235.519531 145.160156 236.3125 133.746094 233.902344 L 125.070312 232.074219 L 131.363281 238.316406 C 148.894531 255.707031 183.570312 253.304688 212.019531 232.734375 C 226.226562 222.464844 237.078125 208.96875 242.582031 194.730469 " fill-opacity="1" fill-rule="nonzero"/></g></g></g></g></g><g clip-path="url(#c6b4741227)"><g clip-path="url(#1dca866297)"><g clip-path="url(#9f909b7f6f)"><path fill="#000000" d="M 239.28125 170.742188 C 234.734375 194.253906 218.113281 217.464844 218.113281 217.464844 C 239.6875 197.34375 239.28125 170.742188 239.28125 170.742188 " fill-opacity="1" fill-rule="nonzero"/></g></g></g><g fill="#000000" fill-opacity="1"><g transform="translate(155.627724, 286.448208)"><g><path d="M 2.25 -0.25 C 2.25 -0.25 1.421875 -7.539062 -0.234375 -22.125 C -0.234375 -22.125 1.472656 -22.320312 4.890625 -22.71875 C 6.203125 -22.863281 7.304688 -22.882812 8.203125 -22.78125 C 9.097656 -22.675781 9.890625 -22.441406 10.578125 -22.078125 C 11.234375 -21.691406 11.773438 -21.128906 12.203125 -20.390625 C 12.640625 -19.660156 12.910156 -18.820312 13.015625 -17.875 C 13.140625 -16.789062 13.046875 -15.863281 12.734375 -15.09375 C 12.429688 -14.320312 11.890625 -13.644531 11.109375 -13.0625 C 12.441406 -12.675781 13.445312 -12.085938 14.125 -11.296875 C 14.8125 -10.515625 15.226562 -9.445312 15.375 -8.09375 C 15.507812 -6.96875 15.410156 -5.929688 15.078125 -4.984375 C 14.753906 -4.035156 14.234375 -3.273438 13.515625 -2.703125 C 12.867188 -2.210938 12.09375 -1.828125 11.1875 -1.546875 C 10.289062 -1.265625 9.117188 -1.039062 7.671875 -0.875 Z M 4.21875 -2.484375 L 7.21875 -2.828125 C 9.382812 -3.078125 10.929688 -3.523438 11.859375 -4.171875 C 12.347656 -4.503906 12.710938 -4.992188 12.953125 -5.640625 C 13.191406 -6.285156 13.269531 -6.984375 13.1875 -7.734375 C 13.082031 -8.710938 12.765625 -9.519531 12.234375 -10.15625 C 11.710938 -10.789062 11.039062 -11.191406 10.21875 -11.359375 C 9.238281 -11.523438 7.78125 -11.5 5.84375 -11.28125 L 3.25 -10.984375 Z M 3.015625 -12.96875 L 5.6875 -13.28125 C 6.664062 -13.382812 7.4375 -13.507812 8 -13.65625 C 8.5625 -13.800781 9.050781 -14.007812 9.46875 -14.28125 C 10 -14.582031 10.375 -15.019531 10.59375 -15.59375 C 10.820312 -16.164062 10.894531 -16.832031 10.8125 -17.59375 C 10.738281 -18.238281 10.550781 -18.816406 10.25 -19.328125 C 9.957031 -19.847656 9.601562 -20.210938 9.1875 -20.421875 C 8.757812 -20.648438 8.203125 -20.785156 7.515625 -20.828125 C 6.835938 -20.867188 5.929688 -20.820312 4.796875 -20.6875 L 2.171875 -20.390625 Z M 3.015625 -12.96875 "/></g></g></g><g fill="#000000" fill-opacity="1"><g transform="translate(178.498603, 283.442381)"><g><path d="M 12.859375 -21.03125 C 12.859375 -21.03125 14.457031 -15.835938 17.65625 -5.453125 C 17.65625 -5.453125 16.953125 -5.234375 15.546875 -4.796875 C 15.546875 -4.796875 15.265625 -5.707031 14.703125 -7.53125 C 14.210938 -6.164062 13.582031 -5.097656 12.8125 -4.328125 C 12.039062 -3.566406 11 -2.984375 9.6875 -2.578125 C 8.09375 -2.085938 6.550781 -1.992188 5.0625 -2.296875 C 3.570312 -2.597656 2.273438 -3.257812 1.171875 -4.28125 C 0.0664062 -5.300781 -0.71875 -6.578125 -1.1875 -8.109375 C -1.664062 -9.648438 -1.742188 -11.15625 -1.421875 -12.625 C -1.097656 -14.101562 -0.421875 -15.390625 0.609375 -16.484375 C 1.648438 -17.585938 2.9375 -18.375 4.46875 -18.84375 C 5.832031 -19.269531 7.082031 -19.382812 8.21875 -19.1875 C 9.351562 -18.988281 10.476562 -18.46875 11.59375 -17.625 L 10.75 -20.375 Z M 5.046875 -16.90625 C 3.378906 -16.394531 2.140625 -15.351562 1.328125 -13.78125 C 0.523438 -12.21875 0.390625 -10.578125 0.921875 -8.859375 C 1.453125 -7.109375 2.507812 -5.8125 4.09375 -4.96875 C 5.675781 -4.125 7.332031 -3.96875 9.0625 -4.5 C 10.75 -5.019531 11.984375 -6.0625 12.765625 -7.625 C 13.554688 -9.1875 13.675781 -10.851562 13.125 -12.625 C 12.582031 -14.394531 11.539062 -15.6875 10 -16.5 C 8.457031 -17.3125 6.804688 -17.445312 5.046875 -16.90625 Z M 5.046875 -16.90625 "/></g></g></g><g fill="#000000" fill-opacity="1"><g transform="translate(203.061911, 274.957506)"><g><path d="M 1.6875 -0.8125 C 1.6875 -0.8125 -0.6875 -5.695312 -5.4375 -15.46875 C -5.4375 -15.46875 -4.769531 -15.796875 -3.4375 -16.453125 C -3.4375 -16.453125 -3.097656 -15.757812 -2.421875 -14.375 C -2.429688 -15.351562 -2.203125 -16.191406 -1.734375 -16.890625 C -1.265625 -17.597656 -0.507812 -18.242188 0.53125 -18.828125 L 1.484375 -16.859375 C -1.140625 -15.242188 -1.789062 -13.070312 -0.46875 -10.34375 C -0.46875 -10.34375 0.914062 -7.492188 3.6875 -1.796875 C 3.6875 -1.796875 3.019531 -1.46875 1.6875 -0.8125 Z M 1.6875 -0.8125 "/></g></g></g><g fill="#000000" fill-opacity="1"><g transform="translate(216.197161, 268.530658)"><g><path d="M 10.15625 -12.78125 C 10.15625 -12.78125 10.84375 -13.253906 12.21875 -14.203125 C 12.332031 -13.222656 12.367188 -12.414062 12.328125 -11.78125 C 12.285156 -11.15625 12.160156 -10.519531 11.953125 -9.875 C 11.390625 -8.050781 10.257812 -6.5625 8.5625 -5.40625 C 7.207031 -4.46875 5.757812 -3.925781 4.21875 -3.78125 C 2.675781 -3.632812 1.210938 -3.882812 -0.171875 -4.53125 C -1.566406 -5.175781 -2.710938 -6.148438 -3.609375 -7.453125 C -4.484375 -8.742188 -4.972656 -10.144531 -5.078125 -11.65625 C -5.179688 -13.164062 -4.890625 -14.609375 -4.203125 -15.984375 C -3.523438 -17.359375 -2.523438 -18.503906 -1.203125 -19.421875 C 0.316406 -20.460938 1.941406 -20.992188 3.671875 -21.015625 C 5.410156 -21.046875 7.015625 -20.570312 8.484375 -19.59375 L 6.453125 -18.1875 C 5.328125 -18.707031 4.203125 -18.929688 3.078125 -18.859375 C 1.953125 -18.785156 0.894531 -18.40625 -0.09375 -17.71875 C -1.582031 -16.695312 -2.484375 -15.3125 -2.796875 -13.5625 C -3.117188 -11.820312 -2.765625 -10.195312 -1.734375 -8.6875 C -0.703125 -7.175781 0.691406 -6.265625 2.453125 -5.953125 C 4.210938 -5.640625 5.84375 -6 7.34375 -7.03125 C 8.3125 -7.695312 9.003906 -8.46875 9.421875 -9.34375 C 9.847656 -10.21875 10.09375 -11.363281 10.15625 -12.78125 Z M 10.15625 -12.78125 "/></g></g></g><g fill="#000000" fill-opacity="1"><g transform="translate(236.714107, 253.757662)"><g><path d="M 7.5 -18.171875 C 7.5 -18.171875 4.050781 -14.671875 -2.84375 -7.671875 C -1.644531 -6.609375 -0.210938 -6.125 1.453125 -6.21875 C 3.117188 -6.3125 4.539062 -6.953125 5.71875 -8.140625 C 6.582031 -9.023438 7.140625 -10.078125 7.390625 -11.296875 C 7.640625 -12.523438 7.523438 -13.695312 7.046875 -14.8125 L 8.671875 -16.453125 C 9.472656 -14.816406 9.738281 -13.101562 9.46875 -11.3125 C 9.207031 -9.53125 8.453125 -8.003906 7.203125 -6.734375 C 6.378906 -5.898438 5.429688 -5.257812 4.359375 -4.8125 C 3.296875 -4.375 2.222656 -4.148438 1.140625 -4.140625 C 0.0546875 -4.128906 -1.019531 -4.335938 -2.09375 -4.765625 C -3.175781 -5.203125 -4.140625 -5.832031 -4.984375 -6.65625 C -6.085938 -7.75 -6.835938 -9.015625 -7.234375 -10.453125 C -7.640625 -11.898438 -7.648438 -13.34375 -7.265625 -14.78125 C -6.890625 -16.226562 -6.160156 -17.503906 -5.078125 -18.609375 C -3.941406 -19.765625 -2.613281 -20.539062 -1.09375 -20.9375 C 0.414062 -21.34375 1.90625 -21.316406 3.375 -20.859375 C 4.113281 -20.640625 4.789062 -20.328125 5.40625 -19.921875 C 6.03125 -19.523438 6.726562 -18.941406 7.5 -18.171875 Z M -4.234375 -9.109375 L 4.53125 -18 C 3.113281 -18.875 1.671875 -19.238281 0.203125 -19.09375 C -1.253906 -18.957031 -2.539062 -18.320312 -3.65625 -17.1875 C -4.738281 -16.09375 -5.332031 -14.800781 -5.4375 -13.3125 C -5.539062 -11.832031 -5.140625 -10.429688 -4.234375 -9.109375 Z M -4.234375 -9.109375 "/></g></g></g><g fill="#000000" fill-opacity="1"><g transform="translate(253.5719, 235.465006)"><g><path d="M 1.125 -1.5 C 1.125 -1.5 -4.753906 -5.890625 -16.515625 -14.671875 C -16.515625 -14.671875 -16.070312 -15.265625 -15.1875 -16.453125 C -15.1875 -16.453125 -9.304688 -12.0625 2.453125 -3.28125 C 2.453125 -3.28125 2.007812 -2.6875 1.125 -1.5 Z M 1.125 -1.5 "/></g></g></g><g fill="#000000" fill-opacity="1"><g transform="translate(259.996146, 226.503067)"><g><path d="M 1 -1.59375 C 1 -1.59375 -5.222656 -5.476562 -17.671875 -13.25 C -17.671875 -13.25 -17.28125 -13.875 -16.5 -15.125 C -16.5 -15.125 -10.273438 -11.238281 2.171875 -3.46875 C 2.171875 -3.46875 1.78125 -2.84375 1 -1.59375 Z M 1 -1.59375 "/></g></g></g><g fill="#000000" fill-opacity="1"><g transform="translate(266.159372, 216.777682)"><g><path d="M 0.65625 -19.640625 C 0.65625 -19.640625 -1.347656 -15.160156 -5.359375 -6.203125 C -3.847656 -5.617188 -2.328125 -5.660156 -0.796875 -6.328125 C 0.722656 -6.992188 1.820312 -8.09375 2.5 -9.625 C 3.007812 -10.757812 3.164062 -11.941406 2.96875 -13.171875 C 2.769531 -14.410156 2.253906 -15.46875 1.421875 -16.34375 L 2.359375 -18.4375 C 3.679688 -17.1875 4.53125 -15.679688 4.90625 -13.921875 C 5.28125 -12.160156 5.109375 -10.46875 4.390625 -8.84375 C 3.898438 -7.769531 3.234375 -6.835938 2.390625 -6.046875 C 1.546875 -5.253906 0.617188 -4.664062 -0.390625 -4.28125 C -1.398438 -3.894531 -2.484375 -3.710938 -3.640625 -3.734375 C -4.796875 -3.765625 -5.910156 -4.019531 -6.984375 -4.5 C -8.398438 -5.132812 -9.550781 -6.054688 -10.4375 -7.265625 C -11.320312 -8.484375 -11.84375 -9.832031 -12 -11.3125 C -12.15625 -12.789062 -11.914062 -14.238281 -11.28125 -15.65625 C -10.625 -17.125 -9.648438 -18.316406 -8.359375 -19.234375 C -7.078125 -20.148438 -5.675781 -20.644531 -4.15625 -20.71875 C -3.375 -20.769531 -2.625 -20.710938 -1.90625 -20.546875 C -1.1875 -20.378906 -0.332031 -20.078125 0.65625 -19.640625 Z M -7.15625 -7.046875 L -2.0625 -18.453125 C -3.6875 -18.773438 -5.160156 -18.613281 -6.484375 -17.96875 C -7.804688 -17.320312 -8.789062 -16.273438 -9.4375 -14.828125 C -10.0625 -13.421875 -10.160156 -12 -9.734375 -10.5625 C -9.316406 -9.132812 -8.457031 -7.960938 -7.15625 -7.046875 Z M -7.15625 -7.046875 "/></g></g></g><g fill="#000000" fill-opacity="1"><g transform="translate(101.805089, 223.976661)"><g><path d="M -1.453125 -16.25 C -1.453125 -16.25 -1.28125 -17.066406 -0.9375 -18.703125 C -0.175781 -18.066406 0.40625 -17.503906 0.8125 -17.015625 C 1.21875 -16.535156 1.566406 -15.988281 1.859375 -15.375 C 2.691406 -13.675781 2.894531 -11.828125 2.46875 -9.828125 C 2.125 -8.210938 1.445312 -6.816406 0.4375 -5.640625 C -0.570312 -4.472656 -1.796875 -3.644531 -3.234375 -3.15625 C -4.679688 -2.664062 -6.1875 -2.582031 -7.75 -2.90625 C -9.269531 -3.226562 -10.585938 -3.898438 -11.703125 -4.921875 C -12.816406 -5.953125 -13.601562 -7.203125 -14.0625 -8.671875 C -14.519531 -10.140625 -14.582031 -11.648438 -14.25 -13.203125 C -13.863281 -15.003906 -13.050781 -16.515625 -11.8125 -17.734375 C -10.582031 -18.960938 -9.097656 -19.726562 -7.359375 -20.03125 L -7.859375 -17.609375 C -9.035156 -17.210938 -10.003906 -16.597656 -10.765625 -15.765625 C -11.523438 -14.941406 -12.03125 -13.941406 -12.28125 -12.765625 C -12.65625 -10.992188 -12.351562 -9.363281 -11.375 -7.875 C -10.40625 -6.394531 -9.023438 -5.46875 -7.234375 -5.09375 C -5.460938 -4.71875 -3.832031 -5.019531 -2.34375 -6 C -0.851562 -6.976562 0.0820312 -8.363281 0.46875 -10.15625 C 0.707031 -11.300781 0.675781 -12.335938 0.375 -13.265625 C 0.0820312 -14.191406 -0.523438 -15.1875 -1.453125 -16.25 Z M -1.453125 -16.25 "/></g></g></g><g fill="#000000" fill-opacity="1"><g transform="translate(106.61463, 202.500424)"><g><path d="M -11.375 -15.703125 C -10.738281 -17.148438 -9.832031 -18.304688 -8.65625 -19.171875 C -7.476562 -20.046875 -6.144531 -20.554688 -4.65625 -20.703125 C -3.164062 -20.859375 -1.671875 -20.613281 -0.171875 -19.96875 C 2.054688 -19 3.597656 -17.472656 4.453125 -15.390625 C 5.304688 -13.304688 5.257812 -11.171875 4.3125 -8.984375 C 3.65625 -7.472656 2.726562 -6.253906 1.53125 -5.328125 C 0.332031 -4.398438 -1.007812 -3.847656 -2.5 -3.671875 C -4 -3.492188 -5.484375 -3.722656 -6.953125 -4.359375 C -9.234375 -5.347656 -10.785156 -6.910156 -11.609375 -9.046875 C -12.441406 -11.191406 -12.363281 -13.410156 -11.375 -15.703125 Z M -9.59375 -14.734375 C -10.300781 -13.085938 -10.316406 -11.472656 -9.640625 -9.890625 C -8.972656 -8.316406 -7.769531 -7.160156 -6.03125 -6.421875 C -4.332031 -5.679688 -2.679688 -5.625 -1.078125 -6.25 C 0.523438 -6.882812 1.691406 -8.046875 2.421875 -9.734375 C 3.140625 -11.378906 3.171875 -12.96875 2.515625 -14.5 C 1.859375 -16.039062 0.664062 -17.179688 -1.0625 -17.921875 C -2.8125 -18.679688 -4.488281 -18.757812 -6.09375 -18.15625 C -7.695312 -17.5625 -8.863281 -16.421875 -9.59375 -14.734375 Z M -9.59375 -14.734375 "/></g></g></g><g fill="#000000" fill-opacity="1"><g transform="translate(116.146227, 182.078615)"><g><path d="M 1.625 -2.546875 C 1.625 -2.546875 -2.394531 -5.101562 -10.4375 -10.21875 C -10.4375 -10.21875 -10.890625 -9.503906 -11.796875 -8.078125 C -11.796875 -8.078125 -12.351562 -8.429688 -13.46875 -9.140625 C -13.46875 -9.140625 -13.015625 -9.851562 -12.109375 -11.28125 C -13.742188 -12.320312 -14.679688 -13.53125 -14.921875 -14.90625 C -15.160156 -16.28125 -14.71875 -17.851562 -13.59375 -19.625 L -11.921875 -18.546875 C -12.734375 -17.273438 -13.0625 -16.238281 -12.90625 -15.4375 C -12.757812 -14.632812 -12.101562 -13.863281 -10.9375 -13.125 L -8.765625 -16.546875 C -8.765625 -16.546875 -8.207031 -16.191406 -7.09375 -15.484375 C -7.09375 -15.484375 -7.816406 -14.34375 -9.265625 -12.0625 C -9.265625 -12.0625 -5.242188 -9.503906 2.796875 -4.390625 C 2.796875 -4.390625 2.40625 -3.773438 1.625 -2.546875 Z M 1.625 -2.546875 "/></g></g></g><g fill="#000000" fill-opacity="1"><g transform="translate(123.158221, 171.418893)"><g><path d="M 1.90625 -2.34375 C 1.90625 -2.34375 -1.789062 -5.347656 -9.1875 -11.359375 C -9.1875 -11.359375 -9.71875 -10.703125 -10.78125 -9.390625 C -10.78125 -9.390625 -11.296875 -9.804688 -12.328125 -10.640625 C -12.328125 -10.640625 -11.796875 -11.296875 -10.734375 -12.609375 C -12.234375 -13.828125 -13.023438 -15.128906 -13.109375 -16.515625 C -13.191406 -17.910156 -12.566406 -19.421875 -11.234375 -21.046875 L -9.703125 -19.796875 C -10.660156 -18.628906 -11.109375 -17.640625 -11.046875 -16.828125 C -10.984375 -16.015625 -10.421875 -15.175781 -9.359375 -14.3125 L -6.796875 -17.453125 C -6.796875 -17.453125 -6.28125 -17.035156 -5.25 -16.203125 C -5.25 -16.203125 -6.101562 -15.15625 -7.8125 -13.0625 C -7.8125 -13.0625 -4.113281 -10.054688 3.28125 -4.046875 C 3.28125 -4.046875 2.820312 -3.476562 1.90625 -2.34375 Z M 1.90625 -2.34375 "/></g></g></g><g fill="#000000" fill-opacity="1"><g transform="translate(130.888465, 161.658254)"><g><path d="M 8.578125 -17.671875 C 8.578125 -17.671875 4.921875 -14.394531 -2.390625 -7.84375 C -1.242188 -6.695312 0.160156 -6.113281 1.828125 -6.09375 C 3.492188 -6.082031 4.953125 -6.640625 6.203125 -7.765625 C 7.117188 -8.585938 7.738281 -9.601562 8.0625 -10.8125 C 8.382812 -12.019531 8.347656 -13.191406 7.953125 -14.328125 L 9.65625 -15.859375 C 10.351562 -14.191406 10.515625 -12.472656 10.140625 -10.703125 C 9.765625 -8.941406 8.921875 -7.46875 7.609375 -6.28125 C 6.722656 -5.488281 5.734375 -4.90625 4.640625 -4.53125 C 3.554688 -4.15625 2.472656 -4 1.390625 -4.0625 C 0.304688 -4.125 -0.753906 -4.398438 -1.796875 -4.890625 C -2.835938 -5.378906 -3.753906 -6.0625 -4.546875 -6.9375 C -5.585938 -8.09375 -6.265625 -9.40625 -6.578125 -10.875 C -6.890625 -12.34375 -6.8125 -13.785156 -6.34375 -15.203125 C -5.882812 -16.617188 -5.082031 -17.84375 -3.9375 -18.875 C -2.738281 -19.945312 -1.367188 -20.640625 0.171875 -20.953125 C 1.710938 -21.273438 3.195312 -21.164062 4.625 -20.625 C 5.34375 -20.34375 6 -19.976562 6.59375 -19.53125 C 7.1875 -19.09375 7.847656 -18.472656 8.578125 -17.671875 Z M -3.671875 -9.34375 L 5.625 -17.6875 C 4.257812 -18.644531 2.847656 -19.097656 1.390625 -19.046875 C -0.0664062 -18.992188 -1.390625 -18.4375 -2.578125 -17.375 C -3.722656 -16.34375 -4.394531 -15.085938 -4.59375 -13.609375 C -4.800781 -12.140625 -4.492188 -10.71875 -3.671875 -9.34375 Z M -3.671875 -9.34375 "/></g></g></g><g fill="#000000" fill-opacity="1"><g transform="translate(147.517039, 147.107007)"><g><path d="M 11.90625 -15.609375 C 11.90625 -15.609375 7.671875 -13.117188 -0.796875 -8.140625 C 0.109375 -6.804688 1.375 -5.96875 3 -5.625 C 4.632812 -5.28125 6.171875 -5.535156 7.609375 -6.390625 C 8.679688 -7.015625 9.492188 -7.882812 10.046875 -9 C 10.597656 -10.113281 10.789062 -11.269531 10.625 -12.46875 L 12.609375 -13.640625 C 12.960938 -11.859375 12.78125 -10.140625 12.0625 -8.484375 C 11.34375 -6.828125 10.222656 -5.550781 8.703125 -4.65625 C 7.679688 -4.050781 6.597656 -3.671875 5.453125 -3.515625 C 4.316406 -3.367188 3.222656 -3.429688 2.171875 -3.703125 C 1.117188 -3.972656 0.128906 -4.453125 -0.796875 -5.140625 C -1.722656 -5.835938 -2.488281 -6.695312 -3.09375 -7.71875 C -3.875 -9.0625 -4.269531 -10.476562 -4.28125 -11.96875 C -4.300781 -13.457031 -3.941406 -14.851562 -3.203125 -16.15625 C -2.472656 -17.457031 -1.441406 -18.5 -0.109375 -19.28125 C 1.273438 -20.09375 2.75 -20.5 4.3125 -20.5 C 5.882812 -20.507812 7.328125 -20.109375 8.640625 -19.296875 C 9.285156 -18.878906 9.851562 -18.394531 10.34375 -17.84375 C 10.832031 -17.289062 11.351562 -16.546875 11.90625 -15.609375 Z M -1.734375 -9.890625 L 9.03125 -16.21875 C 7.882812 -17.425781 6.582031 -18.148438 5.125 -18.390625 C 3.675781 -18.628906 2.269531 -18.347656 0.90625 -17.546875 C -0.414062 -16.765625 -1.320312 -15.671875 -1.8125 -14.265625 C -2.300781 -12.859375 -2.273438 -11.398438 -1.734375 -9.890625 Z M -1.734375 -9.890625 "/></g></g></g><g fill="#000000" fill-opacity="1"><g transform="translate(167.179269, 136.308133)"><g/></g></g><g fill="#000000" fill-opacity="1"><g transform="translate(177.646509, 131.896043)"><g><path d="M 1.828125 -0.40625 C 1.828125 -0.40625 0.210938 -7.554688 -3.015625 -21.859375 C -3.015625 -21.859375 -2.289062 -22.023438 -0.84375 -22.359375 C -0.84375 -22.359375 -0.21875 -19.597656 1.03125 -14.078125 C 1.476562 -15.210938 2.175781 -16.171875 3.125 -16.953125 C 4.082031 -17.734375 5.226562 -18.273438 6.5625 -18.578125 C 7.71875 -18.835938 8.859375 -18.867188 9.984375 -18.671875 C 11.117188 -18.472656 12.140625 -18.085938 13.046875 -17.515625 C 13.953125 -16.953125 14.738281 -16.203125 15.40625 -15.265625 C 16.070312 -14.335938 16.535156 -13.296875 16.796875 -12.140625 C 17.148438 -10.578125 17.109375 -9.078125 16.671875 -7.640625 C 16.234375 -6.203125 15.457031 -4.976562 14.34375 -3.96875 C 13.226562 -2.96875 11.878906 -2.285156 10.296875 -1.921875 C 8.992188 -1.628906 7.738281 -1.632812 6.53125 -1.9375 C 5.320312 -2.238281 4.269531 -2.8125 3.375 -3.65625 L 4 -0.90625 Z M 6.875 -16.578125 C 5.113281 -16.179688 3.765625 -15.226562 2.828125 -13.71875 C 1.898438 -12.21875 1.640625 -10.570312 2.046875 -8.78125 C 2.441406 -7.019531 3.390625 -5.660156 4.890625 -4.703125 C 6.390625 -3.753906 8.019531 -3.476562 9.78125 -3.875 C 11.5625 -4.28125 12.914062 -5.226562 13.84375 -6.71875 C 14.769531 -8.207031 15.023438 -9.863281 14.609375 -11.6875 C 14.203125 -13.519531 13.265625 -14.894531 11.796875 -15.8125 C 10.335938 -16.726562 8.695312 -16.984375 6.875 -16.578125 Z M 6.875 -16.578125 "/></g></g></g><g fill="#000000" fill-opacity="1"><g transform="translate(200.124572, 127.112564)"><g><path d="M 18.234375 -16.546875 C 18.234375 -16.546875 18.3125 -11.117188 18.46875 -0.265625 C 18.46875 -0.265625 17.726562 -0.253906 16.25 -0.234375 C 16.25 -0.234375 16.234375 -1.1875 16.203125 -3.09375 C 15.367188 -1.925781 14.46875 -1.082031 13.5 -0.5625 C 12.539062 -0.0390625 11.375 0.226562 10 0.25 C 8.34375 0.269531 6.84375 -0.0703125 5.5 -0.78125 C 4.15625 -1.488281 3.097656 -2.484375 2.328125 -3.765625 C 1.554688 -5.054688 1.15625 -6.503906 1.125 -8.109375 C 1.101562 -9.722656 1.457031 -11.1875 2.1875 -12.5 C 2.914062 -13.820312 3.929688 -14.863281 5.234375 -15.625 C 6.535156 -16.394531 7.988281 -16.789062 9.59375 -16.8125 C 11.019531 -16.832031 12.242188 -16.59375 13.265625 -16.09375 C 14.296875 -15.59375 15.226562 -14.773438 16.0625 -13.640625 L 16.015625 -16.515625 Z M 9.59375 -14.796875 C 7.851562 -14.765625 6.375 -14.109375 5.15625 -12.828125 C 3.9375 -11.554688 3.34375 -10.023438 3.375 -8.234375 C 3.394531 -6.398438 4.046875 -4.859375 5.328125 -3.609375 C 6.609375 -2.367188 8.148438 -1.757812 9.953125 -1.78125 C 11.734375 -1.800781 13.210938 -2.445312 14.390625 -3.71875 C 15.578125 -5 16.15625 -6.566406 16.125 -8.421875 C 16.101562 -10.273438 15.46875 -11.804688 14.21875 -13.015625 C 12.976562 -14.222656 11.4375 -14.816406 9.59375 -14.796875 Z M 9.59375 -14.796875 "/></g></g></g><g fill="#000000" fill-opacity="1"><g transform="translate(223.468863, 127.48076)"><g><path d="M 1.859375 0.265625 C 1.859375 0.265625 2.644531 -5.101562 4.21875 -15.84375 C 4.21875 -15.84375 4.945312 -15.734375 6.40625 -15.515625 C 6.40625 -15.515625 6.296875 -14.75 6.078125 -13.21875 C 6.617188 -14.050781 7.28125 -14.625 8.0625 -14.9375 C 8.851562 -15.257812 9.84375 -15.359375 11.03125 -15.234375 L 10.71875 -13.078125 C 7.632812 -13.234375 5.867188 -11.8125 5.421875 -8.8125 C 5.421875 -8.8125 4.960938 -5.675781 4.046875 0.59375 C 4.046875 0.59375 3.316406 0.484375 1.859375 0.265625 Z M 1.859375 0.265625 "/></g></g></g></svg>