<svg xmlns="http://www.w3.org/2000/svg" xmlns:xlink="http://www.w3.org/1999/xlink" width="500" zoomAndPan="magnify" viewBox="0 0 375 374.999991" height="500" preserveAspectRatio="xMidYMid meet" version="1.0"><defs><g/><clipPath id="43f6a0e052"><path d="M 52.949219 44.960938 L 322.199219 44.960938 L 322.199219 191.960938 L 52.949219 191.960938 Z M 52.949219 44.960938 " clip-rule="nonzero"/></clipPath><clipPath id="431213b0ce"><path d="M 147 189 L 225 189 L 225 195.023438 L 147 195.023438 Z M 147 189 " clip-rule="nonzero"/></clipPath><clipPath id="fa00d77549"><path d="M 138.769531 193 L 236.269531 193 L 236.269531 195.023438 L 138.769531 195.023438 Z M 138.769531 193 " clip-rule="nonzero"/></clipPath><clipPath id="3ec413a602"><path d="M 181 111.023438 L 189 111.023438 L 189 139 L 181 139 Z M 181 111.023438 " clip-rule="nonzero"/></clipPath><clipPath id="0e423d5e8d"><path d="M 34.535156 264.101562 L 340.535156 264.101562 L 340.535156 330.101562 L 34.535156 330.101562 Z M 34.535156 264.101562 " clip-rule="nonzero"/></clipPath></defs><g clip-path="url(#43f6a0e052)"><path fill="#f5f5ef" d="M 187.578125 314.210938 C 113.34375 314.210938 52.949219 253.816406 52.949219 179.585938 C 52.949219 105.351562 113.34375 44.960938 187.578125 44.960938 C 261.808594 44.960938 322.199219 105.351562 322.199219 179.585938 C 322.199219 253.816406 261.808594 314.210938 187.578125 314.210938 Z M 187.578125 47.34375 C 114.660156 47.34375 55.335938 106.667969 55.335938 179.585938 C 55.335938 252.503906 114.660156 311.824219 187.578125 311.824219 C 260.492188 311.824219 319.8125 252.503906 319.8125 179.585938 C 319.8125 106.667969 260.492188 47.34375 187.578125 47.34375 Z M 187.578125 47.34375 " fill-opacity="1" fill-rule="nonzero"/></g><path fill="#f5f5ef" d="M 184.324219 160.871094 C 183.324219 160.871094 182.402344 161.105469 181.582031 161.574219 C 178.085938 163.5625 177.507812 169.171875 180.296875 174.074219 C 182.363281 177.707031 185.761719 180.054688 188.957031 180.054688 C 189.957031 180.054688 190.878906 179.820312 191.695312 179.351562 C 193.359375 178.40625 194.421875 176.605469 194.683594 174.285156 C 194.953125 171.894531 194.351562 169.257812 192.980469 166.851562 C 190.914062 163.21875 187.515625 160.871094 184.324219 160.871094 Z M 188.957031 181.226562 C 185.351562 181.226562 181.550781 178.648438 179.28125 174.652344 C 176.175781 169.191406 176.945312 162.867188 181.003906 160.558594 C 182.003906 159.988281 183.117188 159.699219 184.324219 159.699219 C 187.929688 159.699219 191.726562 162.28125 194 166.273438 C 195.488281 168.890625 196.144531 171.78125 195.84375 174.417969 C 195.539062 177.117188 194.269531 179.234375 192.273438 180.371094 C 191.277344 180.9375 190.160156 181.226562 188.957031 181.226562 " fill-opacity="1" fill-rule="nonzero"/><path fill="#f5f5ef" d="M 192.160156 180.019531 C 187.1875 176.597656 186.214844 173.882812 185.8125 168.71875 C 185.519531 164.992188 182.648438 162.636719 180.964844 161.566406 L 181.59375 160.582031 C 183.460938 161.769531 186.644531 164.394531 186.976562 168.625 C 187.375 173.707031 188.277344 175.925781 192.820312 179.058594 L 192.160156 180.019531 " fill-opacity="1" fill-rule="nonzero"/><path fill="#f5f5ef" d="M 173.21875 189.511719 L 198.621094 189.511719 C 208.023438 178.011719 210.226562 155.578125 210.550781 151.566406 L 161.292969 151.566406 C 161.617188 155.578125 163.820312 178.015625 173.21875 189.511719 Z M 199.171875 190.679688 L 172.671875 190.679688 L 172.496094 190.46875 C 161.796875 177.664062 160.144531 152.097656 160.078125 151.015625 L 160.042969 150.394531 L 211.800781 150.394531 L 211.765625 151.015625 C 211.699219 152.097656 210.042969 177.664062 199.347656 190.46875 L 199.171875 190.679688 " fill-opacity="1" fill-rule="nonzero"/><g clip-path="url(#431213b0ce)"><path fill="#f5f5ef" d="M 156.425781 193.863281 L 212.863281 193.863281 C 217.1875 193.863281 220.222656 191.90625 221.699219 190.679688 L 150.121094 190.679688 C 152.402344 192.546875 155.863281 193.683594 156.425781 193.863281 Z M 212.863281 195.03125 L 156.253906 195.03125 L 156.171875 195.007812 C 155.949219 194.941406 150.695312 193.355469 148.234375 190.476562 L 147.40625 189.511719 L 224.429688 189.511719 L 223.609375 190.476562 C 223.453125 190.660156 219.660156 195.03125 212.863281 195.03125 " fill-opacity="1" fill-rule="nonzero"/></g><path fill="#f5f5ef" d="M 210.113281 180.207031 C 209.042969 180.207031 207.953125 180.027344 206.890625 179.652344 C 206.269531 179.4375 205.679688 179.160156 205.125 178.828125 L 205.425781 178.328125 L 205.421875 177.742188 L 205.585938 177.742188 L 205.726562 177.824219 C 206.214844 178.117188 206.734375 178.359375 207.277344 178.550781 C 211.738281 180.121094 216.644531 177.765625 218.214844 173.300781 C 219.785156 168.835938 217.429688 163.929688 212.964844 162.359375 C 211.972656 162.007812 210.949219 161.84375 209.910156 161.871094 L 209.882812 160.703125 C 211.058594 160.675781 212.226562 160.859375 213.355469 161.253906 C 218.425781 163.039062 221.101562 168.617188 219.320312 173.6875 C 217.910156 177.695312 214.132812 180.207031 210.113281 180.207031 " fill-opacity="1" fill-rule="nonzero"/><path fill="#f5f5ef" d="M 211 183.632812 C 209.847656 183.632812 208.703125 183.4375 207.597656 183.050781 C 206.308594 182.59375 205.144531 181.898438 204.132812 180.980469 L 204.921875 180.117188 C 205.816406 180.929688 206.847656 181.542969 207.988281 181.945312 C 210.585938 182.859375 213.449219 182.546875 216.046875 181.0625 C 218.675781 179.558594 220.714844 177.042969 221.789062 173.980469 C 224 167.691406 221.40625 161.027344 216.011719 159.128906 C 214.265625 158.515625 212.359375 158.457031 210.507812 158.953125 L 210.203125 157.824219 C 212.285156 157.261719 214.425781 157.332031 216.398438 158.023438 C 222.402344 160.136719 225.316406 167.46875 222.890625 174.371094 C 221.722656 177.699219 219.5 180.433594 216.628906 182.078125 C 214.824219 183.109375 212.902344 183.632812 211 183.632812 " fill-opacity="1" fill-rule="nonzero"/><g clip-path="url(#fa00d77549)"><path fill="#f5f5ef" d="M 236.183594 195.03125 L 138.847656 195.03125 L 138.847656 193.863281 L 236.183594 193.863281 L 236.183594 195.03125 " fill-opacity="1" fill-rule="nonzero"/></g><path fill="#f5f5ef" d="M 177.121094 146 L 176.257812 145.210938 C 181.6875 139.242188 176.28125 132.007812 176.226562 131.933594 C 170.710938 124.394531 176.214844 118.5625 176.269531 118.503906 L 177.113281 119.320312 C 176.910156 119.527344 172.25 124.515625 177.160156 131.234375 C 177.214844 131.304688 183.203125 139.316406 177.121094 146 " fill-opacity="1" fill-rule="nonzero"/><g clip-path="url(#3ec413a602)"><path fill="#f5f5ef" d="M 185.289062 138.53125 L 184.425781 137.742188 C 189.84375 131.785156 184.617188 124.757812 184.390625 124.460938 C 178.878906 116.925781 184.378906 111.09375 184.4375 111.035156 L 185.277344 111.847656 C 185.078125 112.058594 180.417969 117.046875 185.328125 123.761719 C 185.382812 123.832031 191.371094 131.84375 185.289062 138.53125 " fill-opacity="1" fill-rule="nonzero"/></g><path fill="#f5f5ef" d="M 195.574219 145.160156 L 194.707031 144.371094 C 200.128906 138.414062 194.902344 131.386719 194.675781 131.089844 C 189.164062 123.554688 194.664062 117.722656 194.71875 117.664062 L 195.5625 118.476562 L 195.140625 118.070312 L 195.5625 118.476562 C 195.359375 118.6875 190.703125 123.675781 195.613281 130.390625 C 195.664062 130.460938 201.652344 138.472656 195.574219 145.160156 " fill-opacity="1" fill-rule="nonzero"/><g clip-path="url(#0e423d5e8d)"><path fill="#f5f5ef" d="M 187.535156 330.113281 C 103.171875 330.113281 34.535156 261.476562 34.535156 177.113281 C 34.535156 92.75 103.171875 24.113281 187.535156 24.113281 C 271.898438 24.113281 340.535156 92.75 340.535156 177.113281 C 340.535156 261.476562 271.898438 330.113281 187.535156 330.113281 Z M 187.535156 26.824219 C 104.667969 26.824219 37.246094 94.242188 37.246094 177.113281 C 37.246094 259.980469 104.667969 327.398438 187.535156 327.398438 C 270.40625 327.398438 337.824219 259.980469 337.824219 177.113281 C 337.824219 94.242188 270.40625 26.824219 187.535156 26.824219 Z M 187.535156 26.824219 " fill-opacity="1" fill-rule="nonzero"/></g><g fill="#000000" fill-opacity="1"><g transform="translate(95.697134, 144.785952)"><g><path d="M -9.234375 -10.921875 C -8.640625 -12.421875 -7.816406 -13.453125 -6.765625 -14.015625 C -5.722656 -14.585938 -4.578125 -14.628906 -3.328125 -14.140625 C -2.078125 -13.640625 -1.265625 -12.828125 -0.890625 -11.703125 C -0.515625 -10.578125 -0.625 -9.265625 -1.21875 -7.765625 L -2.453125 -4.625 L 1.25 -3.15625 L 0.75 -1.90625 L -10.96875 -6.53125 Z M -2.3125 -8.15625 C -1.851562 -9.3125 -1.753906 -10.296875 -2.015625 -11.109375 C -2.285156 -11.921875 -2.882812 -12.515625 -3.8125 -12.890625 C -4.757812 -13.265625 -5.609375 -13.242188 -6.359375 -12.828125 C -7.117188 -12.410156 -7.726562 -11.625 -8.1875 -10.46875 L -9.40625 -7.359375 L -3.53125 -5.046875 Z M -2.3125 -8.15625 "/></g></g></g><g fill="#000000" fill-opacity="1"><g transform="translate(102.502571, 128.69053)"><g><path d="M 5.65625 -9.03125 L 0.6875 -8.734375 C 0.550781 -8.453125 0.390625 -8.160156 0.203125 -7.859375 L -1.59375 -5 L 1.796875 -2.875 L 1.09375 -1.734375 L -9.578125 -8.421875 L -7.078125 -12.421875 C -6.222656 -13.785156 -5.226562 -14.648438 -4.09375 -15.015625 C -2.96875 -15.390625 -1.832031 -15.21875 -0.6875 -14.5 C 0.144531 -13.976562 0.710938 -13.320312 1.015625 -12.53125 C 1.328125 -11.75 1.367188 -10.882812 1.140625 -9.9375 L 6.421875 -10.265625 Z M -0.765625 -8.421875 C -0.109375 -9.484375 0.15625 -10.4375 0.03125 -11.28125 C -0.0820312 -12.132812 -0.5625 -12.828125 -1.40625 -13.359375 C -2.269531 -13.898438 -3.109375 -14.035156 -3.921875 -13.765625 C -4.734375 -13.503906 -5.46875 -12.84375 -6.125 -11.78125 L -7.90625 -8.953125 L -2.546875 -5.59375 Z M -0.765625 -8.421875 "/></g></g></g><g fill="#000000" fill-opacity="1"><g transform="translate(112.214941, 114.029768)"><g><path d="M 6.515625 -8.890625 L 7.375 -8.109375 L 1.375 -1.515625 L -7.9375 -9.984375 L -2.125 -16.375 L -1.28125 -15.609375 L -6.1875 -10.21875 L -2.875 -7.203125 L 1.515625 -12.015625 L 2.359375 -11.25 L -2.03125 -6.4375 L 1.421875 -3.296875 Z M 6.515625 -8.890625 "/></g></g></g><g fill="#000000" fill-opacity="1"><g transform="translate(123.478747, 101.929697)"><g><path d="M 4.75 -19.109375 L 12.203125 -8.953125 L 11.171875 -8.203125 L 5.203125 -16.328125 L 6.21875 -6.5625 L 5.71875 -6.203125 L -3.25 -10.046875 L 2.6875 -1.96875 L 1.65625 -1.21875 L -5.796875 -11.375 L -4.90625 -12.03125 L 5.015625 -7.734375 L 3.875 -18.46875 Z M 4.75 -19.109375 "/></g></g></g><g fill="#000000" fill-opacity="1"><g transform="translate(141.55528, 89.743087)"><g><path d="M -3.84375 -12.171875 L -2.640625 -12.78125 L 3.03125 -1.53125 L 1.828125 -0.921875 Z M -3.84375 -12.171875 "/></g></g></g><g fill="#000000" fill-opacity="1"><g transform="translate(150.653321, 85.189388)"><g><path d="M 6.8125 -2.09375 C 5.257812 -1.59375 3.90625 -1.644531 2.75 -2.25 C 1.59375 -2.863281 0.738281 -4.015625 0.1875 -5.703125 L -2.046875 -12.578125 L -0.765625 -13 L 1.4375 -6.1875 C 1.894531 -4.789062 2.546875 -3.851562 3.390625 -3.375 C 4.242188 -2.894531 5.265625 -2.847656 6.453125 -3.234375 C 7.648438 -3.617188 8.453125 -4.253906 8.859375 -5.140625 C 9.265625 -6.035156 9.238281 -7.179688 8.78125 -8.578125 L 6.578125 -15.390625 L 7.796875 -15.78125 L 10.03125 -8.90625 C 10.582031 -7.21875 10.570312 -5.785156 10 -4.609375 C 9.425781 -3.441406 8.363281 -2.601562 6.8125 -2.09375 Z M 6.8125 -2.09375 "/></g></g></g><g fill="#000000" fill-opacity="1"><g transform="translate(168.513199, 79.710605)"><g><path d="M 13.75 -14.109375 L 15.0625 -1.578125 L 13.78125 -1.4375 L 12.734375 -11.46875 L 8.6875 -2.515625 L 8.0625 -2.453125 L 2.265625 -10.328125 L 3.3125 -0.34375 L 2.03125 -0.21875 L 0.71875 -12.75 L 1.828125 -12.859375 L 8.234375 -4.140625 L 12.65625 -13.984375 Z M 13.75 -14.109375 "/></g></g></g><g fill="#000000" fill-opacity="1"><g transform="translate(190.289188, 78.328825)"><g/></g></g><g fill="#000000" fill-opacity="1"><g transform="translate(199.730281, 78.853098)"><g><path d="M 14.1875 4.125 C 13.71875 4.507812 13.195312 4.765625 12.625 4.890625 C 12.0625 5.023438 11.484375 5.023438 10.890625 4.890625 C 10.160156 4.734375 9.507812 4.40625 8.9375 3.90625 C 8.363281 3.414062 7.765625 2.664062 7.140625 1.65625 C 5.960938 1.351562 4.957031 0.820312 4.125 0.0625 C 3.289062 -0.6875 2.707031 -1.585938 2.375 -2.640625 C 2.039062 -3.691406 2 -4.796875 2.25 -5.953125 C 2.5 -7.140625 3.003906 -8.144531 3.765625 -8.96875 C 4.523438 -9.800781 5.457031 -10.382812 6.5625 -10.71875 C 7.675781 -11.050781 8.84375 -11.085938 10.0625 -10.828125 C 11.28125 -10.566406 12.320312 -10.054688 13.1875 -9.296875 C 14.050781 -8.546875 14.660156 -7.632812 15.015625 -6.5625 C 15.378906 -5.488281 15.4375 -4.359375 15.1875 -3.171875 C 14.96875 -2.140625 14.550781 -1.238281 13.9375 -0.46875 C 13.320312 0.300781 12.566406 0.882812 11.671875 1.28125 C 10.773438 1.6875 9.804688 1.882812 8.765625 1.875 C 9.460938 3.007812 10.253906 3.675781 11.140625 3.875 C 12.054688 4.070312 12.914062 3.863281 13.71875 3.25 Z M 3.53125 -5.6875 C 3.320312 -4.726562 3.359375 -3.8125 3.640625 -2.9375 C 3.929688 -2.0625 4.421875 -1.3125 5.109375 -0.6875 C 5.804688 -0.0703125 6.644531 0.335938 7.625 0.546875 C 8.59375 0.753906 9.519531 0.71875 10.40625 0.4375 C 11.289062 0.15625 12.035156 -0.320312 12.640625 -1 C 13.253906 -1.675781 13.664062 -2.492188 13.875 -3.453125 C 14.082031 -4.421875 14.046875 -5.335938 13.765625 -6.203125 C 13.492188 -7.078125 13.007812 -7.816406 12.3125 -8.421875 C 11.613281 -9.035156 10.78125 -9.445312 9.8125 -9.65625 C 8.832031 -9.863281 7.898438 -9.832031 7.015625 -9.5625 C 6.140625 -9.289062 5.390625 -8.816406 4.765625 -8.140625 C 4.148438 -7.472656 3.738281 -6.65625 3.53125 -5.6875 Z M 3.53125 -5.6875 "/></g></g></g><g fill="#000000" fill-opacity="1"><g transform="translate(218.746183, 83.446761)"><g><path d="M 6.484375 2.953125 C 4.992188 2.296875 4.015625 1.351562 3.546875 0.125 C 3.085938 -1.09375 3.21875 -2.515625 3.9375 -4.140625 L 6.828125 -10.765625 L 8.046875 -10.234375 L 5.171875 -3.671875 C 4.585938 -2.328125 4.453125 -1.191406 4.765625 -0.265625 C 5.085938 0.660156 5.820312 1.375 6.96875 1.875 C 8.125 2.375 9.144531 2.425781 10.03125 2.03125 C 10.925781 1.632812 11.664062 0.765625 12.25 -0.578125 L 15.125 -7.140625 L 16.3125 -6.625 L 13.421875 0 C 12.703125 1.625 11.738281 2.679688 10.53125 3.171875 C 9.332031 3.671875 7.984375 3.597656 6.484375 2.953125 Z M 6.484375 2.953125 "/></g></g></g><g fill="#000000" fill-opacity="1"><g transform="translate(235.744443, 91.410983)"><g><path d="M 10.109375 2.859375 L 4.328125 -1.109375 L 1.171875 0.796875 L 0.03125 0.015625 L 11.90625 -7.109375 L 12.984375 -6.375 L 10.625 7.28125 L 9.453125 6.484375 Z M 10.328125 1.6875 L 11.65625 -5.609375 L 5.34375 -1.734375 Z M 10.328125 1.6875 "/></g></g></g><g fill="#000000" fill-opacity="1"><g transform="translate(249.903813, 101.721626)"><g><path d="M 10.25 -7.59375 L 11.203125 -6.65625 L 3.234375 1.53125 L 8.296875 6.453125 L 7.484375 7.28125 L 1.46875 1.421875 Z M 10.25 -7.59375 "/></g></g></g><g fill="#000000" fill-opacity="1"><g transform="translate(260.590776, 112.825023)"><g><path d="M 11.1875 -6.15625 L 12.015625 -5.09375 L 2.09375 2.671875 L 1.265625 1.609375 Z M 11.1875 -6.15625 "/></g></g></g><g fill="#000000" fill-opacity="1"><g transform="translate(266.796045, 121.004931)"><g><path d="M 12.15625 -1.921875 L 9.921875 -5.734375 L 10.90625 -6.3125 L 16.0625 2.46875 L 15.078125 3.046875 L 12.828125 -0.765625 L 2.953125 5.03125 L 2.28125 3.875 Z M 12.15625 -1.921875 "/></g></g></g><g fill="#000000" fill-opacity="1"><g transform="translate(274.106331, 134.097861)"><g><path d="M 6.359375 4.375 L 2.296875 5.953125 L 1.828125 4.71875 L 5.890625 3.140625 L 11.75 -4.53125 L 12.265625 -3.203125 L 7.234375 3.375 L 15.390625 4.859375 L 15.859375 6.09375 Z M 6.359375 4.375 "/></g></g></g><g fill="#bfb290" fill-opacity="0.4"><g transform="translate(64.872511, 249.765908)"><g><path d="M 11.515625 0.59375 C 7.898438 0.59375 5.359375 -1.039062 3.890625 -4.3125 C 2.421875 -7.59375 1.6875 -11.628906 1.6875 -16.421875 C 1.6875 -18.992188 2.019531 -21.46875 2.6875 -23.84375 C 3.363281 -26.226562 4.445312 -28.195312 5.9375 -29.75 C 7.4375 -31.3125 9.335938 -32.09375 11.640625 -32.09375 C 13.398438 -32.09375 14.941406 -31.546875 16.265625 -30.453125 C 17.597656 -29.359375 18.617188 -27.9375 19.328125 -26.1875 C 20.046875 -24.4375 20.40625 -22.609375 20.40625 -20.703125 L 14.453125 -20.40625 C 14.453125 -21.664062 14.238281 -23.097656 13.8125 -24.703125 C 13.394531 -26.316406 12.554688 -27.125 11.296875 -27.125 C 9.984375 -27.125 9.070312 -26.070312 8.5625 -23.96875 C 8.0625 -21.875 7.8125 -19.359375 7.8125 -16.421875 C 7.8125 -12.785156 8.085938 -9.867188 8.640625 -7.671875 C 9.203125 -5.472656 10.285156 -4.375 11.890625 -4.375 C 13.003906 -4.375 13.800781 -5.035156 14.28125 -6.359375 C 14.757812 -7.691406 15.066406 -9.3125 15.203125 -11.21875 L 20.453125 -10.703125 C 20.453125 -8.691406 20.113281 -6.820312 19.4375 -5.09375 C 18.769531 -3.375 17.765625 -1.992188 16.421875 -0.953125 C 15.078125 0.078125 13.441406 0.59375 11.515625 0.59375 Z M 11.515625 0.59375 "/></g></g></g><g fill="#bfb290" fill-opacity="0.4"><g transform="translate(88.980504, 249.765908)"><g><path d="M 11.421875 0.59375 C 7.867188 0.59375 5.367188 -0.9375 3.921875 -4 C 2.484375 -7.070312 1.765625 -11.046875 1.765625 -15.921875 C 1.765625 -21.097656 2.535156 -25.085938 4.078125 -27.890625 C 5.617188 -30.691406 8.097656 -32.09375 11.515625 -32.09375 C 18.035156 -32.09375 21.296875 -26.757812 21.296875 -16.09375 C 21.296875 -11.300781 20.5625 -7.320312 19.09375 -4.15625 C 17.625 -0.988281 15.066406 0.59375 11.421875 0.59375 Z M 11.515625 -4.375 C 12.992188 -4.375 13.96875 -5.34375 14.4375 -7.28125 C 14.914062 -9.226562 15.15625 -12.175781 15.15625 -16.125 C 15.15625 -19.289062 14.925781 -21.914062 14.46875 -24 C 14.007812 -26.082031 13.023438 -27.125 11.515625 -27.125 C 9.992188 -27.125 9.007812 -26.085938 8.5625 -24.015625 C 8.113281 -21.953125 7.890625 -19.335938 7.890625 -16.171875 C 7.890625 -12.191406 8.117188 -9.226562 8.578125 -7.28125 C 9.046875 -5.34375 10.023438 -4.375 11.515625 -4.375 Z M 11.515625 -4.375 "/></g></g></g><g fill="#bfb290" fill-opacity="0.4"><g transform="translate(114.222504, 249.765908)"><g><path d="M 2.9375 0.25 L 2.9375 -31.5 L 18.9375 -31.5 L 18.4375 -26.546875 L 9.109375 -26.546875 L 9.109375 -18.3125 L 15.703125 -18.3125 L 15.703125 -13.109375 L 9.109375 -13.109375 L 9.109375 -0.25 Z M 2.9375 0.25 "/></g></g></g><g fill="#bfb290" fill-opacity="0.4"><g transform="translate(135.7265, 249.765908)"><g><path d="M 2.9375 0.25 L 2.9375 -31.5 L 18.9375 -31.5 L 18.4375 -26.546875 L 9.109375 -26.546875 L 9.109375 -18.3125 L 15.703125 -18.3125 L 15.703125 -13.109375 L 9.109375 -13.109375 L 9.109375 -0.25 Z M 2.9375 0.25 "/></g></g></g><g fill="#bfb290" fill-opacity="0.4"><g transform="translate(157.230497, 249.765908)"><g><path d="M 2.9375 0 L 2.9375 -31.5 L 18.9375 -31.5 L 18.4375 -26.59375 L 9.109375 -26.59375 L 9.109375 -19.0625 L 15.75 -19.0625 L 15.703125 -13.78125 L 9.109375 -13.78125 L 9.109375 -4.90625 L 19.28125 -4.90625 L 18.78125 0 Z M 2.9375 0 "/></g></g></g><g fill="#bfb290" fill-opacity="0.4"><g transform="translate(179.700494, 249.765908)"><g><path d="M 2.9375 0 L 2.9375 -31.5 L 18.9375 -31.5 L 18.4375 -26.59375 L 9.109375 -26.59375 L 9.109375 -19.0625 L 15.75 -19.0625 L 15.703125 -13.78125 L 9.109375 -13.78125 L 9.109375 -4.90625 L 19.28125 -4.90625 L 18.78125 0 Z M 2.9375 0 "/></g></g></g><g fill="#bfb290" fill-opacity="0.4"><g transform="translate(202.170498, 249.765908)"><g/></g></g><g fill="#bfb290" fill-opacity="0.4"><g transform="translate(214.6025, 249.765908)"><g><path d="M 11.25 0.59375 C 8.707031 0.59375 6.5625 -0.113281 4.8125 -1.53125 C 3.0625 -2.945312 1.78125 -4.84375 0.96875 -7.21875 L 6.171875 -9.65625 L 6.671875 -8.8125 C 7.484375 -7.414062 8.257812 -6.328125 9 -5.546875 C 9.75 -4.765625 10.679688 -4.375 11.796875 -4.375 C 12.523438 -4.375 13.175781 -4.722656 13.75 -5.421875 C 14.320312 -6.117188 14.609375 -6.890625 14.609375 -7.734375 C 14.609375 -8.515625 14.410156 -9.226562 14.015625 -9.875 C 13.628906 -10.519531 13.128906 -11.035156 12.515625 -11.421875 L 7.015625 -14.703125 C 5.421875 -15.597656 4.144531 -16.726562 3.1875 -18.09375 C 2.238281 -19.46875 1.765625 -21.007812 1.765625 -22.71875 C 1.765625 -24.539062 2.191406 -26.164062 3.046875 -27.59375 C 3.898438 -29.019531 5.0625 -30.125 6.53125 -30.90625 C 8 -31.695312 9.660156 -32.09375 11.515625 -32.09375 C 13.660156 -32.09375 15.488281 -31.554688 17 -30.484375 C 18.519531 -29.421875 19.644531 -27.84375 20.375 -25.75 L 15.15625 -23.390625 C 15.050781 -23.617188 14.816406 -24.125 14.453125 -24.90625 C 14.085938 -25.6875 13.644531 -26.25 13.125 -26.59375 C 12.601562 -26.945312 11.96875 -27.125 11.21875 -27.125 C 10.289062 -27.125 9.582031 -26.832031 9.09375 -26.25 C 8.601562 -25.664062 8.359375 -24.910156 8.359375 -23.984375 C 8.359375 -23.304688 8.546875 -22.695312 8.921875 -22.15625 C 9.296875 -21.613281 9.753906 -21.1875 10.296875 -20.875 L 15.375 -17.890625 C 19.125 -15.765625 21.097656 -12.960938 21.296875 -9.484375 C 21.296875 -7.503906 20.851562 -5.75 19.96875 -4.21875 C 19.082031 -2.695312 17.875 -1.515625 16.34375 -0.671875 C 14.820312 0.171875 13.125 0.59375 11.25 0.59375 Z M 11.25 0.59375 "/></g></g></g><g fill="#bfb290" fill-opacity="0.4"><g transform="translate(239.172495, 249.765908)"><g><path d="M 2.9375 0.25 L 2.9375 -31 L 9.109375 -31.5 L 9.109375 -18.734375 L 15 -18.734375 L 15 -31 L 21.171875 -31.5 L 21.171875 -0.25 L 15 0.25 L 15 -13.109375 L 9.109375 -13.109375 L 9.109375 -0.25 Z M 2.9375 0.25 "/></g></g></g><g fill="#bfb290" fill-opacity="0.4"><g transform="translate(265.464493, 249.765908)"><g><path d="M 11.421875 0.59375 C 7.867188 0.59375 5.367188 -0.9375 3.921875 -4 C 2.484375 -7.070312 1.765625 -11.046875 1.765625 -15.921875 C 1.765625 -21.097656 2.535156 -25.085938 4.078125 -27.890625 C 5.617188 -30.691406 8.097656 -32.09375 11.515625 -32.09375 C 18.035156 -32.09375 21.296875 -26.757812 21.296875 -16.09375 C 21.296875 -11.300781 20.5625 -7.320312 19.09375 -4.15625 C 17.625 -0.988281 15.066406 0.59375 11.421875 0.59375 Z M 11.515625 -4.375 C 12.992188 -4.375 13.96875 -5.34375 14.4375 -7.28125 C 14.914062 -9.226562 15.15625 -12.175781 15.15625 -16.125 C 15.15625 -19.289062 14.925781 -21.914062 14.46875 -24 C 14.007812 -26.082031 13.023438 -27.125 11.515625 -27.125 C 9.992188 -27.125 9.007812 -26.085938 8.5625 -24.015625 C 8.113281 -21.953125 7.890625 -19.335938 7.890625 -16.171875 C 7.890625 -12.191406 8.117188 -9.226562 8.578125 -7.28125 C 9.046875 -5.34375 10.023438 -4.375 11.515625 -4.375 Z M 11.515625 -4.375 "/></g></g></g><g fill="#bfb290" fill-opacity="0.4"><g transform="translate(290.706496, 249.765908)"><g><path d="M 2.9375 -31.5 L 6.890625 -31.5 C 10.054688 -31.5 12.578125 -31.363281 14.453125 -31.09375 C 16.328125 -30.832031 17.984375 -30.015625 19.421875 -28.640625 C 20.867188 -27.273438 21.59375 -25.078125 21.59375 -22.046875 C 21.59375 -19.304688 20.984375 -17.226562 19.765625 -15.8125 C 18.546875 -14.394531 17.046875 -13.46875 15.265625 -13.03125 C 13.484375 -12.601562 11.429688 -12.390625 9.109375 -12.390625 L 9.109375 -0.25 L 2.9375 0.25 Z M 10.203125 -17.390625 C 11.828125 -17.390625 13.109375 -17.722656 14.046875 -18.390625 C 14.984375 -19.066406 15.453125 -20.300781 15.453125 -22.09375 C 15.453125 -23.851562 15.019531 -25.039062 14.15625 -25.65625 C 13.289062 -26.28125 11.914062 -26.59375 10.03125 -26.59375 L 9.15625 -26.59375 L 9.15625 -17.390625 Z M 10.203125 -17.390625 "/></g></g></g><g fill="#f5f5ef" fill-opacity="1"><g transform="translate(63.016356, 247.909745)"><g><path d="M 11.515625 0.59375 C 7.898438 0.59375 5.359375 -1.039062 3.890625 -4.3125 C 2.421875 -7.59375 1.6875 -11.628906 1.6875 -16.421875 C 1.6875 -18.992188 2.019531 -21.46875 2.6875 -23.84375 C 3.363281 -26.226562 4.445312 -28.195312 5.9375 -29.75 C 7.4375 -31.3125 9.335938 -32.09375 11.640625 -32.09375 C 13.398438 -32.09375 14.941406 -31.546875 16.265625 -30.453125 C 17.597656 -29.359375 18.617188 -27.9375 19.328125 -26.1875 C 20.046875 -24.4375 20.40625 -22.609375 20.40625 -20.703125 L 14.453125 -20.40625 C 14.453125 -21.664062 14.238281 -23.097656 13.8125 -24.703125 C 13.394531 -26.316406 12.554688 -27.125 11.296875 -27.125 C 9.984375 -27.125 9.070312 -26.070312 8.5625 -23.96875 C 8.0625 -21.875 7.8125 -19.359375 7.8125 -16.421875 C 7.8125 -12.785156 8.085938 -9.867188 8.640625 -7.671875 C 9.203125 -5.472656 10.285156 -4.375 11.890625 -4.375 C 13.003906 -4.375 13.800781 -5.035156 14.28125 -6.359375 C 14.757812 -7.691406 15.066406 -9.3125 15.203125 -11.21875 L 20.453125 -10.703125 C 20.453125 -8.691406 20.113281 -6.820312 19.4375 -5.09375 C 18.769531 -3.375 17.765625 -1.992188 16.421875 -0.953125 C 15.078125 0.078125 13.441406 0.59375 11.515625 0.59375 Z M 11.515625 0.59375 "/></g></g></g><g fill="#f5f5ef" fill-opacity="1"><g transform="translate(87.124349, 247.909745)"><g><path d="M 11.421875 0.59375 C 7.867188 0.59375 5.367188 -0.9375 3.921875 -4 C 2.484375 -7.070312 1.765625 -11.046875 1.765625 -15.921875 C 1.765625 -21.097656 2.535156 -25.085938 4.078125 -27.890625 C 5.617188 -30.691406 8.097656 -32.09375 11.515625 -32.09375 C 18.035156 -32.09375 21.296875 -26.757812 21.296875 -16.09375 C 21.296875 -11.300781 20.5625 -7.320312 19.09375 -4.15625 C 17.625 -0.988281 15.066406 0.59375 11.421875 0.59375 Z M 11.515625 -4.375 C 12.992188 -4.375 13.96875 -5.34375 14.4375 -7.28125 C 14.914062 -9.226562 15.15625 -12.175781 15.15625 -16.125 C 15.15625 -19.289062 14.925781 -21.914062 14.46875 -24 C 14.007812 -26.082031 13.023438 -27.125 11.515625 -27.125 C 9.992188 -27.125 9.007812 -26.085938 8.5625 -24.015625 C 8.113281 -21.953125 7.890625 -19.335938 7.890625 -16.171875 C 7.890625 -12.191406 8.117188 -9.226562 8.578125 -7.28125 C 9.046875 -5.34375 10.023438 -4.375 11.515625 -4.375 Z M 11.515625 -4.375 "/></g></g></g><g fill="#f5f5ef" fill-opacity="1"><g transform="translate(112.366349, 247.909745)"><g><path d="M 2.9375 0.25 L 2.9375 -31.5 L 18.9375 -31.5 L 18.4375 -26.546875 L 9.109375 -26.546875 L 9.109375 -18.3125 L 15.703125 -18.3125 L 15.703125 -13.109375 L 9.109375 -13.109375 L 9.109375 -0.25 Z M 2.9375 0.25 "/></g></g></g><g fill="#f5f5ef" fill-opacity="1"><g transform="translate(133.870345, 247.909745)"><g><path d="M 2.9375 0.25 L 2.9375 -31.5 L 18.9375 -31.5 L 18.4375 -26.546875 L 9.109375 -26.546875 L 9.109375 -18.3125 L 15.703125 -18.3125 L 15.703125 -13.109375 L 9.109375 -13.109375 L 9.109375 -0.25 Z M 2.9375 0.25 "/></g></g></g><g fill="#f5f5ef" fill-opacity="1"><g transform="translate(155.374341, 247.909745)"><g><path d="M 2.9375 0 L 2.9375 -31.5 L 18.9375 -31.5 L 18.4375 -26.59375 L 9.109375 -26.59375 L 9.109375 -19.0625 L 15.75 -19.0625 L 15.703125 -13.78125 L 9.109375 -13.78125 L 9.109375 -4.90625 L 19.28125 -4.90625 L 18.78125 0 Z M 2.9375 0 "/></g></g></g><g fill="#f5f5ef" fill-opacity="1"><g transform="translate(177.844339, 247.909745)"><g><path d="M 2.9375 0 L 2.9375 -31.5 L 18.9375 -31.5 L 18.4375 -26.59375 L 9.109375 -26.59375 L 9.109375 -19.0625 L 15.75 -19.0625 L 15.703125 -13.78125 L 9.109375 -13.78125 L 9.109375 -4.90625 L 19.28125 -4.90625 L 18.78125 0 Z M 2.9375 0 "/></g></g></g><g fill="#f5f5ef" fill-opacity="1"><g transform="translate(200.314343, 247.909745)"><g/></g></g><g fill="#f5f5ef" fill-opacity="1"><g transform="translate(212.746345, 247.909745)"><g><path d="M 11.25 0.59375 C 8.707031 0.59375 6.5625 -0.113281 4.8125 -1.53125 C 3.0625 -2.945312 1.78125 -4.84375 0.96875 -7.21875 L 6.171875 -9.65625 L 6.671875 -8.8125 C 7.484375 -7.414062 8.257812 -6.328125 9 -5.546875 C 9.75 -4.765625 10.679688 -4.375 11.796875 -4.375 C 12.523438 -4.375 13.175781 -4.722656 13.75 -5.421875 C 14.320312 -6.117188 14.609375 -6.890625 14.609375 -7.734375 C 14.609375 -8.515625 14.410156 -9.226562 14.015625 -9.875 C 13.628906 -10.519531 13.128906 -11.035156 12.515625 -11.421875 L 7.015625 -14.703125 C 5.421875 -15.597656 4.144531 -16.726562 3.1875 -18.09375 C 2.238281 -19.46875 1.765625 -21.007812 1.765625 -22.71875 C 1.765625 -24.539062 2.191406 -26.164062 3.046875 -27.59375 C 3.898438 -29.019531 5.0625 -30.125 6.53125 -30.90625 C 8 -31.695312 9.660156 -32.09375 11.515625 -32.09375 C 13.660156 -32.09375 15.488281 -31.554688 17 -30.484375 C 18.519531 -29.421875 19.644531 -27.84375 20.375 -25.75 L 15.15625 -23.390625 C 15.050781 -23.617188 14.816406 -24.125 14.453125 -24.90625 C 14.085938 -25.6875 13.644531 -26.25 13.125 -26.59375 C 12.601562 -26.945312 11.96875 -27.125 11.21875 -27.125 C 10.289062 -27.125 9.582031 -26.832031 9.09375 -26.25 C 8.601562 -25.664062 8.359375 -24.910156 8.359375 -23.984375 C 8.359375 -23.304688 8.546875 -22.695312 8.921875 -22.15625 C 9.296875 -21.613281 9.753906 -21.1875 10.296875 -20.875 L 15.375 -17.890625 C 19.125 -15.765625 21.097656 -12.960938 21.296875 -9.484375 C 21.296875 -7.503906 20.851562 -5.75 19.96875 -4.21875 C 19.082031 -2.695312 17.875 -1.515625 16.34375 -0.671875 C 14.820312 0.171875 13.125 0.59375 11.25 0.59375 Z M 11.25 0.59375 "/></g></g></g><g fill="#f5f5ef" fill-opacity="1"><g transform="translate(237.31634, 247.909745)"><g><path d="M 2.9375 0.25 L 2.9375 -31 L 9.109375 -31.5 L 9.109375 -18.734375 L 15 -18.734375 L 15 -31 L 21.171875 -31.5 L 21.171875 -0.25 L 15 0.25 L 15 -13.109375 L 9.109375 -13.109375 L 9.109375 -0.25 Z M 2.9375 0.25 "/></g></g></g><g fill="#f5f5ef" fill-opacity="1"><g transform="translate(263.608338, 247.909745)"><g><path d="M 11.421875 0.59375 C 7.867188 0.59375 5.367188 -0.9375 3.921875 -4 C 2.484375 -7.070312 1.765625 -11.046875 1.765625 -15.921875 C 1.765625 -21.097656 2.535156 -25.085938 4.078125 -27.890625 C 5.617188 -30.691406 8.097656 -32.09375 11.515625 -32.09375 C 18.035156 -32.09375 21.296875 -26.757812 21.296875 -16.09375 C 21.296875 -11.300781 20.5625 -7.320312 19.09375 -4.15625 C 17.625 -0.988281 15.066406 0.59375 11.421875 0.59375 Z M 11.515625 -4.375 C 12.992188 -4.375 13.96875 -5.34375 14.4375 -7.28125 C 14.914062 -9.226562 15.15625 -12.175781 15.15625 -16.125 C 15.15625 -19.289062 14.925781 -21.914062 14.46875 -24 C 14.007812 -26.082031 13.023438 -27.125 11.515625 -27.125 C 9.992188 -27.125 9.007812 -26.085938 8.5625 -24.015625 C 8.113281 -21.953125 7.890625 -19.335938 7.890625 -16.171875 C 7.890625 -12.191406 8.117188 -9.226562 8.578125 -7.28125 C 9.046875 -5.34375 10.023438 -4.375 11.515625 -4.375 Z M 11.515625 -4.375 "/></g></g></g><g fill="#f5f5ef" fill-opacity="1"><g transform="translate(288.850341, 247.909745)"><g><path d="M 2.9375 -31.5 L 6.890625 -31.5 C 10.054688 -31.5 12.578125 -31.363281 14.453125 -31.09375 C 16.328125 -30.832031 17.984375 -30.015625 19.421875 -28.640625 C 20.867188 -27.273438 21.59375 -25.078125 21.59375 -22.046875 C 21.59375 -19.304688 20.984375 -17.226562 19.765625 -15.8125 C 18.546875 -14.394531 17.046875 -13.46875 15.265625 -13.03125 C 13.484375 -12.601562 11.429688 -12.390625 9.109375 -12.390625 L 9.109375 -0.25 L 2.9375 0.25 Z M 10.203125 -17.390625 C 11.828125 -17.390625 13.109375 -17.722656 14.046875 -18.390625 C 14.984375 -19.066406 15.453125 -20.300781 15.453125 -22.09375 C 15.453125 -23.851562 15.019531 -25.039062 14.15625 -25.65625 C 13.289062 -26.28125 11.914062 -26.59375 10.03125 -26.59375 L 9.15625 -26.59375 L 9.15625 -17.390625 Z M 10.203125 -17.390625 "/></g></g></g><g fill="#f5f5ef" fill-opacity="1"><g transform="translate(114.738969, 285.529198)"><g><path d="M 9.90625 4.84375 L 9.296875 5.828125 L 1.734375 1.09375 L 8.421875 -9.578125 L 15.75 -5 L 15.140625 -4.03125 L 8.953125 -7.90625 L 6.578125 -4.109375 L 12.09375 -0.640625 L 11.484375 0.328125 L 5.96875 -3.140625 L 3.484375 0.8125 Z M 9.90625 4.84375 "/></g></g></g><g fill="#f5f5ef" fill-opacity="1"><g transform="translate(133.348755, 296.235963)"><g><path d="M 5.0625 2.21875 C 4.195312 1.863281 3.425781 1.378906 2.75 0.765625 C 2.070312 0.160156 1.613281 -0.453125 1.375 -1.078125 L 2.25 -1.828125 C 2.488281 -1.234375 2.898438 -0.660156 3.484375 -0.109375 C 4.078125 0.429688 4.75 0.859375 5.5 1.171875 C 6.53125 1.609375 7.382812 1.742188 8.0625 1.578125 C 8.75 1.421875 9.222656 1.035156 9.484375 0.421875 C 9.671875 -0.0351562 9.675781 -0.460938 9.5 -0.859375 C 9.332031 -1.253906 9.078125 -1.613281 8.734375 -1.9375 C 8.390625 -2.257812 7.890625 -2.660156 7.234375 -3.140625 C 6.453125 -3.722656 5.84375 -4.226562 5.40625 -4.65625 C 4.976562 -5.082031 4.664062 -5.578125 4.46875 -6.140625 C 4.269531 -6.710938 4.320312 -7.359375 4.625 -8.078125 C 4.875 -8.671875 5.25 -9.144531 5.75 -9.5 C 6.257812 -9.851562 6.894531 -10.035156 7.65625 -10.046875 C 8.425781 -10.066406 9.285156 -9.878906 10.234375 -9.484375 C 10.898438 -9.203125 11.515625 -8.835938 12.078125 -8.390625 C 12.648438 -7.941406 13.097656 -7.46875 13.421875 -6.96875 L 12.59375 -6.15625 C 12.238281 -6.664062 11.816406 -7.117188 11.328125 -7.515625 C 10.847656 -7.921875 10.34375 -8.234375 9.8125 -8.453125 C 8.800781 -8.878906 7.953125 -9 7.265625 -8.8125 C 6.585938 -8.632812 6.117188 -8.234375 5.859375 -7.609375 C 5.660156 -7.148438 5.644531 -6.71875 5.8125 -6.3125 C 5.976562 -5.90625 6.238281 -5.539062 6.59375 -5.21875 C 6.957031 -4.894531 7.46875 -4.492188 8.125 -4.015625 C 8.882812 -3.453125 9.484375 -2.957031 9.921875 -2.53125 C 10.359375 -2.101562 10.671875 -1.609375 10.859375 -1.046875 C 11.054688 -0.484375 11.003906 0.148438 10.703125 0.859375 C 10.460938 1.453125 10.082031 1.921875 9.5625 2.265625 C 9.050781 2.617188 8.410156 2.800781 7.640625 2.8125 C 6.867188 2.820312 6.007812 2.625 5.0625 2.21875 Z M 5.0625 2.21875 "/></g></g></g><g fill="#f5f5ef" fill-opacity="1"><g transform="translate(152.507352, 303.409985)"><g><path d="M 7.078125 -10.0625 L 2.78125 -11.109375 L 3.046875 -12.21875 L 12.9375 -9.8125 L 12.671875 -8.703125 L 8.359375 -9.75 L 5.65625 1.375 L 4.375 1.0625 Z M 7.078125 -10.0625 "/></g></g></g><g fill="#f5f5ef" fill-opacity="1"><g transform="translate(171.668355, 307.252286)"><g><path d="M 1.875 0.3125 C 1.613281 0.28125 1.398438 0.160156 1.234375 -0.046875 C 1.078125 -0.265625 1.015625 -0.515625 1.046875 -0.796875 C 1.078125 -1.054688 1.191406 -1.269531 1.390625 -1.4375 C 1.597656 -1.601562 1.832031 -1.671875 2.09375 -1.640625 C 2.351562 -1.617188 2.566406 -1.503906 2.734375 -1.296875 C 2.910156 -1.085938 2.984375 -0.851562 2.953125 -0.59375 C 2.921875 -0.3125 2.796875 -0.0859375 2.578125 0.078125 C 2.367188 0.253906 2.132812 0.332031 1.875 0.3125 Z M 1.875 0.3125 "/></g></g></g><g fill="#f5f5ef" fill-opacity="1"><g transform="translate(184.535298, 308.233394)"><g/></g></g><g fill="#f5f5ef" fill-opacity="1"><g transform="translate(198.491296, 307.900886)"><g><path d="M 9.328125 -2.328125 L 9.46875 -1.1875 L 0.703125 -0.09375 L 0.59375 -1.015625 L 5.140625 -6.734375 C 5.722656 -7.460938 6.097656 -8.070312 6.265625 -8.5625 C 6.429688 -9.0625 6.484375 -9.546875 6.421875 -10.015625 C 6.328125 -10.765625 6.003906 -11.3125 5.453125 -11.65625 C 4.910156 -12 4.171875 -12.113281 3.234375 -12 C 1.765625 -11.820312 0.675781 -11.21875 -0.03125 -10.1875 L -1.015625 -10.875 C -0.609375 -11.488281 -0.0507812 -12 0.65625 -12.40625 C 1.375 -12.820312 2.210938 -13.085938 3.171875 -13.203125 C 4.453125 -13.359375 5.503906 -13.179688 6.328125 -12.671875 C 7.148438 -12.171875 7.625 -11.394531 7.75 -10.34375 C 7.832031 -9.695312 7.765625 -9.054688 7.546875 -8.421875 C 7.328125 -7.796875 6.875 -7.046875 6.1875 -6.171875 L 2.453125 -1.46875 Z M 9.328125 -2.328125 "/></g></g></g><g fill="#f5f5ef" fill-opacity="1"><g transform="translate(217.877421, 304.788737)"><g><path d="M 5.75 -1.5625 C 4.8125 -1.289062 3.90625 -1.296875 3.03125 -1.578125 C 2.15625 -1.859375 1.378906 -2.40625 0.703125 -3.21875 C 0.0234375 -4.03125 -0.492188 -5.0625 -0.859375 -6.3125 C -1.222656 -7.570312 -1.335938 -8.722656 -1.203125 -9.765625 C -1.066406 -10.804688 -0.707031 -11.679688 -0.125 -12.390625 C 0.457031 -13.097656 1.21875 -13.585938 2.15625 -13.859375 C 3.09375 -14.128906 4 -14.125 4.875 -13.84375 C 5.75 -13.5625 6.53125 -13.019531 7.21875 -12.21875 C 7.90625 -11.425781 8.429688 -10.398438 8.796875 -9.140625 C 9.160156 -7.890625 9.269531 -6.734375 9.125 -5.671875 C 8.976562 -4.617188 8.613281 -3.738281 8.03125 -3.03125 C 7.445312 -2.320312 6.6875 -1.832031 5.75 -1.5625 Z M 5.421875 -2.703125 C 6.128906 -2.910156 6.691406 -3.285156 7.109375 -3.828125 C 7.535156 -4.378906 7.785156 -5.070312 7.859375 -5.90625 C 7.941406 -6.75 7.828125 -7.703125 7.515625 -8.765625 C 7.203125 -9.828125 6.785156 -10.6875 6.265625 -11.34375 C 5.753906 -12.007812 5.171875 -12.457031 4.515625 -12.6875 C 3.867188 -12.914062 3.191406 -12.925781 2.484375 -12.71875 C 1.785156 -12.507812 1.222656 -12.132812 0.796875 -11.59375 C 0.378906 -11.050781 0.128906 -10.359375 0.046875 -9.515625 C -0.0351562 -8.679688 0.078125 -7.734375 0.390625 -6.671875 C 0.703125 -5.609375 1.117188 -4.742188 1.640625 -4.078125 C 2.160156 -3.421875 2.742188 -2.972656 3.390625 -2.734375 C 4.046875 -2.503906 4.722656 -2.492188 5.421875 -2.703125 Z M 5.421875 -2.703125 "/></g></g></g><g fill="#f5f5ef" fill-opacity="1"><g transform="translate(237.988782, 298.002217)"><g><path d="M -1.234375 -13.296875 L 4.015625 -1.84375 L 2.84375 -1.296875 L -1.921875 -11.703125 L -4.625 -10.46875 L -5.109375 -11.515625 Z M -1.234375 -13.296875 "/></g></g></g><g fill="#f5f5ef" fill-opacity="1"><g transform="translate(252.117299, 290.969768)"><g><path d="M 7.421875 -6.09375 L 8.046875 -5.125 L 0.59375 -0.375 L 0.09375 -1.15625 L 1.75 -8.28125 C 1.96875 -9.195312 2.046875 -9.910156 1.984375 -10.421875 C 1.929688 -10.941406 1.773438 -11.40625 1.515625 -11.8125 C 1.109375 -12.445312 0.582031 -12.800781 -0.0625 -12.875 C -0.707031 -12.945312 -1.429688 -12.726562 -2.234375 -12.21875 C -3.484375 -11.425781 -4.203125 -10.414062 -4.390625 -9.1875 L -5.578125 -9.375 C -5.484375 -10.125 -5.195312 -10.832031 -4.71875 -11.5 C -4.25 -12.175781 -3.609375 -12.769531 -2.796875 -13.28125 C -1.703125 -13.976562 -0.679688 -14.273438 0.265625 -14.171875 C 1.222656 -14.066406 1.988281 -13.570312 2.5625 -12.6875 C 2.914062 -12.125 3.128906 -11.507812 3.203125 -10.84375 C 3.273438 -10.175781 3.1875 -9.300781 2.9375 -8.21875 L 1.578125 -2.375 Z M 7.421875 -6.09375 "/></g></g></g><path stroke-linecap="butt" transform="matrix(2.260716, 0, 0, 2.25, 53.961059, 190.136121)" fill="none" stroke-linejoin="miter" d="M -0.0000535479 0.000265616 L 25.778214 0.000265616 " stroke="#ffffff" stroke-width="1" stroke-opacity="1" stroke-miterlimit="4"/><path stroke-linecap="butt" transform="matrix(2.260716, 0, 0, 2.25, 120.717726, 190.136121)" fill-opacity="1" fill="#000000" fill-rule="nonzero" stroke-linejoin="round" d="M -3.500235 -1.499734 L -0.500633 -1.499734 L -0.500633 1.500266 L -3.500235 1.500266 Z M -3.500235 -1.499734 " stroke="#ffffff" stroke-width="1" stroke-opacity="1" stroke-miterlimit="4"/><path stroke-linecap="butt" transform="matrix(-2.260716, -0.000000000000000277, 0.000000000000000276, -2.25, 320.282268, 190.493351)" fill="none" stroke-linejoin="miter" d="M 0.000450418 0.000517329 L 25.778718 0.000517329 " stroke="#ffffff" stroke-width="1" stroke-opacity="1" stroke-miterlimit="4"/><path stroke-linecap="butt" transform="matrix(-2.260716, -0.000000000000000277, 0.000000000000000276, -2.25, 253.525593, 190.493351)" fill-opacity="1" fill="#000000" fill-rule="nonzero" stroke-linejoin="round" d="M -3.499735 -1.499483 L -0.500132 -1.499483 L -0.500132 1.500517 L -3.499735 1.500517 Z M -3.499735 -1.499483 " stroke="#ffffff" stroke-width="1" stroke-opacity="1" stroke-miterlimit="4"/></svg>