<svg xmlns="http://www.w3.org/2000/svg" xmlns:xlink="http://www.w3.org/1999/xlink" width="500" zoomAndPan="magnify" viewBox="0 0 375 374.999991" height="500" preserveAspectRatio="xMidYMid meet" version="1.0"><defs><g/><clipPath id="6f0be5440f"><path d="M 140 191 L 244 191 L 244 249.84375 L 140 249.84375 Z M 140 191 " clip-rule="nonzero"/></clipPath><clipPath id="53fdcdd991"><path d="M 113.75 180 L 152 180 L 152 228 L 113.75 228 Z M 113.75 180 " clip-rule="nonzero"/></clipPath><clipPath id="f6dbc17f87"><path d="M 142 167 L 246.5 167 L 246.5 199 L 142 199 Z M 142 167 " clip-rule="nonzero"/></clipPath><clipPath id="4ee49ffc65"><path d="M 180 126.84375 L 191 126.84375 L 191 178 L 180 178 Z M 180 126.84375 " clip-rule="nonzero"/></clipPath><clipPath id="24123e530e"><path d="M 74.925781 221.011719 L 81.675781 221.011719 L 81.675781 227.761719 L 74.925781 227.761719 Z M 74.925781 221.011719 " clip-rule="nonzero"/></clipPath><clipPath id="3c01f684d6"><path d="M 293.378906 221.011719 L 300.128906 221.011719 L 300.128906 227.761719 L 293.378906 227.761719 Z M 293.378906 221.011719 " clip-rule="nonzero"/></clipPath></defs><path fill="#000000" d="M 133.394531 192.660156 C 133.394531 192.660156 128.34375 186.570312 123.125 190.117188 C 116.722656 194.472656 117.261719 209.191406 133.394531 213.332031 C 133.394531 213.332031 128.828125 213.925781 125.828125 212.113281 C 122.828125 210.300781 115.964844 201.96875 115.585938 199.640625 C 115.207031 197.3125 114.855469 188.601562 115.585938 187.652344 C 116.316406 186.707031 120.316406 183 121.476562 182.972656 C 122.640625 182.945312 126.773438 182.484375 127.019531 182.484375 C 127.261719 182.484375 130.9375 184.027344 131.152344 184.351562 C 131.371094 184.675781 132.125 185.8125 132.722656 187.273438 C 133.316406 188.734375 133.394531 192.660156 133.394531 192.660156 Z M 133.394531 192.660156 " fill-opacity="1" fill-rule="nonzero"/><path fill="#000000" d="M 140.667969 195.011719 C 140.667969 195.011719 149.449219 246.152344 207.417969 235.601562 C 190.582031 234.410156 183.097656 231.21875 183.097656 231.21875 C 183.097656 231.21875 219.609375 241.390625 243.230469 198.070312 C 237.554688 220.421875 229.121094 231.21875 220.121094 238.089844 C 211.09375 244.988281 198.472656 247.179688 189.042969 245.691406 C 179.609375 244.203125 162.664062 236.898438 158.613281 232.867188 C 154.558594 228.835938 140.070312 208.109375 140.667969 195.011719 Z M 140.667969 195.011719 " fill-opacity="1" fill-rule="nonzero"/><g clip-path="url(#6f0be5440f)"><path fill="#000000" d="M 243.578125 191.902344 C 243.578125 191.902344 243.632812 192.550781 243.769531 193.769531 C 243.796875 194.066406 243.824219 194.417969 243.851562 194.796875 C 243.878906 195.175781 243.878906 195.582031 243.90625 196.042969 C 243.929688 196.5 243.929688 196.960938 243.957031 197.476562 C 243.957031 197.988281 243.929688 198.53125 243.929688 199.097656 C 243.929688 200.261719 243.796875 201.535156 243.6875 202.914062 C 243.527344 204.292969 243.335938 205.808594 243.011719 207.40625 C 242.390625 210.597656 241.363281 214.171875 239.796875 217.878906 C 239.445312 218.824219 238.929688 219.746094 238.5 220.691406 C 238.039062 221.636719 237.5 222.585938 236.984375 223.53125 C 236.6875 223.992188 236.417969 224.480469 236.121094 224.964844 C 235.984375 225.210938 235.824219 225.453125 235.6875 225.695312 C 235.527344 225.941406 235.363281 226.15625 235.203125 226.402344 C 234.878906 226.859375 234.554688 227.347656 234.230469 227.835938 C 233.90625 228.292969 233.527344 228.753906 233.175781 229.242188 C 232.5 230.1875 231.6875 231.082031 230.933594 232 C 230.527344 232.460938 230.121094 232.894531 229.6875 233.355469 C 229.285156 233.816406 228.851562 234.246094 228.390625 234.679688 C 227.960938 235.113281 227.5 235.546875 227.039062 235.980469 C 226.582031 236.386719 226.09375 236.816406 225.609375 237.222656 C 225.148438 237.65625 224.636719 238.035156 224.121094 238.441406 C 223.609375 238.820312 223.121094 239.253906 222.609375 239.632812 C 220.527344 241.175781 218.285156 242.582031 215.933594 243.824219 C 213.554688 245.070312 211.066406 246.152344 208.472656 247.019531 C 205.878906 247.882812 203.175781 248.5625 200.445312 249.019531 C 197.691406 249.453125 194.90625 249.671875 192.125 249.699219 L 190.070312 249.644531 C 189.449219 249.644531 188.71875 249.5625 187.988281 249.507812 C 186.527344 249.425781 185.175781 249.210938 183.800781 249.019531 C 181.070312 248.5625 178.367188 247.882812 175.773438 247.019531 C 173.179688 246.125 170.664062 245.070312 168.3125 243.824219 C 165.960938 242.554688 163.691406 241.175781 161.609375 239.632812 C 157.449219 236.546875 153.910156 232.976562 151.070312 229.214844 C 150.71875 228.753906 150.367188 228.292969 150.015625 227.808594 C 149.691406 227.320312 149.367188 226.859375 149.042969 226.375 C 148.882812 226.128906 148.71875 225.914062 148.558594 225.671875 C 148.421875 225.425781 148.261719 225.183594 148.125 224.9375 C 147.828125 224.453125 147.558594 223.992188 147.261719 223.503906 C 146.746094 222.53125 146.207031 221.609375 145.746094 220.664062 C 145.53125 220.175781 145.289062 219.71875 145.070312 219.257812 C 144.964844 219.011719 144.855469 218.796875 144.746094 218.554688 C 144.640625 218.308594 144.558594 218.09375 144.449219 217.851562 C 142.855469 214.117188 141.855469 210.542969 141.234375 207.351562 C 140.910156 205.753906 140.71875 204.238281 140.558594 202.859375 C 140.449219 201.453125 140.316406 200.179688 140.316406 199.042969 C 140.316406 198.476562 140.289062 197.933594 140.289062 197.421875 C 140.316406 196.90625 140.316406 196.421875 140.34375 195.988281 C 140.367188 195.554688 140.367188 195.121094 140.394531 194.742188 C 140.421875 194.363281 140.449219 194.011719 140.476562 193.714844 C 140.585938 192.496094 140.667969 191.847656 140.667969 191.847656 C 140.667969 191.847656 140.746094 192.496094 140.9375 193.6875 C 140.992188 193.984375 141.019531 194.335938 141.070312 194.6875 C 141.152344 195.066406 141.207031 195.445312 141.289062 195.878906 C 141.367188 196.3125 141.449219 196.773438 141.558594 197.257812 C 141.667969 197.746094 141.773438 198.261719 141.910156 198.828125 C 142.125 199.9375 142.476562 201.128906 142.828125 202.425781 C 143.234375 203.699219 143.640625 205.105469 144.207031 206.539062 C 145.289062 209.433594 146.691406 212.574219 148.585938 215.792969 C 150.449219 219.011719 152.800781 222.289062 155.664062 225.371094 C 156.367188 226.15625 157.125 226.886719 157.882812 227.671875 C 158.261719 228.050781 158.664062 228.402344 159.070312 228.78125 C 159.476562 229.160156 159.882812 229.511719 160.285156 229.863281 C 161.933594 231.296875 163.746094 232.625 165.636719 233.867188 C 167.53125 235.085938 169.558594 236.195312 171.636719 237.222656 C 172.691406 237.683594 173.746094 238.171875 174.855469 238.578125 C 175.933594 239.035156 177.042969 239.363281 178.152344 239.738281 C 180.394531 240.417969 182.71875 240.902344 185.042969 241.308594 C 186.203125 241.445312 187.421875 241.632812 188.527344 241.6875 C 189.097656 241.742188 189.636719 241.796875 190.3125 241.796875 L 192.148438 241.851562 C 194.527344 241.824219 196.90625 241.660156 199.257812 241.335938 C 201.609375 240.957031 203.90625 240.472656 206.175781 239.765625 C 207.285156 239.386719 208.417969 239.035156 209.5 238.605469 C 210.609375 238.199219 211.664062 237.710938 212.714844 237.25 C 213.230469 237.007812 213.742188 236.738281 214.257812 236.464844 C 214.5 236.332031 214.769531 236.222656 215.015625 236.058594 L 215.769531 235.628906 C 216.257812 235.328125 216.769531 235.085938 217.257812 234.761719 C 217.742188 234.464844 218.230469 234.167969 218.6875 233.867188 C 222.472656 231.378906 225.851562 228.511719 228.6875 225.398438 C 231.554688 222.316406 233.90625 219.039062 235.769531 215.820312 C 237.660156 212.601562 239.066406 209.433594 240.148438 206.566406 C 240.714844 205.132812 241.09375 203.753906 241.527344 202.453125 C 241.878906 201.15625 242.230469 199.964844 242.445312 198.855469 C 242.578125 198.3125 242.6875 197.800781 242.796875 197.285156 C 242.878906 196.800781 242.984375 196.339844 243.039062 195.90625 C 243.121094 195.472656 243.203125 195.066406 243.253906 194.714844 C 243.308594 194.335938 243.363281 194.011719 243.390625 193.714844 C 243.472656 192.523438 243.578125 191.902344 243.578125 191.902344 Z M 243.578125 191.902344 " fill-opacity="1" fill-rule="nonzero"/></g><path fill="#000000" d="M 230.90625 200.804688 C 229.445312 201.507812 227.960938 202.183594 226.445312 202.777344 C 224.933594 203.402344 223.417969 203.96875 221.851562 204.484375 C 220.3125 204.996094 218.742188 205.511719 217.175781 205.945312 C 215.609375 206.378906 214.015625 206.757812 212.390625 207.136719 C 209.203125 207.867188 205.933594 208.378906 202.691406 208.757812 C 201.070312 208.949219 199.421875 209.082031 197.773438 209.191406 C 196.121094 209.300781 194.472656 209.355469 192.824219 209.382812 C 189.527344 209.433594 186.230469 209.300781 182.960938 209.027344 C 181.3125 208.894531 179.691406 208.703125 178.042969 208.488281 C 176.421875 208.273438 174.773438 208 173.152344 207.730469 C 171.53125 207.433594 169.90625 207.109375 168.3125 206.730469 C 166.71875 206.351562 165.097656 205.972656 163.53125 205.511719 C 161.9375 205.050781 160.367188 204.566406 158.800781 204.023438 C 157.234375 203.480469 155.71875 202.914062 154.125 202.210938 L 156.261719 200.34375 C 156.394531 200.882812 156.613281 201.507812 156.800781 202.074219 C 157.015625 202.671875 157.234375 203.265625 157.476562 203.859375 C 157.960938 205.023438 158.476562 206.214844 159.042969 207.351562 C 160.179688 209.625 161.449219 211.871094 162.933594 213.980469 L 163.503906 214.765625 L 164.070312 215.550781 C 164.449219 216.0625 164.855469 216.578125 165.234375 217.09375 C 165.636719 217.605469 166.042969 218.09375 166.476562 218.582031 C 166.882812 219.066406 167.339844 219.554688 167.773438 220.015625 C 168.234375 220.476562 168.664062 220.960938 169.125 221.421875 C 169.582031 221.882812 170.042969 222.339844 170.53125 222.773438 C 171.015625 223.234375 171.503906 223.667969 171.988281 224.101562 C 172.476562 224.535156 172.988281 224.9375 173.503906 225.371094 C 172.933594 225.046875 172.367188 224.722656 171.800781 224.371094 C 171.230469 224.019531 170.691406 223.667969 170.152344 223.289062 C 169.609375 222.910156 169.070312 222.53125 168.558594 222.125 C 168.015625 221.71875 167.53125 221.3125 166.988281 220.878906 C 166.503906 220.449219 165.988281 220.015625 165.503906 219.554688 C 165.015625 219.09375 164.53125 218.636719 164.070312 218.175781 C 163.609375 217.714844 163.152344 217.226562 162.691406 216.742188 C 162.234375 216.253906 161.800781 215.738281 161.367188 215.226562 C 160.9375 214.710938 160.53125 214.199219 160.125 213.65625 C 159.71875 213.113281 159.3125 212.574219 158.9375 212.03125 C 158.152344 210.921875 157.421875 209.8125 156.746094 208.648438 C 156.070312 207.488281 155.421875 206.296875 154.855469 205.078125 C 154.558594 204.457031 154.289062 203.859375 154.015625 203.210938 C 153.746094 202.5625 153.503906 201.96875 153.261719 201.238281 L 152.234375 198.152344 L 155.367188 199.371094 C 156.773438 199.910156 158.3125 200.425781 159.828125 200.859375 C 161.339844 201.316406 162.882812 201.75 164.421875 202.128906 C 165.960938 202.507812 167.53125 202.886719 169.070312 203.210938 C 170.636719 203.535156 172.207031 203.835938 173.773438 204.105469 C 175.339844 204.375 176.933594 204.617188 178.503906 204.835938 C 180.070312 205.050781 181.664062 205.242188 183.257812 205.375 C 186.421875 205.675781 189.609375 205.863281 192.796875 205.945312 C 195.988281 206 199.175781 205.945312 202.367188 205.78125 C 203.960938 205.699219 205.554688 205.566406 207.148438 205.429688 C 208.742188 205.269531 210.339844 205.078125 211.933594 204.890625 C 213.527344 204.671875 215.121094 204.429688 216.691406 204.132812 C 218.285156 203.859375 219.851562 203.5625 221.417969 203.210938 C 222.988281 202.859375 224.582031 202.507812 226.148438 202.101562 C 227.769531 201.667969 229.335938 201.238281 230.90625 200.804688 Z M 230.90625 200.804688 " fill-opacity="1" fill-rule="nonzero"/><g clip-path="url(#53fdcdd991)"><path fill="#000000" d="M 151.207031 227.402344 C 151.207031 227.402344 151.042969 227.023438 150.691406 226.347656 C 150.339844 225.671875 149.746094 224.722656 148.910156 223.613281 C 148.042969 222.503906 146.910156 221.257812 145.449219 220.015625 C 143.992188 218.769531 142.152344 217.632812 140.019531 216.6875 C 138.964844 216.171875 137.800781 215.847656 136.613281 215.46875 C 135.992188 215.332031 135.371094 215.171875 134.746094 215.035156 L 134.289062 214.902344 L 133.800781 214.847656 C 133.476562 214.792969 133.152344 214.765625 132.828125 214.710938 C 132.152344 214.601562 131.449219 214.523438 130.746094 214.414062 C 130.074219 214.332031 129.234375 214.144531 128.449219 213.953125 C 126.910156 213.546875 125.398438 212.925781 123.964844 212.113281 C 122.503906 211.328125 121.152344 210.300781 119.910156 209.109375 C 118.667969 207.917969 117.585938 206.566406 116.667969 205.078125 C 114.828125 202.101562 113.75 198.558594 113.777344 194.90625 C 113.804688 193.09375 114.128906 191.25 114.75 189.519531 C 115.371094 187.789062 116.34375 186.191406 117.558594 184.839844 C 118.777344 183.484375 120.207031 182.375 121.722656 181.539062 C 122.449219 181.132812 123.289062 180.726562 124.179688 180.457031 C 125.046875 180.183594 126.019531 179.996094 127.046875 180.050781 C 128.046875 180.105469 129.097656 180.429688 129.9375 180.96875 C 130.800781 181.484375 131.421875 182.160156 131.964844 182.835938 C 133.019531 184.214844 133.640625 185.625 134.152344 186.976562 C 135.179688 189.710938 135.800781 192.28125 136.449219 194.632812 C 137.097656 196.988281 137.695312 199.097656 138.34375 200.9375 C 139.019531 202.777344 139.695312 204.320312 140.421875 205.511719 C 141.152344 206.703125 141.855469 207.566406 142.367188 208.109375 C 142.640625 208.378906 142.855469 208.570312 142.992188 208.703125 C 143.125 208.839844 143.207031 208.894531 143.207031 208.894531 C 143.207031 208.894531 143.125 208.839844 142.9375 208.730469 C 142.773438 208.625 142.503906 208.488281 142.207031 208.246094 C 141.585938 207.785156 140.695312 207.054688 139.773438 205.917969 C 138.855469 204.78125 137.882812 203.292969 136.992188 201.480469 C 136.53125 200.585938 136.097656 199.613281 135.667969 198.558594 C 135.234375 197.53125 134.828125 196.421875 134.394531 195.257812 C 133.964844 194.121094 133.53125 192.929688 133.070312 191.710938 C 132.613281 190.496094 132.125 189.25 131.558594 188.058594 C 130.992188 186.867188 130.371094 185.652344 129.558594 184.757812 C 129.152344 184.296875 128.722656 183.917969 128.289062 183.703125 C 127.855469 183.460938 127.398438 183.351562 126.882812 183.351562 C 126.371094 183.351562 125.800781 183.460938 125.234375 183.675781 C 124.640625 183.890625 124.101562 184.164062 123.449219 184.542969 C 122.261719 185.246094 121.179688 186.164062 120.289062 187.191406 C 118.503906 189.277344 117.503906 192.0625 117.503906 194.933594 C 117.453125 197.800781 118.316406 200.722656 119.777344 203.210938 C 121.234375 205.699219 123.261719 207.839844 125.640625 209.273438 C 126.828125 210.003906 128.074219 210.570312 129.34375 211.003906 C 129.964844 211.167969 130.53125 211.382812 131.261719 211.519531 C 131.964844 211.652344 132.667969 211.816406 133.34375 211.953125 C 133.695312 212.03125 134.046875 212.113281 134.394531 212.167969 L 134.910156 212.277344 L 135.421875 212.4375 C 136.097656 212.65625 136.773438 212.871094 137.421875 213.0625 C 138.695312 213.601562 139.9375 214.089844 141.019531 214.738281 C 143.234375 215.957031 145.070312 217.445312 146.476562 218.960938 C 147.882812 220.449219 148.882812 221.9375 149.585938 223.179688 C 150.289062 224.453125 150.691406 225.507812 150.9375 226.238281 C 151.125 226.996094 151.207031 227.402344 151.207031 227.402344 Z M 151.207031 227.402344 " fill-opacity="1" fill-rule="nonzero"/></g><path fill="#000000" d="M 201.148438 174.097656 C 201.148438 174.097656 224.796875 173.3125 229.363281 181.726562 C 233.933594 190.140625 223.554688 195.257812 201.851562 195.851562 C 180.152344 196.445312 156.015625 191.441406 156.015625 191.441406 C 156.015625 191.441406 198.3125 194.90625 207.90625 187.410156 C 217.5 179.914062 204.09375 174.097656 201.148438 174.097656 Z M 201.148438 174.097656 " fill-opacity="1" fill-rule="nonzero"/><g clip-path="url(#f6dbc17f87)"><path fill="#000000" d="M 193.042969 168.199219 C 193.042969 168.199219 193.691406 168.117188 194.878906 168.035156 C 196.097656 167.953125 197.851562 167.792969 200.121094 167.710938 C 202.394531 167.628906 205.121094 167.550781 208.285156 167.601562 C 211.445312 167.65625 215.015625 167.847656 218.90625 168.253906 C 222.796875 168.683594 227.011719 169.335938 231.445312 170.5 C 233.660156 171.09375 235.933594 171.824219 238.230469 172.824219 C 239.390625 173.339844 240.554688 173.933594 241.6875 174.691406 C 242.824219 175.449219 244.011719 176.371094 245.039062 177.777344 C 245.554688 178.480469 246.011719 179.320312 246.28125 180.320312 C 246.335938 180.5625 246.390625 180.835938 246.445312 181.078125 C 246.472656 181.347656 246.5 181.621094 246.527344 181.890625 L 246.527344 181.996094 L 246.5 182.324219 L 246.5 182.429688 L 246.472656 182.648438 L 246.445312 182.863281 L 246.445312 182.917969 C 246.445312 182.917969 246.445312 182.972656 246.445312 183 L 246.390625 183.242188 C 246.335938 183.539062 246.253906 183.863281 246.175781 184.164062 L 246.09375 184.378906 C 246.066406 184.433594 246.039062 184.488281 246.011719 184.542969 L 245.878906 184.867188 C 245.769531 185.082031 245.6875 185.324219 245.554688 185.542969 L 245.203125 186.136719 C 244.957031 186.542969 244.6875 186.839844 244.417969 187.191406 C 244.148438 187.546875 243.851562 187.789062 243.578125 188.085938 C 241.253906 190.25 238.769531 191.46875 236.257812 192.550781 C 231.230469 194.632812 226.039062 195.851562 220.851562 196.800781 C 215.664062 197.691406 210.445312 198.261719 205.3125 198.53125 C 202.746094 198.691406 200.203125 198.746094 197.691406 198.773438 C 196.421875 198.773438 195.175781 198.773438 193.933594 198.746094 L 192.988281 198.746094 L 192.070312 198.71875 C 191.472656 198.691406 190.851562 198.664062 190.257812 198.664062 C 185.339844 198.476562 180.664062 198.070312 176.203125 197.476562 C 171.773438 196.878906 167.582031 196.09375 163.773438 195.175781 C 159.960938 194.253906 156.53125 193.144531 153.558594 191.957031 C 152.070312 191.332031 150.71875 190.710938 149.476562 190.0625 C 148.261719 189.386719 147.152344 188.707031 146.234375 188.003906 C 144.367188 186.625 143.179688 185.082031 142.773438 183.890625 C 142.71875 183.757812 142.667969 183.59375 142.640625 183.484375 C 142.613281 183.351562 142.585938 183.214844 142.585938 183.105469 C 142.558594 183 142.558594 182.890625 142.53125 182.78125 C 142.53125 182.675781 142.53125 182.59375 142.53125 182.511719 C 142.53125 182.1875 142.53125 182.023438 142.53125 182.023438 C 142.53125 182.023438 142.558594 182.1875 142.613281 182.484375 C 142.640625 182.566406 142.640625 182.648438 142.667969 182.730469 C 142.691406 182.808594 142.746094 182.917969 142.773438 183.027344 C 142.828125 183.132812 142.855469 183.242188 142.910156 183.351562 C 142.964844 183.460938 143.042969 183.59375 143.125 183.703125 C 143.394531 184.214844 143.882812 184.757812 144.53125 185.300781 C 144.691406 185.433594 144.855469 185.570312 145.042969 185.703125 C 145.234375 185.839844 145.421875 185.949219 145.613281 186.109375 C 145.800781 186.246094 146.015625 186.382812 146.234375 186.515625 C 146.449219 186.652344 146.691406 186.789062 146.910156 186.894531 C 147.882812 187.410156 148.992188 187.871094 150.234375 188.328125 C 151.476562 188.761719 152.855469 189.195312 154.339844 189.574219 C 157.3125 190.332031 160.71875 190.980469 164.476562 191.496094 C 166.339844 191.738281 168.3125 191.984375 170.339844 192.171875 C 172.367188 192.359375 174.476562 192.523438 176.636719 192.632812 C 180.960938 192.875 185.582031 192.984375 190.285156 192.929688 C 191.472656 192.902344 192.664062 192.875 193.878906 192.847656 C 195.070312 192.820312 196.285156 192.765625 197.5 192.738281 C 198.71875 192.6875 199.933594 192.632812 201.175781 192.550781 C 202.394531 192.46875 203.636719 192.386719 204.878906 192.308594 C 209.824219 191.902344 214.824219 191.359375 219.742188 190.46875 C 222.203125 190.035156 224.636719 189.546875 227.011719 188.953125 C 229.390625 188.328125 231.714844 187.679688 233.878906 186.8125 C 236.011719 185.949219 238.09375 184.921875 239.445312 183.757812 C 239.605469 183.621094 239.796875 183.460938 239.90625 183.324219 C 240.011719 183.1875 240.175781 183.054688 240.253906 182.917969 C 240.308594 182.863281 240.335938 182.78125 240.390625 182.730469 L 240.472656 182.566406 L 240.527344 182.484375 L 240.554688 182.457031 C 240.554688 182.457031 240.554688 182.484375 240.582031 182.511719 L 240.605469 182.511719 C 240.605469 182.511719 240.605469 182.511719 240.605469 182.484375 L 240.605469 182.429688 L 240.632812 182.214844 L 240.660156 181.996094 L 240.660156 181.890625 C 240.660156 181.996094 240.6875 181.59375 240.660156 182.105469 L 240.660156 182.078125 C 240.660156 182.050781 240.660156 181.996094 240.660156 181.972656 C 240.660156 181.945312 240.632812 181.890625 240.632812 181.835938 C 240.605469 181.644531 240.5 181.402344 240.335938 181.132812 C 239.984375 180.5625 239.308594 179.914062 238.527344 179.320312 C 237.742188 178.722656 236.851562 178.183594 235.90625 177.695312 C 234.039062 176.695312 232.011719 175.910156 230.011719 175.207031 C 225.984375 173.828125 222.011719 172.824219 218.3125 172.011719 C 214.582031 171.203125 211.148438 170.605469 208.066406 170.148438 C 204.988281 169.6875 202.285156 169.308594 200.070312 169.039062 C 197.851562 168.792969 196.070312 168.578125 194.878906 168.46875 C 193.664062 168.28125 193.042969 168.199219 193.042969 168.199219 Z M 193.042969 168.199219 " fill-opacity="1" fill-rule="nonzero"/></g><path fill="#000000" d="M 144.394531 178.425781 C 144.394531 178.425781 144.503906 178.316406 144.691406 178.15625 C 144.910156 177.992188 145.207031 177.722656 145.613281 177.425781 C 146.015625 177.128906 146.53125 176.777344 147.152344 176.398438 C 147.773438 176.046875 148.449219 175.613281 149.261719 175.234375 C 150.042969 174.828125 150.910156 174.449219 151.828125 174.042969 C 152.746094 173.664062 153.746094 173.257812 154.773438 172.90625 C 155.828125 172.582031 156.882812 172.175781 157.988281 171.90625 C 158.558594 171.742188 159.097656 171.609375 159.664062 171.445312 C 160.234375 171.308594 160.800781 171.175781 161.367188 171.039062 C 161.933594 170.902344 162.503906 170.796875 163.070312 170.660156 C 163.636719 170.550781 164.207031 170.472656 164.773438 170.363281 C 165.910156 170.148438 167.015625 169.984375 168.097656 169.875 C 169.179688 169.742188 170.230469 169.605469 171.230469 169.523438 C 172.230469 169.441406 173.179688 169.390625 174.042969 169.335938 C 174.90625 169.253906 175.71875 169.253906 176.421875 169.253906 C 177.125 169.253906 177.746094 169.253906 178.257812 169.253906 C 179.285156 169.253906 179.855469 169.28125 179.855469 169.28125 C 179.855469 169.28125 179.285156 169.390625 178.285156 169.523438 C 177.773438 169.605469 177.179688 169.6875 176.476562 169.792969 C 175.773438 169.902344 174.988281 169.984375 174.125 170.148438 C 173.257812 170.28125 172.339844 170.445312 171.367188 170.578125 C 170.394531 170.714844 169.367188 170.929688 168.285156 171.09375 C 167.746094 171.175781 167.207031 171.257812 166.664062 171.363281 C 166.125 171.472656 165.585938 171.582031 165.015625 171.6875 C 164.449219 171.796875 163.910156 171.90625 163.339844 172.011719 C 162.773438 172.148438 162.234375 172.257812 161.664062 172.390625 C 161.097656 172.527344 160.53125 172.636719 159.988281 172.769531 C 159.449219 172.90625 158.882812 173.042969 158.339844 173.203125 C 157.234375 173.476562 156.179688 173.773438 155.152344 174.070312 C 154.636719 174.207031 154.125 174.394531 153.636719 174.53125 C 153.152344 174.691406 152.664062 174.828125 152.207031 174.988281 C 151.289062 175.339844 150.394531 175.613281 149.585938 175.9375 C 148.773438 176.234375 148.070312 176.558594 147.421875 176.828125 C 146.800781 177.128906 146.234375 177.371094 145.773438 177.613281 C 145.316406 177.832031 144.992188 178.046875 144.746094 178.183594 C 144.503906 178.316406 144.394531 178.425781 144.394531 178.425781 Z M 144.394531 178.425781 " fill-opacity="1" fill-rule="nonzero"/><g clip-path="url(#4ee49ffc65)"><path fill="#000000" d="M 183.90625 126.960938 C 183.90625 126.960938 183.851562 127.179688 183.800781 127.582031 C 183.71875 127.988281 183.636719 128.585938 183.554688 129.34375 C 183.476562 130.101562 183.421875 131.019531 183.421875 132.074219 C 183.421875 133.105469 183.503906 134.292969 183.71875 135.511719 C 183.773438 135.808594 183.828125 136.132812 183.90625 136.433594 C 183.988281 136.730469 184.097656 137.054688 184.175781 137.378906 C 184.257812 137.703125 184.394531 138 184.503906 138.324219 C 184.636719 138.652344 184.71875 138.976562 184.90625 139.273438 C 185.070312 139.570312 185.230469 139.894531 185.367188 140.191406 C 185.554688 140.492188 185.746094 140.789062 185.960938 141.085938 C 186.152344 141.382812 186.394531 141.652344 186.609375 141.953125 L 186.960938 142.386719 L 187.125 142.601562 L 187.339844 142.871094 C 188.527344 144.171875 189.609375 145.984375 189.960938 148.039062 C 190.125 149.066406 190.148438 150.125 189.988281 151.125 C 189.824219 152.125 189.554688 153.101562 189.203125 153.992188 C 188.476562 155.777344 187.554688 157.347656 186.664062 158.835938 C 185.773438 160.324219 184.878906 161.703125 184.175781 163.085938 L 184.042969 163.328125 L 184.015625 163.382812 L 183.988281 163.410156 C 183.988281 163.382812 183.960938 163.488281 184.015625 163.355469 L 184.015625 163.382812 L 183.960938 163.515625 L 183.851562 163.789062 L 183.800781 163.921875 L 183.746094 164.03125 C 183.664062 164.246094 183.582031 164.574219 183.554688 164.84375 C 183.476562 165.382812 183.554688 165.925781 183.800781 166.441406 C 184.257812 167.523438 185.230469 168.550781 186.125 169.46875 C 187.015625 170.417969 187.90625 171.308594 188.582031 172.203125 C 189.257812 173.097656 189.71875 173.988281 189.988281 174.746094 C 190.257812 175.503906 190.285156 176.152344 190.3125 176.558594 C 190.3125 176.992188 190.285156 177.207031 190.285156 177.207031 C 190.285156 177.207031 190.230469 176.992188 190.125 176.585938 C 189.988281 176.207031 189.800781 175.640625 189.394531 175.015625 C 189.015625 174.394531 188.421875 173.71875 187.664062 173.042969 C 186.90625 172.367188 185.960938 171.660156 184.878906 170.851562 C 184.339844 170.445312 183.800781 170.011719 183.230469 169.46875 C 182.664062 168.957031 182.097656 168.332031 181.636719 167.523438 C 181.152344 166.738281 180.878906 165.683594 180.90625 164.652344 C 180.90625 164.140625 180.988281 163.652344 181.152344 163.113281 L 181.203125 162.921875 L 181.257812 162.785156 L 181.367188 162.488281 L 181.421875 162.355469 L 181.503906 162.136719 L 181.636719 161.839844 C 182.3125 160.214844 183.175781 158.699219 184.015625 157.210938 C 184.851562 155.722656 185.691406 154.234375 186.257812 152.773438 C 186.851562 151.3125 187.125 149.851562 186.933594 148.5 C 186.824219 147.824219 186.636719 147.148438 186.339844 146.496094 C 186.203125 146.171875 186.015625 145.847656 185.828125 145.550781 L 185.554688 145.117188 C 185.449219 144.957031 185.3125 144.792969 185.203125 144.628906 C 184.960938 144.277344 184.71875 143.925781 184.449219 143.601562 C 184.3125 143.414062 184.203125 143.25 184.070312 143.0625 C 183.933594 142.871094 183.851562 142.683594 183.746094 142.492188 C 183.554688 142.113281 183.339844 141.734375 183.152344 141.355469 C 182.988281 140.949219 182.851562 140.570312 182.691406 140.191406 C 182.125 138.597656 181.851562 137.082031 181.851562 135.675781 C 181.828125 134.292969 181.960938 133.023438 182.179688 131.941406 C 182.367188 130.859375 182.664062 129.9375 182.933594 129.207031 C 183.203125 128.476562 183.449219 127.910156 183.636719 127.53125 C 183.800781 127.152344 183.90625 126.960938 183.90625 126.960938 Z M 183.90625 126.960938 " fill-opacity="1" fill-rule="nonzero"/></g><path fill="#000000" d="M 195.582031 131.886719 C 195.582031 131.886719 195.554688 132.023438 195.527344 132.292969 C 195.5 132.5625 195.472656 132.941406 195.449219 133.429688 C 195.421875 134.375 195.449219 135.753906 195.796875 137.242188 C 195.960938 138 196.257812 138.757812 196.609375 139.488281 C 196.71875 139.679688 196.824219 139.839844 196.90625 140.03125 C 197.015625 140.191406 197.148438 140.382812 197.257812 140.542969 C 197.367188 140.734375 197.527344 140.871094 197.664062 141.03125 L 197.878906 141.277344 L 198.175781 141.628906 C 198.339844 141.816406 198.527344 142.03125 198.691406 142.222656 C 198.878906 142.464844 199.070312 142.816406 199.257812 143.117188 C 199.609375 143.738281 199.851562 144.386719 199.960938 145.089844 C 200.097656 145.792969 200.097656 146.523438 199.988281 147.226562 C 199.933594 147.578125 199.851562 147.90625 199.769531 148.230469 C 199.691406 148.554688 199.554688 148.851562 199.472656 149.148438 C 198.988281 150.339844 198.394531 151.339844 197.796875 152.289062 C 197.230469 153.234375 196.664062 154.074219 196.203125 154.914062 L 196.121094 155.074219 L 196.097656 155.101562 L 196.097656 155.128906 C 196.070312 155.183594 196.121094 155.046875 196.121094 155.074219 L 196.097656 155.15625 L 196.015625 155.320312 L 195.988281 155.398438 L 195.988281 155.425781 C 195.960938 155.507812 195.90625 155.671875 195.878906 155.804688 C 195.824219 156.050781 195.824219 156.292969 195.933594 156.589844 C 196.121094 157.1875 196.691406 157.835938 197.230469 158.457031 C 197.773438 159.078125 198.3125 159.675781 198.71875 160.296875 C 199.121094 160.894531 199.394531 161.515625 199.527344 162.003906 C 199.664062 162.515625 199.664062 162.921875 199.664062 163.191406 C 199.636719 163.464844 199.609375 163.597656 199.609375 163.597656 C 199.609375 163.597656 199.554688 163.464844 199.472656 163.21875 C 199.367188 162.976562 199.203125 162.652344 198.960938 162.273438 C 198.691406 161.894531 198.3125 161.515625 197.796875 161.136719 C 197.285156 160.730469 196.691406 160.351562 195.988281 159.863281 C 195.3125 159.351562 194.472656 158.808594 193.773438 157.726562 C 193.421875 157.1875 193.203125 156.429688 193.203125 155.699219 C 193.203125 155.320312 193.257812 154.992188 193.367188 154.589844 L 193.394531 154.453125 L 193.421875 154.371094 L 193.472656 154.183594 L 193.554688 153.9375 L 193.636719 153.75 C 194.070312 152.695312 194.582031 151.691406 195.121094 150.746094 C 195.636719 149.796875 196.148438 148.878906 196.472656 148.011719 C 196.824219 147.148438 196.960938 146.335938 196.878906 145.632812 C 196.851562 145.28125 196.71875 144.875 196.582031 144.550781 C 196.5 144.386719 196.449219 144.25 196.339844 144.0625 C 196.203125 143.847656 196.042969 143.628906 195.90625 143.414062 L 195.851562 143.332031 L 195.796875 143.277344 C 195.90625 143.414062 195.824219 143.304688 195.851562 143.332031 L 195.71875 143.140625 L 195.472656 142.761719 C 195.3125 142.519531 195.148438 142.277344 195.015625 142.007812 C 194.878906 141.734375 194.746094 141.492188 194.636719 141.25 C 194.527344 140.976562 194.449219 140.734375 194.367188 140.464844 C 194.070312 139.433594 193.90625 138.40625 193.933594 137.515625 C 193.960938 135.703125 194.449219 134.292969 194.824219 133.375 C 195.015625 132.914062 195.203125 132.5625 195.339844 132.347656 C 195.5 131.996094 195.582031 131.886719 195.582031 131.886719 Z M 195.582031 131.886719 " fill-opacity="1" fill-rule="nonzero"/><path fill="#000000" d="M 171.285156 134.972656 C 171.285156 134.972656 171.285156 135.078125 171.257812 135.296875 C 171.230469 135.511719 171.257812 135.835938 171.230469 136.214844 C 171.257812 137 171.3125 138.082031 171.636719 139.246094 C 171.773438 139.839844 172.042969 140.410156 172.339844 140.976562 C 172.421875 141.113281 172.503906 141.25 172.582031 141.382812 C 172.691406 141.519531 172.773438 141.628906 172.882812 141.761719 C 172.960938 141.898438 173.097656 142.007812 173.207031 142.140625 L 173.367188 142.332031 L 173.449219 142.410156 L 173.53125 142.519531 L 173.554688 142.546875 L 173.609375 142.601562 C 173.746094 142.761719 173.882812 142.925781 174.015625 143.089844 C 174.179688 143.277344 174.339844 143.574219 174.503906 143.847656 C 174.800781 144.386719 175.015625 144.929688 175.125 145.523438 C 175.230469 146.117188 175.230469 146.742188 175.152344 147.335938 C 175.125 147.632812 175.042969 147.90625 174.960938 148.175781 C 174.878906 148.445312 174.800781 148.6875 174.71875 148.960938 C 174.3125 149.960938 173.828125 150.773438 173.339844 151.53125 C 172.882812 152.289062 172.421875 152.964844 172.070312 153.585938 L 171.988281 153.695312 L 171.960938 153.722656 L 171.960938 153.75 C 172.070312 153.503906 171.988281 153.695312 172.015625 153.640625 L 171.988281 153.722656 L 171.882812 154.019531 L 171.828125 154.15625 C 171.828125 154.183594 171.800781 154.210938 171.800781 154.210938 L 171.800781 154.234375 C 171.800781 154.261719 171.800781 154.261719 171.773438 154.289062 C 171.773438 154.289062 171.746094 154.316406 171.746094 154.316406 C 171.746094 154.34375 171.746094 154.34375 171.746094 154.371094 C 171.746094 154.398438 171.746094 154.453125 171.71875 154.480469 C 171.71875 154.5625 171.746094 154.640625 171.746094 154.75 C 171.855469 155.183594 172.285156 155.722656 172.691406 156.210938 C 173.097656 156.726562 173.53125 157.238281 173.855469 157.753906 C 174.179688 158.242188 174.367188 158.78125 174.476562 159.1875 C 174.554688 159.621094 174.554688 159.945312 174.53125 160.160156 C 174.503906 160.378906 174.476562 160.488281 174.476562 160.488281 C 174.476562 160.488281 174.421875 160.378906 174.339844 160.1875 C 174.285156 160 174.097656 159.730469 173.882812 159.457031 C 173.636719 159.1875 173.339844 158.890625 172.90625 158.59375 C 172.503906 158.296875 172.015625 157.996094 171.421875 157.617188 C 170.855469 157.210938 170.152344 156.808594 169.558594 155.859375 C 169.421875 155.617188 169.285156 155.34375 169.207031 155.046875 C 169.179688 154.886719 169.152344 154.75 169.125 154.589844 L 169.097656 154.34375 C 169.097656 154.261719 169.097656 154.15625 169.097656 154.074219 C 169.097656 153.882812 169.125 153.695312 169.152344 153.53125 L 169.179688 153.398438 C 169.179688 153.34375 169.179688 153.34375 169.207031 153.316406 L 169.234375 153.152344 L 169.3125 152.855469 L 169.339844 152.773438 L 169.421875 152.558594 L 169.476562 152.394531 C 169.828125 151.53125 170.230469 150.691406 170.664062 149.933594 C 171.070312 149.175781 171.476562 148.445312 171.71875 147.769531 C 171.988281 147.09375 172.097656 146.523438 172.042969 146.011719 C 172.015625 145.765625 171.933594 145.46875 171.855469 145.226562 C 171.800781 145.117188 171.773438 145.007812 171.691406 144.875 C 171.582031 144.683594 171.449219 144.523438 171.339844 144.332031 L 171.257812 144.25 L 171.257812 144.226562 C 171.367188 144.359375 171.285156 144.25 171.3125 144.277344 L 171.207031 144.117188 L 170.988281 143.820312 C 170.855469 143.601562 170.71875 143.414062 170.609375 143.195312 C 170.503906 142.980469 170.394531 142.761719 170.3125 142.546875 C 170.230469 142.332031 170.152344 142.113281 170.097656 141.898438 C 169.855469 141.03125 169.746094 140.191406 169.800781 139.433594 C 169.855469 137.945312 170.285156 136.8125 170.636719 136.054688 C 170.800781 135.675781 170.988281 135.402344 171.097656 135.214844 C 171.230469 135.050781 171.285156 134.972656 171.285156 134.972656 Z M 171.285156 134.972656 " fill-opacity="1" fill-rule="nonzero"/><g clip-path="url(#24123e530e)"><path fill="#000000" d="M 78.300781 221.011719 C 76.433594 221.011719 74.925781 222.523438 74.925781 224.386719 C 74.925781 226.25 76.433594 227.761719 78.300781 227.761719 C 80.164062 227.761719 81.675781 226.25 81.675781 224.386719 C 81.675781 222.523438 80.164062 221.011719 78.300781 221.011719 " fill-opacity="1" fill-rule="nonzero"/></g><g clip-path="url(#3c01f684d6)"><path fill="#000000" d="M 296.753906 221.011719 C 294.890625 221.011719 293.378906 222.523438 293.378906 224.386719 C 293.378906 226.25 294.890625 227.761719 296.753906 227.761719 C 298.617188 227.761719 300.128906 226.25 300.128906 224.386719 C 300.128906 222.523438 298.617188 221.011719 296.753906 221.011719 " fill-opacity="1" fill-rule="nonzero"/></g><g fill="#000000" fill-opacity="1"><g transform="translate(96.861788, 165.417772)"><g><path d="M -13.050781 -22.621094 C -13.335938 -22.765625 -13.566406 -22.738281 -13.738281 -22.394531 L -19.023438 -11.90625 C -19.152344 -11.648438 -19.066406 -11.390625 -18.78125 -11.246094 L 0.261719 -1.65625 C 0.546875 -1.511719 0.804688 -1.597656 0.933594 -1.851562 L 6.21875 -12.34375 C 6.390625 -12.6875 6.277344 -12.886719 5.992188 -13.03125 L 3.140625 -14.464844 C 2.828125 -14.625 2.628906 -14.582031 2.453125 -14.238281 L -1.09375 -7.199219 L -5.3125 -9.324219 L -2.613281 -14.683594 C -2.46875 -14.96875 -2.554688 -15.226562 -2.867188 -15.382812 L -5.6875 -16.804688 C -6.003906 -16.960938 -6.257812 -16.878906 -6.402344 -16.59375 L -9.101562 -11.234375 L -13.492188 -13.445312 L -9.945312 -20.484375 C -9.773438 -20.828125 -9.914062 -21.042969 -10.199219 -21.1875 Z M -13.050781 -22.621094 "/></g></g></g><g fill="#000000" fill-opacity="1"><g transform="translate(104.450901, 150.324333)"><g><path d="M -2.152344 -16.039062 L -7.175781 -26.199219 C -7.371094 -26.628906 -7.765625 -26.6875 -8.074219 -26.28125 L -10.066406 -23.667969 C -10.28125 -23.386719 -10.3125 -23.132812 -10.15625 -22.8125 L -6.882812 -16.46875 L -13.867188 -17.933594 C -14.21875 -18 -14.457031 -17.902344 -14.667969 -17.621094 L -16.660156 -15.003906 C -16.96875 -14.597656 -16.804688 -14.234375 -16.339844 -14.160156 L -5.1875 -12.050781 L 0.0273438 -1.300781 C 0.25 -0.855469 0.617188 -0.8125 0.929688 -1.21875 L 2.917969 -3.835938 C 3.132812 -4.113281 3.164062 -4.371094 3.007812 -4.691406 L -0.453125 -11.578125 L 7.105469 -10.074219 C 7.457031 -10.007812 7.695312 -10.109375 7.90625 -10.390625 L 9.898438 -13.003906 C 10.207031 -13.410156 10.070312 -13.757812 9.578125 -13.851562 Z M -2.152344 -16.039062 "/></g></g></g><g fill="#000000" fill-opacity="1"><g transform="translate(116.193798, 135.206319)"><g><path d="M 0.839844 -1.449219 C 1.054688 -1.214844 1.324219 -1.199219 1.5625 -1.414062 L 3.902344 -3.492188 C 4.160156 -3.726562 4.152344 -3.976562 3.9375 -4.210938 L -0.351562 -8.945312 L 2.609375 -11.667969 C 4.8125 -13.707031 4.921875 -15.960938 2.929688 -18.160156 L -1.273438 -22.796875 C -3.285156 -25.019531 -5.542969 -25.132812 -7.765625 -23.117188 L -13.441406 -17.972656 C -13.679688 -17.757812 -13.691406 -17.488281 -13.476562 -17.25 Z M -3.113281 -11.996094 L -7.957031 -17.339844 L -5.613281 -19.507812 C -4.976562 -20.085938 -4.367188 -20.035156 -3.8125 -19.417969 L -0.683594 -15.964844 C -0.148438 -15.375 -0.132812 -14.742188 -0.769531 -14.160156 Z M -3.113281 -11.996094 "/></g></g></g><g fill="#000000" fill-opacity="1"><g transform="translate(128.879654, 123.838029)"><g><path d="M 2.691406 -22.671875 C 1.09375 -25.210938 -1.109375 -25.710938 -3.648438 -24.113281 L -10.128906 -20.027344 C -10.398438 -19.855469 -10.457031 -19.59375 -10.289062 -19.324219 L 1.078125 -1.28125 C 1.25 -1.011719 1.511719 -0.953125 1.78125 -1.125 L 4.429688 -2.789062 C 4.699219 -2.960938 4.757812 -3.226562 4.589844 -3.496094 L 1.269531 -8.761719 L 3.675781 -10.277344 L 8.324219 -5.773438 C 8.53125 -5.5625 8.75 -5.511719 9.019531 -5.683594 L 11.667969 -7.351562 C 11.964844 -7.539062 12.023438 -7.800781 11.738281 -8.074219 L 6.675781 -12.996094 C 7.285156 -14.246094 7.097656 -15.679688 6.113281 -17.246094 Z M -0.925781 -12.246094 L -4.855469 -18.484375 L -2.15625 -20.183594 C -1.453125 -20.628906 -0.835938 -20.488281 -0.394531 -19.785156 L 2.175781 -15.707031 C 2.617188 -15.003906 2.476562 -14.390625 1.777344 -13.945312 Z M -0.925781 -12.246094 "/></g></g></g><g fill="#000000" fill-opacity="1"><g transform="translate(143.34342, 114.836409)"><g><path d="M 4.996094 -25.636719 C 4.875 -25.929688 4.683594 -26.058594 4.328125 -25.914062 L -6.542969 -21.464844 C -6.808594 -21.355469 -6.914062 -21.105469 -6.792969 -20.8125 L 1.285156 -1.078125 C 1.40625 -0.78125 1.65625 -0.675781 1.921875 -0.785156 L 12.792969 -5.234375 C 13.144531 -5.378906 13.191406 -5.605469 13.070312 -5.902344 L 11.863281 -8.855469 C 11.730469 -9.179688 11.550781 -9.28125 11.195312 -9.132812 L 3.898438 -6.148438 L 2.109375 -10.519531 L 7.664062 -12.792969 C 7.957031 -12.914062 8.0625 -13.164062 7.929688 -13.488281 L 6.734375 -16.414062 C 6.601562 -16.738281 6.351562 -16.84375 6.054688 -16.722656 L 0.5 -14.449219 L -1.359375 -19 L 5.9375 -21.984375 C 6.292969 -22.128906 6.324219 -22.386719 6.203125 -22.679688 Z M 4.996094 -25.636719 "/></g></g></g><g fill="#000000" fill-opacity="1"><g transform="translate(159.115596, 108.482048)"><g><path d="M 1.289062 -23.148438 C -1.609375 -22.519531 -2.859375 -20.613281 -2.222656 -17.679688 L -1.042969 -12.285156 C -0.914062 -11.691406 -0.554688 -11.378906 0.046875 -11.3125 L 8.0625 -10.515625 L 8.75 -7.363281 C 8.933594 -6.523438 8.585938 -6.019531 7.773438 -5.84375 L 6.089844 -5.476562 C 5.3125 -5.308594 4.753906 -5.609375 4.570312 -6.453125 L 4.285156 -7.761719 C 4.210938 -8.105469 4.019531 -8.226562 3.679688 -8.152344 L 0.527344 -7.464844 C 0.214844 -7.398438 0.0625 -7.203125 0.136719 -6.859375 L 0.582031 -4.832031 C 1.21875 -1.898438 3.148438 -0.6875 6.050781 -1.320312 L 9.542969 -2.082031 C 12.476562 -2.71875 13.695312 -4.621094 13.054688 -7.550781 L 11.777344 -13.414062 C 11.648438 -14.007812 11.285156 -14.320312 10.714844 -14.390625 L 2.636719 -15.179688 L 2.058594 -17.828125 C 1.882812 -18.640625 2.253906 -19.179688 3.035156 -19.347656 L 4.75 -19.722656 C 5.589844 -19.90625 6.09375 -19.558594 6.269531 -18.746094 L 6.554688 -17.4375 C 6.621094 -17.125 6.851562 -16.980469 7.164062 -17.046875 L 10.3125 -17.734375 C 10.65625 -17.808594 10.769531 -18.03125 10.703125 -18.339844 L 10.253906 -20.398438 C 9.613281 -23.332031 7.714844 -24.550781 4.785156 -23.910156 Z M 1.289062 -23.148438 "/></g></g></g><g fill="#000000" fill-opacity="1"><g transform="translate(175.778638, 104.944868)"><g><path d="M 5.277344 -22.578125 C 2.3125 -22.457031 0.75 -20.796875 0.871094 -17.796875 L 1.097656 -12.28125 C 1.121094 -11.675781 1.425781 -11.304688 2.007812 -11.136719 L 9.761719 -8.960938 L 9.894531 -5.738281 C 9.929688 -4.878906 9.5 -4.445312 8.667969 -4.410156 L 6.945312 -4.339844 C 6.148438 -4.308594 5.65625 -4.703125 5.621094 -5.5625 L 5.566406 -6.902344 C 5.550781 -7.253906 5.382812 -7.40625 5.035156 -7.394531 L 1.8125 -7.261719 C 1.492188 -7.25 1.308594 -7.082031 1.324219 -6.730469 L 1.40625 -4.65625 C 1.53125 -1.660156 3.222656 -0.132812 6.1875 -0.253906 L 9.757812 -0.398438 C 12.757812 -0.519531 14.285156 -2.179688 14.164062 -5.175781 L 13.921875 -11.171875 C 13.894531 -11.78125 13.59375 -12.152344 13.042969 -12.320312 L 5.222656 -14.492188 L 5.113281 -17.203125 C 5.078125 -18.03125 5.539062 -18.5 6.335938 -18.53125 L 8.089844 -18.601562 C 8.953125 -18.636719 9.386719 -18.207031 9.417969 -17.378906 L 9.472656 -16.039062 C 9.488281 -15.722656 9.683594 -15.539062 10.003906 -15.550781 L 13.226562 -15.683594 C 13.578125 -15.695312 13.726562 -15.894531 13.714844 -16.210938 L 13.628906 -18.316406 C 13.507812 -21.316406 11.847656 -22.84375 8.847656 -22.722656 Z M 5.277344 -22.578125 "/></g></g></g><g fill="#000000" fill-opacity="1"><g transform="translate(193.221615, 104.611624)"><g/></g></g><g fill="#000000" fill-opacity="1"><g transform="translate(202.694321, 105.360007)"><g><path d="M 18.128906 -13.910156 C 18.828125 -16.828125 17.617188 -18.761719 14.730469 -19.449219 L 11.253906 -20.28125 C 8.332031 -20.980469 6.378906 -19.808594 5.679688 -16.890625 L 2.621094 -4.097656 C 1.921875 -1.179688 3.136719 0.75 6.054688 1.449219 L 9.53125 2.28125 C 12.417969 2.96875 14.371094 1.796875 15.070312 -1.121094 L 15.871094 -4.472656 C 15.945312 -4.785156 15.804688 -5.015625 15.496094 -5.089844 L 12.578125 -5.789062 C 12.234375 -5.867188 12.035156 -5.71875 11.960938 -5.410156 L 11.328125 -2.769531 C 11.128906 -1.933594 10.597656 -1.632812 9.789062 -1.824219 L 7.804688 -2.300781 C 6.996094 -2.496094 6.660156 -3.003906 6.859375 -3.839844 L 9.554688 -15.109375 C 9.75 -15.917969 10.253906 -16.253906 11.09375 -16.054688 L 13.082031 -15.578125 C 13.886719 -15.386719 14.21875 -14.847656 14.023438 -14.039062 L 13.417969 -11.496094 C 13.34375 -11.183594 13.453125 -10.960938 13.792969 -10.878906 L 16.710938 -10.179688 C 17.023438 -10.105469 17.253906 -10.246094 17.328125 -10.558594 Z M 18.128906 -13.910156 "/></g></g></g><g fill="#000000" fill-opacity="1"><g transform="translate(219.268138, 109.422784)"><g><path d="M 3.292969 -3.582031 C 2.097656 -0.828125 2.929688 1.269531 5.683594 2.460938 L 8.960938 3.882812 C 11.714844 5.078125 13.8125 4.246094 15.007812 1.492188 L 20.234375 -10.574219 C 21.429688 -13.328125 20.597656 -15.425781 17.847656 -16.617188 L 14.566406 -18.039062 C 11.8125 -19.234375 9.714844 -18.402344 8.519531 -15.648438 Z M 8.082031 -0.984375 C 7.320312 -1.316406 7.074219 -1.875 7.417969 -2.664062 L 12.011719 -13.269531 C 12.339844 -14.03125 12.929688 -14.261719 13.691406 -13.933594 L 15.566406 -13.121094 C 16.324219 -12.789062 16.558594 -12.203125 16.226562 -11.441406 L 11.632812 -0.835938 C 11.292969 -0.046875 10.714844 0.15625 9.957031 -0.175781 Z M 8.082031 -0.984375 "/></g></g></g><g fill="#000000" fill-opacity="1"><g transform="translate(234.860773, 116.281189)"><g><path d="M 24.007812 -10.324219 C 24.183594 -10.589844 24.128906 -10.855469 23.863281 -11.03125 L 14.054688 -17.496094 C 13.761719 -17.6875 13.523438 -17.617188 13.347656 -17.351562 L 1.613281 0.453125 C 1.4375 0.71875 1.464844 0.964844 1.757812 1.160156 L 4.53125 2.988281 C 4.796875 3.164062 5.0625 3.109375 5.238281 2.839844 L 9.613281 -3.792969 L 14.621094 -0.492188 C 14.890625 -0.316406 15.136719 -0.34375 15.332031 -0.636719 L 17.085938 -3.300781 C 17.261719 -3.570312 17.207031 -3.835938 16.941406 -4.007812 L 11.929688 -7.3125 L 14.9375 -11.871094 L 21.546875 -7.511719 C 21.8125 -7.335938 22.078125 -7.390625 22.253906 -7.660156 Z M 24.007812 -10.324219 "/></g></g></g><g fill="#000000" fill-opacity="1"><g transform="translate(249.031287, 125.73453)"><g><path d="M 25.433594 -6.011719 C 25.652344 -6.246094 25.644531 -6.515625 25.414062 -6.734375 L 16.871094 -14.800781 C 16.617188 -15.039062 16.371094 -15.011719 16.148438 -14.777344 L 1.511719 0.722656 C 1.292969 0.957031 1.277344 1.207031 1.53125 1.445312 L 3.945312 3.726562 C 4.175781 3.945312 4.449219 3.9375 4.667969 3.703125 L 10.125 -2.074219 L 14.488281 2.046875 C 14.71875 2.265625 14.96875 2.28125 15.210938 2.027344 L 17.402344 -0.296875 C 17.621094 -0.527344 17.613281 -0.796875 17.378906 -1.015625 L 13.015625 -5.136719 L 16.765625 -9.105469 L 22.519531 -3.671875 C 22.753906 -3.453125 23.023438 -3.460938 23.242188 -3.691406 Z M 25.433594 -6.011719 "/></g></g></g><g fill="#000000" fill-opacity="1"><g transform="translate(261.351526, 137.50096)"><g><path d="M 26.070312 -1.550781 C 26.328125 -1.742188 26.40625 -1.957031 26.175781 -2.265625 L 19.15625 -11.683594 C 18.988281 -11.914062 18.71875 -11.953125 18.460938 -11.761719 L 1.363281 0.976562 C 1.105469 1.164062 1.066406 1.433594 1.238281 1.664062 L 8.257812 11.082031 C 8.484375 11.390625 8.714844 11.378906 8.972656 11.1875 L 11.53125 9.28125 C 11.8125 9.070312 11.863281 8.875 11.636719 8.566406 L 6.925781 2.242188 L 10.714844 -0.578125 L 14.300781 4.234375 C 14.488281 4.492188 14.757812 4.53125 15.039062 4.320312 L 17.574219 2.433594 C 17.855469 2.222656 17.894531 1.953125 17.703125 1.699219 L 14.117188 -3.113281 L 18.0625 -6.050781 L 22.769531 0.273438 C 23 0.578125 23.253906 0.546875 23.511719 0.355469 Z M 26.070312 -1.550781 "/></g></g></g><g fill="#000000" fill-opacity="1"><g transform="translate(271.435277, 151.194521)"><g><path d="M 25.945312 2.976562 C 26.230469 2.835938 26.34375 2.632812 26.171875 2.292969 L 20.890625 -8.199219 C 20.757812 -8.457031 20.503906 -8.539062 20.21875 -8.398438 L 1.175781 1.195312 C 0.890625 1.339844 0.804688 1.597656 0.933594 1.851562 L 6.21875 12.34375 C 6.390625 12.6875 6.617188 12.714844 6.902344 12.570312 L 9.753906 11.132812 C 10.066406 10.976562 10.152344 10.789062 9.980469 10.449219 L 6.433594 3.40625 L 10.652344 1.28125 L 13.351562 6.640625 C 13.496094 6.925781 13.753906 7.011719 14.066406 6.851562 L 16.890625 5.429688 C 17.203125 5.273438 17.289062 5.015625 17.144531 4.730469 L 14.445312 -0.628906 L 18.835938 -2.839844 L 22.382812 4.203125 C 22.554688 4.542969 22.8125 4.558594 23.097656 4.414062 Z M 25.945312 2.976562 "/></g></g></g><g fill="#000000" fill-opacity="1"><g transform="translate(118.861894, 270.763806)"><g><path d="M 0.804688 0.355469 C 0.691406 0.480469 0.703125 0.621094 0.828125 0.734375 L 2.042969 1.832031 C 2.183594 1.957031 2.3125 1.933594 2.421875 1.808594 L 4.640625 -0.695312 L 6.230469 0.691406 C 7.421875 1.722656 8.601562 1.648438 9.636719 0.484375 L 11.808594 -1.972656 C 12.855469 -3.148438 12.78125 -4.332031 11.605469 -5.375 L 8.597656 -8.039062 C 8.472656 -8.148438 8.332031 -8.140625 8.21875 -8.015625 Z M 6.074219 -2.3125 L 8.582031 -5.144531 L 9.847656 -4.046875 C 10.183594 -3.746094 10.191406 -3.425781 9.902344 -3.101562 L 8.285156 -1.273438 C 8.003906 -0.957031 7.675781 -0.914062 7.339844 -1.214844 Z M 6.074219 -2.3125 "/></g></g></g><g fill="#000000" fill-opacity="1"><g transform="translate(126.995804, 277.795576)"><g><path d="M 11.523438 -3.246094 C 12.433594 -4.53125 12.234375 -5.699219 10.949219 -6.609375 L 7.667969 -8.929688 C 7.53125 -9.023438 7.394531 -9 7.296875 -8.863281 L 0.839844 0.265625 C 0.742188 0.402344 0.765625 0.542969 0.902344 0.636719 L 2.242188 1.585938 C 2.378906 1.683594 2.519531 1.660156 2.613281 1.523438 L 4.5 -1.144531 L 5.714844 -0.28125 L 4.46875 2.875 C 4.40625 3.015625 4.425781 3.132812 4.5625 3.230469 L 5.902344 4.175781 C 6.054688 4.28125 6.195312 4.257812 6.269531 4.066406 L 7.636719 0.625 C 8.363281 0.667969 9.019531 0.292969 9.582031 -0.5 Z M 5.746094 -2.90625 L 7.980469 -6.0625 L 9.347656 -5.097656 C 9.703125 -4.84375 9.757812 -4.519531 9.507812 -4.164062 L 8.046875 -2.097656 C 7.796875 -1.742188 7.46875 -1.6875 7.113281 -1.9375 Z M 5.746094 -2.90625 "/></g></g></g><g fill="#000000" fill-opacity="1"><g transform="translate(135.847837, 283.896857)"><g><path d="M 12.128906 -6.363281 C 12.210938 -6.511719 12.199219 -6.632812 12.023438 -6.730469 L 6.636719 -9.71875 C 6.503906 -9.792969 6.367188 -9.753906 6.289062 -9.605469 L 0.863281 0.171875 C 0.78125 0.316406 0.820312 0.453125 0.953125 0.527344 L 6.339844 3.515625 C 6.515625 3.613281 6.621094 3.558594 6.703125 3.414062 L 7.515625 1.949219 C 7.605469 1.789062 7.585938 1.683594 7.410156 1.585938 L 3.792969 -0.421875 L 4.996094 -2.585938 L 7.75 -1.0625 C 7.894531 -0.980469 8.03125 -1.019531 8.121094 -1.179688 L 8.925781 -2.628906 C 9.015625 -2.789062 8.976562 -2.925781 8.828125 -3.007812 L 6.078125 -4.535156 L 7.328125 -6.789062 L 10.941406 -4.78125 C 11.117188 -4.683594 11.234375 -4.753906 11.316406 -4.902344 Z M 12.128906 -6.363281 "/></g></g></g><g fill="#000000" fill-opacity="1"><g transform="translate(145.360125, 289.10028)"><g><path d="M 11.636719 -7.953125 C 11.453125 -8.027344 11.304688 -7.980469 11.191406 -7.828125 L 6.683594 -1.589844 L 7.742188 -9.210938 C 7.761719 -9.402344 7.691406 -9.539062 7.503906 -9.613281 L 5.457031 -10.4375 C 5.253906 -10.519531 5.101562 -10.453125 5.019531 -10.25 L 0.902344 0 C 0.820312 0.203125 0.886719 0.355469 1.085938 0.4375 L 2.515625 1.011719 C 2.71875 1.09375 2.871094 1.027344 2.953125 0.824219 L 5.402344 -5.28125 L 5.511719 -5.234375 L 4.503906 1.5 C 4.480469 1.691406 4.550781 1.828125 4.738281 1.902344 L 5.652344 2.269531 C 5.839844 2.347656 5.988281 2.296875 6.101562 2.144531 L 10.03125 -3.421875 L 10.140625 -3.375 L 7.691406 2.726562 C 7.609375 2.929688 7.671875 3.082031 7.875 3.164062 L 9.320312 3.742188 C 9.523438 3.824219 9.675781 3.761719 9.753906 3.558594 L 13.875 -6.695312 C 13.953125 -6.894531 13.890625 -7.046875 13.6875 -7.128906 Z M 11.636719 -7.953125 "/></g></g></g><g fill="#000000" fill-opacity="1"><g transform="translate(158.027344, 293.864543)"><g><path d="M 1.0625 0.308594 C 0.882812 0.253906 0.832031 0.136719 0.878906 -0.0234375 L 3.984375 -10.769531 C 4.027344 -10.929688 4.136719 -11 4.3125 -10.949219 L 5.988281 -10.46875 C 6.148438 -10.421875 6.214844 -10.296875 6.167969 -10.136719 L 3.066406 0.605469 C 3.019531 0.769531 2.894531 0.835938 2.734375 0.789062 Z M 1.0625 0.308594 "/></g></g></g><g fill="#000000" fill-opacity="1"><g transform="translate(163.964076, 295.580709)"><g><path d="M 7.832031 -10.390625 C 7.652344 -10.425781 7.476562 -10.308594 7.4375 -10.128906 L 5.78125 -1.785156 C 5.695312 -1.34375 5.421875 -1.175781 4.996094 -1.261719 L 4.140625 -1.429688 C 3.714844 -1.515625 3.527344 -1.773438 3.613281 -2.21875 L 5.273438 -10.558594 C 5.308594 -10.738281 5.1875 -10.917969 5.007812 -10.953125 L 3.433594 -11.265625 C 3.25 -11.300781 3.074219 -11.183594 3.039062 -11.003906 L 1.289062 -2.203125 C 0.984375 -0.65625 1.640625 0.324219 3.183594 0.632812 L 5.023438 0.996094 C 6.566406 1.304688 7.550781 0.648438 7.859375 -0.898438 L 9.605469 -9.699219 C 9.640625 -9.878906 9.523438 -10.054688 9.34375 -10.089844 Z M 7.832031 -10.390625 "/></g></g></g><g fill="#000000" fill-opacity="1"><g transform="translate(174.628429, 297.630806)"><g><path d="M 8.648438 -11.128906 C 8.449219 -11.144531 8.324219 -11.050781 8.261719 -10.871094 L 5.875 -3.558594 L 4.554688 -11.136719 C 4.519531 -11.324219 4.410156 -11.433594 4.207031 -11.445312 L 2.003906 -11.605469 C 1.789062 -11.621094 1.664062 -11.511719 1.648438 -11.292969 L 0.859375 -0.273438 C 0.84375 -0.0585938 0.953125 0.0664062 1.167969 0.0820312 L 2.703125 0.195312 C 2.921875 0.207031 3.046875 0.101562 3.0625 -0.117188 L 3.53125 -6.679688 L 3.648438 -6.671875 L 4.746094 0.0546875 C 4.78125 0.242188 4.890625 0.351562 5.09375 0.363281 L 6.078125 0.433594 C 6.277344 0.449219 6.402344 0.355469 6.464844 0.175781 L 8.507812 -6.324219 L 8.625 -6.316406 L 8.15625 0.246094 C 8.140625 0.464844 8.25 0.589844 8.464844 0.605469 L 10.019531 0.714844 C 10.234375 0.730469 10.359375 0.625 10.375 0.40625 L 11.164062 -10.613281 C 11.179688 -10.832031 11.070312 -10.957031 10.855469 -10.972656 Z M 8.648438 -11.128906 "/></g></g></g><g fill="#000000" fill-opacity="1"><g transform="translate(188.154152, 298.299139)"><g/></g></g><g fill="#000000" fill-opacity="1"><g transform="translate(194.573021, 298.096425)"><g><path d="M 6.394531 -10.125 C 6.210938 -11.6875 5.28125 -12.417969 3.71875 -12.234375 L 1.855469 -12.015625 C 0.292969 -11.832031 -0.441406 -10.902344 -0.253906 -9.339844 L 0.550781 -2.492188 C 0.734375 -0.929688 1.664062 -0.195312 3.226562 -0.378906 L 4.257812 -0.5 L 4.964844 0.664062 C 5.046875 0.789062 5.109375 0.882812 5.277344 0.863281 L 7.003906 0.660156 C 7.1875 0.636719 7.308594 0.507812 7.203125 0.332031 L 6.371094 -1.019531 C 7.042969 -1.46875 7.324219 -2.226562 7.199219 -3.273438 Z M 1.953125 -9.179688 C 1.902344 -9.613281 2.109375 -9.871094 2.542969 -9.921875 L 3.605469 -10.046875 C 4.039062 -10.097656 4.296875 -9.894531 4.347656 -9.460938 L 5.054688 -3.441406 C 5.109375 -2.996094 4.902344 -2.75 4.46875 -2.699219 L 3.40625 -2.574219 C 2.972656 -2.523438 2.714844 -2.710938 2.664062 -3.160156 Z M 1.953125 -9.179688 "/></g></g></g><g fill="#000000" fill-opacity="1"><g transform="translate(205.235466, 296.711259)"><g><path d="M 2.882812 -12.6875 C 2.707031 -12.648438 2.59375 -12.46875 2.632812 -12.289062 L 4.542969 -4 C 4.644531 -3.558594 4.464844 -3.296875 4.039062 -3.199219 L 3.191406 -3.003906 C 2.765625 -2.90625 2.488281 -3.0625 2.386719 -3.503906 L 0.480469 -11.792969 C 0.4375 -11.972656 0.257812 -12.085938 0.078125 -12.042969 L -1.488281 -11.683594 C -1.667969 -11.640625 -1.78125 -11.460938 -1.738281 -11.28125 L 0.273438 -2.535156 C 0.628906 -1.003906 1.632812 -0.375 3.164062 -0.730469 L 4.992188 -1.148438 C 6.523438 -1.503906 7.152344 -2.507812 6.800781 -4.039062 L 4.785156 -12.78125 C 4.746094 -12.960938 4.566406 -13.074219 4.386719 -13.035156 Z M 2.882812 -12.6875 "/></g></g></g><g fill="#000000" fill-opacity="1"><g transform="translate(215.729666, 294.185138)"><g><path d="M 8.234375 -2.925781 C 8.421875 -2.996094 8.46875 -3.117188 8.359375 -3.273438 L 1.988281 -12.894531 C 1.902344 -13.042969 1.785156 -13.070312 1.640625 -13.019531 L -0.550781 -12.242188 C -0.691406 -12.191406 -0.765625 -12.09375 -0.738281 -11.925781 L 0.394531 -0.441406 C 0.40625 -0.25 0.519531 -0.183594 0.695312 -0.246094 L 2.238281 -0.796875 C 2.382812 -0.847656 2.433594 -0.953125 2.414062 -1.105469 L 2.195312 -3.269531 L 5.160156 -4.324219 L 6.371094 -2.515625 C 6.453125 -2.382812 6.5625 -2.332031 6.703125 -2.382812 Z M 4.023438 -5.976562 L 2.035156 -5.273438 L 1.503906 -9.914062 Z M 4.023438 -5.976562 "/></g></g></g><g fill="#000000" fill-opacity="1"><g transform="translate(226.860313, 290.02937)"><g><path d="M 1.835938 -3.347656 L 4.816406 -4.796875 C 4.980469 -4.878906 5.101562 -4.824219 5.171875 -4.671875 L 5.90625 -3.167969 C 5.984375 -3.003906 5.945312 -2.890625 5.78125 -2.808594 L 0.992188 -0.484375 C 0.84375 -0.410156 0.714844 -0.441406 0.636719 -0.605469 L -4.253906 -10.664062 C -4.324219 -10.816406 -4.28125 -10.949219 -4.128906 -11.023438 L -2.5625 -11.78125 C -2.398438 -11.863281 -2.277344 -11.808594 -2.203125 -11.660156 Z M 1.835938 -3.347656 "/></g></g></g><g fill="#000000" fill-opacity="1"><g transform="translate(235.536346, 285.635894)"><g><path d="M 0.953125 -0.5625 C 0.792969 -0.46875 0.667969 -0.511719 0.585938 -0.65625 L -5.097656 -10.285156 C -5.183594 -10.429688 -5.160156 -10.558594 -5.003906 -10.652344 L -3.503906 -11.539062 C -3.359375 -11.625 -3.222656 -11.589844 -3.136719 -11.445312 L 2.546875 -1.8125 C 2.628906 -1.667969 2.59375 -1.53125 2.449219 -1.445312 Z M 0.953125 -0.5625 "/></g></g></g><g fill="#000000" fill-opacity="1"><g transform="translate(240.829688, 282.493828)"><g><path d="M -1.09375 -13.570312 C -0.945312 -13.675781 -0.820312 -13.640625 -0.722656 -13.503906 L 0.242188 -12.136719 C 0.339844 -12 0.328125 -11.871094 0.179688 -11.765625 L -1.40625 -10.644531 L 3.921875 -3.09375 C 4.027344 -2.945312 4.007812 -2.828125 3.855469 -2.722656 L 2.433594 -1.71875 C 2.296875 -1.621094 2.167969 -1.632812 2.0625 -1.78125 L -3.269531 -9.332031 L -4.855469 -8.210938 C -4.992188 -8.117188 -5.128906 -8.140625 -5.226562 -8.277344 L -6.191406 -9.644531 C -6.289062 -9.78125 -6.265625 -9.921875 -6.128906 -10.015625 Z M -1.09375 -13.570312 "/></g></g></g><g fill="#000000" fill-opacity="1"><g transform="translate(249.005073, 276.606266)"><g><path d="M -2.753906 -13.195312 C -2.902344 -13.0625 -2.925781 -12.910156 -2.863281 -12.738281 L -1.425781 -8.273438 L -5.675781 -10.261719 C -5.835938 -10.339844 -5.992188 -10.339844 -6.140625 -10.207031 L -7.398438 -9.097656 C -7.585938 -8.933594 -7.5625 -8.730469 -7.34375 -8.632812 L -0.453125 -5.449219 L 2.226562 -2.410156 C 2.371094 -2.246094 2.535156 -2.234375 2.699219 -2.378906 L 3.90625 -3.441406 C 4.066406 -3.585938 4.078125 -3.753906 3.933594 -3.914062 L 1.253906 -6.953125 L -1.042969 -14.191406 C -1.109375 -14.421875 -1.308594 -14.46875 -1.496094 -14.304688 Z M -2.753906 -13.195312 "/></g></g></g></svg>